<svg xmlns="http://www.w3.org/2000/svg" width="212.687" height="236.319" viewBox="0 0 212.687 236.319">
  <g id="Grupo_16145" data-name="Grupo 16145" transform="translate(-1.719 -1.447)">
    <path id="Trazado_27257" data-name="Trazado 27257" d="M130.568,11.873H12.626v96a5.213,5.213,0,1,1-10.426,0V6.66A5.2,5.2,0,0,1,7.413,1.447H134.044a5.341,5.341,0,0,1,3.692,1.52l33.8,33.8a5.156,5.156,0,0,1,1.52,3.692v67.42a5.213,5.213,0,1,1-10.426,0V43.932H150.942a20.468,20.468,0,0,1-20.374-20.374ZM12.626,227.34h150V200.146a5.213,5.213,0,1,1,10.426,0v32.407a5.228,5.228,0,0,1-5.213,5.213H7.413A5.228,5.228,0,0,1,2.2,232.553V200.146a5.213,5.213,0,1,1,10.426,0Z" transform="translate(20.414 0)" fill="#5ed45e" fill-rule="evenodd"/>
    <path id="Trazado_27258" data-name="Trazado 27258" d="M3.005,2.825h100.91v8.688H3.005Z" transform="translate(54.588 58.479)" fill="#5ed45e" fill-rule="evenodd"/>
    <path id="Trazado_27259" data-name="Trazado 27259" d="M3.005,3.3h100.91v8.688H3.005Z" transform="translate(54.588 78.622)" fill="#5ed45e" fill-rule="evenodd"/>
    <path id="Trazado_27260" data-name="Trazado 27260" d="M3.005,2.35H74.352v8.688H3.005Z" transform="translate(54.588 38.337)" fill="#5ed45e" fill-rule="evenodd"/>
    <path id="Trazado_27261" data-name="Trazado 27261" d="M45.421,75.495,62.58,31.4h9.427l17.68,44.093H79.956L76.133,65.46H58.5L54.847,75.495Zm48.958,0V31.4h14.292c5.43,0,8.949.217,10.6.652a11.462,11.462,0,0,1,6.342,4.3,13.775,13.775,0,0,1,2.563,8.6,14.142,14.142,0,0,1-1.477,6.82,11.883,11.883,0,0,1-3.736,4.344,13.546,13.546,0,0,1-4.6,2.085,49.476,49.476,0,0,1-9.253.652h-5.821V75.495Zm32.059,0L143.6,31.4h9.427L170.7,75.495h-9.731L157.151,65.46H139.514l-3.649,10.035Zm-93.4,27.542H210.931a3.458,3.458,0,0,0,3.475-3.475V7.292a3.486,3.486,0,0,0-3.475-3.475H5.194A3.458,3.458,0,0,0,1.719,7.292V99.561a3.431,3.431,0,0,0,3.475,3.475H33.04Z" transform="translate(0 100.585)" fill="#5ed45e" fill-rule="evenodd"/>
    <path id="Trazado_27262" data-name="Trazado 27262" d="M9.045,4.688,3.089,21.057H15.124Z" transform="translate(58.143 137.572)" fill="#5ed45e" fill-rule="evenodd"/>
    <path id="Trazado_27263" data-name="Trazado 27263" d="M4.057,4.623V17.134H8.922q5.278,0,7.037-.652a5.9,5.9,0,0,0,3.823-5.6,5.709,5.709,0,0,0-1.434-4,6.052,6.052,0,0,0-3.562-1.955,47.361,47.361,0,0,0-6.429-.3Z" transform="translate(99.227 134.793)" fill="#5ed45e" fill-rule="evenodd"/>
    <path id="Trazado_27264" data-name="Trazado 27264" d="M10.91,4.688,4.954,21.057H16.989Z" transform="translate(137.3 137.572)" fill="#5ed45e" fill-rule="evenodd"/>
  </g>
</svg>
