<svg xmlns="http://www.w3.org/2000/svg" width="130" height="130" viewBox="0 0 130 130">
  <g id="Grupo_16092" data-name="Grupo 16092" transform="translate(-454 -2557)">
    <circle id="Elipse_1311" data-name="Elipse 1311" cx="65" cy="65" r="65" transform="translate(454 2557)" fill="#f0fff0"/>
    <g id="Grupo_16082" data-name="Grupo 16082" transform="translate(455 2538.816)">
      <rect id="Rect치ngulo_3047" data-name="Rect치ngulo 3047" width="14" height="6" transform="translate(44 94.184)" fill="#5ed45e"/>
      <path id="Trazado_27742" data-name="Trazado 27742" d="M80.427,80H64v8.213H80.427ZM69.476,85.476H66.738V82.738h2.738Zm8.213,0H72.213V82.738h5.476Z" transform="translate(-26.524 -26.524)" fill="#5ed45e"/>
      <path id="Trazado_27743" data-name="Trazado 27743" d="M261.476,171.805a5.482,5.482,0,0,0,5.476-5.476V133.476a8.18,8.18,0,0,1,2.1-5.476H256v38.33A5.482,5.482,0,0,0,261.476,171.805Z" transform="translate(-185.67 -66.311)" fill="#5ed45e"/>
      <path id="Trazado_27744" data-name="Trazado 27744" d="M442.22,232.474a1.35,1.35,0,0,0-1.036-.475h-1.169a4.1,4.1,0,0,1,.191,1.971l-4.664,31.485a4.046,4.046,0,0,1-.194.767h.8c.127,0,.252.007.376.018v-.018a1.377,1.377,0,0,0,1.354-1.168l4.664-31.485A1.349,1.349,0,0,0,442.22,232.474Z" transform="translate(-334.328 -152.515)" fill="#5ed45e"/>
      <path id="Trazado_27745" data-name="Trazado 27745" d="M190.643,174.543h-19.5l-.579,3.906a1.368,1.368,0,0,0,1.354,1.569h40.074a1.377,1.377,0,0,0,1.354-1.168l4.665-31.485a1.369,1.369,0,0,0-1.354-1.569h-4.106v19.165a1.369,1.369,0,0,1-1.369,1.369H207.07v-2.738h2.738V133.476a5.476,5.476,0,0,0-10.951,0V166.33A8.223,8.223,0,0,1,190.643,174.543Zm10.951-10.951h2.738v2.738h-2.738Z" transform="translate(-114.837 -66.311)" fill="#5ed45e"/>
      <rect id="Rect치ngulo_3048" data-name="Rect치ngulo 3048" width="11" height="5" transform="translate(37 70.184)" fill="#5ed45e"/>
      <path id="Trazado_27746" data-name="Trazado 27746" d="M37.476,105.494H69.688a8.18,8.18,0,0,1-2.1-5.476V48H32v52.019A5.482,5.482,0,0,0,37.476,105.494Zm23.272-4.107a1.369,1.369,0,0,1-1.369,1.369H42.951a1.369,1.369,0,0,1-1.369-1.369V93.174a1.369,1.369,0,0,1,1.369-1.369H59.378a1.369,1.369,0,0,1,1.369,1.369Zm-23.272-17.8V80.854h9.582v2.738Zm24.64,5.476H42.951V86.33H62.116Zm2.738-5.476H49.8V80.854H64.854ZM53.9,75.378V72.64h5.476v2.738Zm10.951,0H62.116V72.64h2.738Zm0-5.476H56.64V67.165h8.213ZM59.378,50.738h5.476v2.738H59.378Zm0,5.476h5.476v2.738H59.378Zm-24.64-4.107a1.369,1.369,0,0,1,1.369-1.369H55.272a1.369,1.369,0,0,1,1.369,1.369V63.058a1.369,1.369,0,0,1-1.369,1.369H36.107a1.369,1.369,0,0,1-1.369-1.369Zm0,16.427a1.369,1.369,0,0,1,1.369-1.369H49.8a1.369,1.369,0,0,1,1.369,1.369v8.213A1.369,1.369,0,0,1,49.8,78.116H36.107a1.369,1.369,0,0,1-1.369-1.369Zm0,17.8h5.476v2.738H34.738Z" fill="#5ed45e"/>
      <path id="Trazado_27747" data-name="Trazado 27747" d="M33.369,448a1.369,1.369,0,0,0,0,2.738H63.721a4.1,4.1,0,0,1,0-2.738Z" transform="translate(0 -331.554)" fill="#5ed45e"/>
      <path id="Trazado_27748" data-name="Trazado 27748" d="M267.592,448H233.369a1.369,1.369,0,0,0,0,2.738h34.223a1.369,1.369,0,0,0,0-2.738Z" transform="translate(-165.777 -331.554)" fill="#5ed45e"/>
    </g>
  </g>
</svg>
