<svg xmlns="http://www.w3.org/2000/svg" width="130" height="130" viewBox="0 0 130 130">
  <g id="Grupo_16093" data-name="Grupo 16093" transform="translate(-454 -2841)">
    <circle id="Elipse_1312" data-name="Elipse 1312" cx="65" cy="65" r="65" transform="translate(454 2841)" fill="#f0fff0"/>
    <g id="Grupo_16084" data-name="Grupo 16084" transform="translate(479.5 2865.385)">
      <g id="Grupo_16083" data-name="Grupo 16083" transform="translate(2.5 2.5)">
        <path id="Trazado_27749" data-name="Trazado 27749" d="M64.064,53.512a10.752,10.752,0,0,0-5.769,1.746l-5.39-5.39a17.911,17.911,0,0,0,0-22.621l5.39-5.39A10.207,10.207,0,0,0,64.14,23.6,10.552,10.552,0,1,0,53.512,13.052a10.752,10.752,0,0,0,1.746,5.769l-5.39,5.39a17.911,17.911,0,0,0-22.621,0L21.857,18.9A10.752,10.752,0,0,0,23.6,13.128,10.529,10.529,0,0,0,13.052,2.576,10.417,10.417,0,0,0,2.5,13.052,10.529,10.529,0,0,0,13.052,23.6a10.752,10.752,0,0,0,5.769-1.746l5.314,5.39a17.911,17.911,0,0,0,0,22.621L18.9,55.258a10.752,10.752,0,0,0-5.769-1.746A10.552,10.552,0,1,0,23.679,64.064a11.012,11.012,0,0,0-1.746-5.845L27.247,52.9a17.911,17.911,0,0,0,22.621,0l5.39,5.39a10.14,10.14,0,0,0-1.746,5.769A10.552,10.552,0,1,0,64.064,53.512Zm0-46.761a6.3,6.3,0,1,1-6.3,6.3A6.285,6.285,0,0,1,64.064,6.751Zm-57.313,6.3a6.3,6.3,0,1,1,6.3,6.3A6.285,6.285,0,0,1,6.751,13.052Zm6.3,57.313a6.3,6.3,0,1,1,6.3-6.3A6.285,6.285,0,0,1,13.052,70.364ZM24.438,38.558A14.119,14.119,0,1,1,38.558,52.677,14.141,14.141,0,0,1,24.438,38.558ZM64.064,70.364a6.3,6.3,0,1,1,6.3-6.3A6.285,6.285,0,0,1,64.064,70.364Z" transform="translate(-2.5 -2.5)" fill="#5ed45e"/>
        <path id="Trazado_27750" data-name="Trazado 27750" d="M51.122,42.8a3.9,3.9,0,0,0-2.809,1.139l-.683.683-.683-.683A4.027,4.027,0,0,0,44.138,42.8a3.846,3.846,0,0,0-2.885,1.215,4.058,4.058,0,0,0,.152,5.693l5.845,5.769a.8.8,0,0,0,.987,0l5.845-5.845a3.987,3.987,0,0,0,0-5.693A4.535,4.535,0,0,0,51.122,42.8Z" transform="translate(-11.572 -12.208)" fill="#5ed45e"/>
      </g>
    </g>
  </g>
</svg>
