<svg xmlns="http://www.w3.org/2000/svg" width="35.98" height="42.55" viewBox="0 0 35.98 42.55">
  <g id="Grupo_1204" data-name="Grupo 1204" transform="translate(-593.218 -4970.287)">
    <path id="Trazado_7699" data-name="Trazado 7699" d="M611.809,5012.837l-2.991-5.552c-.341-.635-.7-1.26-1.015-1.908a1.253,1.253,0,0,0-1.37-.8c-1.662.13-3.331.188-4.994.317a3.87,3.87,0,0,1-4.51-3.264c-.7-3.531-1.268-7.088-1.925-10.628-.5-2.686-1.04-5.364-1.577-8.042a6.765,6.765,0,0,1,.069-3.6,5.4,5.4,0,0,1,4.171-3.8q12.355-2.6,24.717-5.16c3.146-.65,5.808,1.635,5.945,5.054.123,3.046.227,6.092.34,9.138.174,4.669.358,9.338.514,14.008a10.693,10.693,0,0,1-.12,2.4,4.325,4.325,0,0,1-4.291,3.481c-2.452.009-4.9.019-7.354-.007a1.587,1.587,0,0,0-1.571.948C614.538,5007.864,613.2,5010.295,611.809,5012.837Zm.012-5.3c.678-1.234,1.31-2.363,1.922-3.5a3.61,3.61,0,0,1,3.453-2.058c2.348.018,4.7,0,7.043,0,1.762,0,2.528-.8,2.458-2.548q-.17-4.282-.324-8.566c-.136-3.725-.26-7.45-.4-11.175-.056-1.522-.09-3.048-.212-4.565a2.379,2.379,0,0,0-3.034-2.223q-3.386.7-6.769,1.405-8.852,1.846-17.7,3.7a3.153,3.153,0,0,0-2.492,3.693q.848,4.86,1.73,9.716c.247,1.352.556,2.692.815,4.042.35,1.819.672,3.643,1.018,5.462.215,1.123.705,1.516,1.836,1.456q2.622-.136,5.241-.312a3.393,3.393,0,0,1,3.471,1.868c.179.325.351.653.527.979Z" fill="red"/>
    <path id="Trazado_7700" data-name="Trazado 7700" d="M611.83,5005.091c-.3-.548-.56-1.031-.816-1.52a4.55,4.55,0,0,0-4.665-2.679c-1.684.115-3.372.181-5.054.321-.559.047-.762-.129-.86-.66q-1.713-9.322-3.466-18.633a2.278,2.278,0,0,1,1.993-2.926c7.967-1.607,15.918-3.294,23.874-4.954,1.117-.233,1.748.237,1.794,1.39q.3,7.625.588,15.248c.106,2.815.2,5.63.293,8.445.006.185.011.37.01.556-.006.889-.209,1.1-1.09,1.1-2.2.005-4.409.07-6.61-.009a5.178,5.178,0,0,0-5.356,3.171C612.292,5004.312,612.069,5004.66,611.83,5005.091Zm.592-25.108c-.144,0-.289,0-.433,0a5.881,5.881,0,0,0-6.125,5.291c-.138.782-.021.947.759,1.056.957.134,1.921.233,2.871.409.6.112.822-.083.985-.668a3.866,3.866,0,0,1,.841-1.588,1.582,1.582,0,0,1,1.9-.215,1.122,1.122,0,0,1,.642,1.343,3.88,3.88,0,0,1-.832,1.45c-.682.768-1.487,1.425-2.175,2.188a4.87,4.87,0,0,0-1.236,3.519.682.682,0,0,0,.766.759c1.068,0,2.137.021,3.2-.021.194-.007.532-.262.541-.419a4.066,4.066,0,0,1,1.584-2.751,20.98,20.98,0,0,0,1.955-1.968,4.917,4.917,0,0,0,.114-6.017A6.112,6.112,0,0,0,612.422,4979.983Zm1.959,16.724a2.361,2.361,0,0,0-2.381-2.331,2.3,2.3,0,1,0-.056,4.6A2.361,2.361,0,0,0,614.381,4996.707Z" fill="red"/>
  </g>
</svg>
