<svg xmlns="http://www.w3.org/2000/svg" width="1449.999" height="1450" viewBox="0 0 1449.999 1450">
  <g id="Grupo_15976" data-name="Grupo 15976" transform="translate(-0.571 -0.399)">
    <g id="Grupo_15830" data-name="Grupo 15830">
      <rect id="Rectángulo_3068" data-name="Rectángulo 3068" width="1449.999" height="1450" transform="translate(0.571 0.399)" fill="#989b9b"/>
    </g>
    <g id="Grupo_15832" data-name="Grupo 15832" opacity="0.2">
      <g id="Grupo_15831" data-name="Grupo 15831">
        <path id="Trazado_29264" data-name="Trazado 29264" d="M864.267,145.261l-3.061-.754-.033-.812-2.919-.719a254.144,254.144,0,0,0-107.015-3.134l-1.221.235c-1.161.22-2.321.445-3.479.682-.4.081-1.679.354-1.679.354q-1.509.319-3.018.654c-.561.126-1.832.422-1.832.422q-1.43.332-2.859.678-.942.231-1.884.469-1.412.355-2.819.729l-.139.038c-.578.152-1.157.305-1.729.462-.957.26-1.911.53-2.867.8,0,0-1.362.387-1.787.511-1.034.3-2.066.619-3.1.935,0,0-1.206.366-1.521.465-1.061.333-2.119.682-3.177,1.029a254.123,254.123,0,0,0-140.885,5.938l-2.848.954.032.805-3,1L578.771,338.4l5.049-1.686a251.56,251.56,0,0,1,137.369-6.268l4.138,1,3.68-1.2a251.477,251.477,0,0,1,137.429-4.75l5.171,1.278Z"/>
        <path id="Trazado_29265" data-name="Trazado 29265" d="M266.6,1086.382a14.9,14.9,0,0,1-3.266-.371,14.324,14.324,0,0,1-6.075-3.007,14.159,14.159,0,0,1-4.443-6.75L220.791,970.292a14.129,14.129,0,0,1-.509-2.572l-.161-1.481L231.3,950.047l-54.391-52.612-3.92,2.176.418-5.561-2.682-2.591,3.026-1.62,6.625-75.909L315.7,741.311l-7.113,81.52,62.532,60.485,3.541,19.127,23.575,9.183L431.656,1022.2a14.318,14.318,0,0,1,.545,5.618,14.464,14.464,0,0,1-2.374,6.416,14.094,14.094,0,0,1-7.7,5.761l-151.518,45.793A13.847,13.847,0,0,1,266.6,1086.382Z"/>
        <path id="Trazado_29266" data-name="Trazado 29266" d="M675.894,1284.579a11.094,11.094,0,0,1-11.089-11.074v-.517l6.05-23.047H596.833a11.658,11.658,0,0,1-11.644-11.646V1069.384a11.646,11.646,0,0,1,11.631-11.633H851.028a11.658,11.658,0,0,1,11.644,11.645V1238.31a11.644,11.644,0,0,1-11.632,11.631H777.011l6.051,23.047v.517a11.1,11.1,0,0,1-11.093,11.074Z"/>
        <path id="Trazado_29267" data-name="Trazado 29267" d="M1060.858,598.836a17.224,17.224,0,0,1-16.965-14.348L1030.161,505.3a17.271,17.271,0,0,1,14-19.977l190.58-33.047a17.211,17.211,0,0,1,19.912,14.1l13.732,79.189a17.272,17.272,0,0,1-14,19.977L1063.8,598.582a17.224,17.224,0,0,1-2.942.254Z"/>
        <path id="Trazado_29268" data-name="Trazado 29268" d="M393.257,608.831a10.1,10.1,0,0,1-2.314-.269L185.032,560.248a10.147,10.147,0,0,1-7.549-12.184l34.5-147.037a10.125,10.125,0,0,1,12.178-7.553l205.911,48.315a10.146,10.146,0,0,1,7.549,12.179l-34.5,147.039a10.094,10.094,0,0,1-9.863,7.824Z"/>
        <path id="Trazado_29269" data-name="Trazado 29269" d="M1032.222,1043.92a6.194,6.194,0,0,1-6.186-6.187V880.751a10.325,10.325,0,0,1,10.314-10.313h224.018a10.325,10.325,0,0,1,10.315,10.313v156.982a6.2,6.2,0,0,1-6.187,6.187Z"/>
      </g>
    </g>
    <g id="Grupo_15833" data-name="Grupo 15833">
      <path id="Trazado_29270" data-name="Trazado 29270" d="M724.721,598.138,613.44,662.118l111.9,63.981L836,662.383Z" fill="#e6854d"/>
      <path id="Trazado_29271" data-name="Trazado 29271" d="M613.438,662.118V789.465l111.593,65,.31-128.364Z" fill="#e6854d"/>
      <path id="Trazado_29272" data-name="Trazado 29272" d="M725.341,726.1l-.31,128.364,111.282-63.982-.31-128.1Z" fill="#e6854d"/>
    </g>
    <g id="Grupo_15927" data-name="Grupo 15927">
      <g id="Grupo_15915" data-name="Grupo 15915">
        <g id="Grupo_15860" data-name="Grupo 15860">
          <g id="Grupo_15846" data-name="Grupo 15846">
            <g id="Grupo_15837" data-name="Grupo 15837">
              <g id="Grupo_15836" data-name="Grupo 15836">
                <g id="Grupo_15835" data-name="Grupo 15835">
                  <g id="Grupo_15834" data-name="Grupo 15834">
                    <path id="Trazado_29273" data-name="Trazado 29273" d="M766.319,510.1a12.129,12.129,0,0,1-8.629-3.567l-40.746-40.75a12.217,12.217,0,0,1,17.274-17.28l40.74,40.753a12.209,12.209,0,0,1-8.639,20.844Z" opacity="0.1"/>
                    <path id="Trazado_29274" data-name="Trazado 29274" d="M759.683,504.533l-40.744-40.749A9.4,9.4,0,0,1,732.228,450.5l40.736,40.748a9.394,9.394,0,0,1-13.281,13.288Z" fill="#fff"/>
                  </g>
                </g>
              </g>
            </g>
            <g id="Grupo_15841" data-name="Grupo 15841">
              <g id="Grupo_15840" data-name="Grupo 15840">
                <g id="Grupo_15839" data-name="Grupo 15839">
                  <g id="Grupo_15838" data-name="Grupo 15838">
                    <path id="Trazado_29275" data-name="Trazado 29275" d="M684.72,510.1a12.214,12.214,0,0,1-8.627-20.854L716.831,448.5A12.214,12.214,0,0,1,734.1,465.778l-40.744,40.749A12.145,12.145,0,0,1,684.72,510.1Z" opacity="0.1"/>
                    <path id="Trazado_29276" data-name="Trazado 29276" d="M678.082,491.245,718.826,450.5a9.393,9.393,0,0,1,13.281,13.287l-40.743,40.749a9.394,9.394,0,0,1-13.282-13.288Z" fill="#fff"/>
                  </g>
                </g>
              </g>
            </g>
            <g id="Grupo_15845" data-name="Grupo 15845">
              <g id="Grupo_15844" data-name="Grupo 15844">
                <g id="Grupo_15843" data-name="Grupo 15843">
                  <g id="Grupo_15842" data-name="Grupo 15842">
                    <path id="Trazado_29277" data-name="Trazado 29277" d="M725.825,579.879A12.232,12.232,0,0,1,713.6,567.667V457.139a12.216,12.216,0,0,1,24.433,0l-.006,110.532A12.221,12.221,0,0,1,725.825,579.879Z" opacity="0.1"/>
                    <path id="Trazado_29278" data-name="Trazado 29278" d="M716.421,567.666V457.139a9.4,9.4,0,0,1,18.794,0l-.007,110.527a9.393,9.393,0,0,1-18.787,0Z" fill="#fff"/>
                  </g>
                </g>
              </g>
            </g>
          </g>
          <g id="Grupo_15859" data-name="Grupo 15859">
            <g id="Grupo_15850" data-name="Grupo 15850">
              <g id="Grupo_15849" data-name="Grupo 15849">
                <g id="Grupo_15848" data-name="Grupo 15848">
                  <g id="Grupo_15847" data-name="Grupo 15847">
                    <path id="Trazado_29279" data-name="Trazado 29279" d="M725.47,1005.9a12.157,12.157,0,0,1-8.634-3.569l-40.741-40.755A12.213,12.213,0,0,1,693.362,944.3l40.746,40.752a12.218,12.218,0,0,1-8.638,20.848Z" opacity="0.1"/>
                    <path id="Trazado_29280" data-name="Trazado 29280" d="M691.37,946.3l40.744,40.749a9.4,9.4,0,0,1-13.288,13.288l-40.737-40.748A9.394,9.394,0,0,1,691.37,946.3Z" fill="#fff"/>
                  </g>
                </g>
              </g>
            </g>
            <g id="Grupo_15854" data-name="Grupo 15854">
              <g id="Grupo_15853" data-name="Grupo 15853">
                <g id="Grupo_15852" data-name="Grupo 15852">
                  <g id="Grupo_15851" data-name="Grupo 15851">
                    <path id="Trazado_29281" data-name="Trazado 29281" d="M725.593,1005.9a12.212,12.212,0,0,1-8.643-20.842L757.7,944.3a12.213,12.213,0,0,1,17.265,17.28l-40.739,40.745A12.127,12.127,0,0,1,725.593,1005.9Z" opacity="0.1"/>
                    <path id="Trazado_29282" data-name="Trazado 29282" d="M772.972,959.585l-40.744,40.748a9.394,9.394,0,0,1-13.283-13.288L759.689,946.3a9.395,9.395,0,0,1,13.283,13.289Z" fill="#fff"/>
                  </g>
                </g>
              </g>
            </g>
            <g id="Grupo_15858" data-name="Grupo 15858">
              <g id="Grupo_15857" data-name="Grupo 15857">
                <g id="Grupo_15856" data-name="Grupo 15856">
                  <g id="Grupo_15855" data-name="Grupo 15855">
                    <path id="Trazado_29283" data-name="Trazado 29283" d="M725.228,1005.9a12.232,12.232,0,0,1-12.21-12.206l.007-110.531a12.214,12.214,0,1,1,24.427,0V993.69A12.231,12.231,0,0,1,725.228,1005.9Z" opacity="0.1"/>
                    <path id="Trazado_29284" data-name="Trazado 29284" d="M734.632,883.163V993.69a9.4,9.4,0,0,1-18.8,0l.008-110.527a9.394,9.394,0,0,1,18.787,0Z" fill="#fff"/>
                  </g>
                </g>
              </g>
            </g>
          </g>
        </g>
        <g id="Grupo_15887" data-name="Grupo 15887">
          <g id="Grupo_15873" data-name="Grupo 15873">
            <g id="Grupo_15864" data-name="Grupo 15864">
              <g id="Grupo_15863" data-name="Grupo 15863">
                <g id="Grupo_15862" data-name="Grupo 15862">
                  <g id="Grupo_15861" data-name="Grupo 15861">
                    <path id="Trazado_29285" data-name="Trazado 29285" d="M493.209,603.443a12.218,12.218,0,0,1-3.147-24.017l55.664-14.9a12.208,12.208,0,0,1,6.316,23.584L496.388,603.02A12.251,12.251,0,0,1,493.209,603.443Z" opacity="0.1"/>
                    <path id="Trazado_29286" data-name="Trazado 29286" d="M551.314,585.389,495.657,600.3a9.395,9.395,0,0,1-4.863-18.149l55.66-14.894a9.387,9.387,0,1,1,4.86,18.135Z" fill="#fff"/>
                  </g>
                </g>
              </g>
            </g>
            <g id="Grupo_15868" data-name="Grupo 15868">
              <g id="Grupo_15867" data-name="Grupo 15867">
                <g id="Grupo_15866" data-name="Grupo 15866">
                  <g id="Grupo_15865" data-name="Grupo 15865">
                    <path id="Trazado_29287" data-name="Trazado 29287" d="M508.086,659.206a12.214,12.214,0,0,1-11.8-9.063l-14.92-55.651a12.216,12.216,0,0,1,23.6-6.327l14.914,55.665a12.209,12.209,0,0,1-11.792,15.376Z" opacity="0.1"/>
                    <path id="Trazado_29288" data-name="Trazado 29288" d="M499.013,649.42l-14.924-55.657A9.4,9.4,0,0,1,502.24,588.9l14.914,55.661a9.39,9.39,0,1,1-18.141,4.861Z" fill="#fff"/>
                  </g>
                </g>
              </g>
            </g>
            <g id="Grupo_15872" data-name="Grupo 15872">
              <g id="Grupo_15871" data-name="Grupo 15871">
                <g id="Grupo_15870" data-name="Grupo 15870">
                  <g id="Grupo_15869" data-name="Grupo 15869">
                    <path id="Trazado_29289" data-name="Trazado 29289" d="M589.046,658.5a12.2,12.2,0,0,1-6.1-1.643L487.235,601.6a12.214,12.214,0,0,1-4.462-16.686,12.212,12.212,0,0,1,16.668-4.478l95.718,55.274a12.211,12.211,0,0,1-6.113,22.789Z" opacity="0.1"/>
                    <path id="Trazado_29290" data-name="Trazado 29290" d="M584.357,654.419l-95.711-55.258a9.395,9.395,0,0,1,9.388-16.276l95.715,55.27a9.391,9.391,0,1,1-9.392,16.264Z" fill="#fff"/>
                  </g>
                </g>
              </g>
            </g>
          </g>
          <g id="Grupo_15886" data-name="Grupo 15886">
            <g id="Grupo_15877" data-name="Grupo 15877">
              <g id="Grupo_15876" data-name="Grupo 15876">
                <g id="Grupo_15875" data-name="Grupo 15875">
                  <g id="Grupo_15874" data-name="Grupo 15874">
                    <path id="Trazado_29291" data-name="Trazado 29291" d="M902.145,886.724a12.212,12.212,0,0,1-3.133-24.008l55.653-14.92a12.214,12.214,0,1,1,6.32,23.6L905.329,886.3A12.11,12.11,0,0,1,902.145,886.724Z" opacity="0.1"/>
                    <path id="Trazado_29292" data-name="Trazado 29292" d="M899.74,865.441,955.4,850.518a9.395,9.395,0,0,1,4.863,18.149L904.6,883.576a9.387,9.387,0,1,1-4.86-18.135Z" fill="#fff"/>
                  </g>
                </g>
              </g>
            </g>
            <g id="Grupo_15881" data-name="Grupo 15881">
              <g id="Grupo_15880" data-name="Grupo 15880">
                <g id="Grupo_15879" data-name="Grupo 15879">
                  <g id="Grupo_15878" data-name="Grupo 15878">
                    <path id="Trazado_29293" data-name="Trazado 29293" d="M957.867,871.7a12.215,12.215,0,0,1-11.778-9.04L931.175,807a12.207,12.207,0,0,1,8.631-14.96,12.21,12.21,0,0,1,14.961,8.646l14.92,55.652a12.211,12.211,0,0,1-8.651,14.947A12.322,12.322,0,0,1,957.867,871.7Z" opacity="0.1"/>
                    <path id="Trazado_29294" data-name="Trazado 29294" d="M952.041,801.409l14.923,55.658a9.4,9.4,0,0,1-18.152,4.865L933.9,806.27a9.391,9.391,0,1,1,18.143-4.861Z" fill="#fff"/>
                  </g>
                </g>
              </g>
            </g>
            <g id="Grupo_15885" data-name="Grupo 15885">
              <g id="Grupo_15884" data-name="Grupo 15884">
                <g id="Grupo_15883" data-name="Grupo 15883">
                  <g id="Grupo_15882" data-name="Grupo 15882">
                    <path id="Trazado_29295" data-name="Trazado 29295" d="M957.7,872.019a12.193,12.193,0,0,1-6.085-1.632L855.89,815.116a12.217,12.217,0,0,1-4.475-16.674,12.225,12.225,0,0,1,16.69-4.486l95.712,55.27a12.222,12.222,0,0,1,4.464,16.686A12.253,12.253,0,0,1,957.7,872.019Z" opacity="0.1"/>
                    <path id="Trazado_29296" data-name="Trazado 29296" d="M866.7,796.4l95.712,55.271a9.395,9.395,0,0,1-9.389,16.276L857.3,812.674A9.4,9.4,0,0,1,866.7,796.4Z" fill="#fff"/>
                  </g>
                </g>
              </g>
            </g>
          </g>
        </g>
        <g id="Grupo_15914" data-name="Grupo 15914">
          <g id="Grupo_15900" data-name="Grupo 15900">
            <g id="Grupo_15891" data-name="Grupo 15891">
              <g id="Grupo_15890" data-name="Grupo 15890">
                <g id="Grupo_15889" data-name="Grupo 15889">
                  <g id="Grupo_15888" data-name="Grupo 15888">
                    <path id="Trazado_29297" data-name="Trazado 29297" d="M493.187,871.707a12.231,12.231,0,0,1-11.822-15.366l14.923-55.661a12.213,12.213,0,0,1,23.592,6.332l-14.916,55.65A12.215,12.215,0,0,1,493.187,871.707Z" opacity="0.1"/>
                    <path id="Trazado_29298" data-name="Trazado 29298" d="M517.155,806.284,502.24,861.932a9.4,9.4,0,0,1-18.151-4.865l14.924-55.658a9.393,9.393,0,0,1,18.142,4.875Z" fill="#fff"/>
                  </g>
                </g>
              </g>
            </g>
            <g id="Grupo_15895" data-name="Grupo 15895">
              <g id="Grupo_15894" data-name="Grupo 15894">
                <g id="Grupo_15893" data-name="Grupo 15893">
                  <g id="Grupo_15892" data-name="Grupo 15892">
                    <path id="Trazado_29299" data-name="Trazado 29299" d="M548.89,886.734a12.075,12.075,0,0,1-3.172-.423L490.058,871.4a12.218,12.218,0,0,1,3.155-24.014,12.279,12.279,0,0,1,3.173.42l55.659,14.907a12.217,12.217,0,0,1-3.155,24.017Z" opacity="0.1"/>
                    <path id="Trazado_29300" data-name="Trazado 29300" d="M546.454,883.589l-55.666-14.908a9.395,9.395,0,0,1,4.869-18.148l55.659,14.908a9.394,9.394,0,1,1-4.862,18.148Z" fill="#fff"/>
                  </g>
                </g>
              </g>
            </g>
            <g id="Grupo_15899" data-name="Grupo 15899">
              <g id="Grupo_15898" data-name="Grupo 15898">
                <g id="Grupo_15897" data-name="Grupo 15897">
                  <g id="Grupo_15896" data-name="Grupo 15896">
                    <path id="Trazado_29301" data-name="Trazado 29301" d="M493.067,871.516a12.221,12.221,0,0,1-6.137-22.795l95.729-55.248a12.21,12.21,0,1,1,12.207,21.15l-95.711,55.253A12.156,12.156,0,0,1,493.067,871.516Z" opacity="0.1"/>
                    <path id="Trazado_29302" data-name="Trazado 29302" d="M593.458,812.18l-95.712,55.255a9.4,9.4,0,0,1-9.4-16.274l95.723-55.245a9.39,9.39,0,1,1,9.391,16.264Z" fill="#fff"/>
                  </g>
                </g>
              </g>
            </g>
          </g>
          <g id="Grupo_15913" data-name="Grupo 15913">
            <g id="Grupo_15904" data-name="Grupo 15904">
              <g id="Grupo_15903" data-name="Grupo 15903">
                <g id="Grupo_15902" data-name="Grupo 15902">
                  <g id="Grupo_15901" data-name="Grupo 15901">
                    <path id="Trazado_29303" data-name="Trazado 29303" d="M942.971,659.205a12.3,12.3,0,0,1-3.154-.414,12.222,12.222,0,0,1-8.644-14.965l14.908-55.658a12.193,12.193,0,0,1,14.975-8.62,12.193,12.193,0,0,1,8.624,14.944l-14.918,55.657A12.212,12.212,0,0,1,942.971,659.205Z" opacity="0.1"/>
                    <path id="Trazado_29304" data-name="Trazado 29304" d="M933.9,644.559,948.806,588.9a9.4,9.4,0,0,1,18.15,4.865L952.038,649.42a9.391,9.391,0,1,1-18.143-4.861Z" fill="#fff"/>
                  </g>
                </g>
              </g>
            </g>
            <g id="Grupo_15908" data-name="Grupo 15908">
              <g id="Grupo_15907" data-name="Grupo 15907">
                <g id="Grupo_15906" data-name="Grupo 15906">
                  <g id="Grupo_15905" data-name="Grupo 15905">
                    <path id="Trazado_29305" data-name="Trazado 29305" d="M957.843,603.444a12.235,12.235,0,0,1-3.19-.425l-55.646-14.906a12.208,12.208,0,1,1,6.327-23.581l55.653,14.893a12.22,12.22,0,0,1-3.144,24.019Z" opacity="0.1"/>
                    <path id="Trazado_29306" data-name="Trazado 29306" d="M904.6,567.254l55.661,14.894A9.4,9.4,0,0,1,955.39,600.3l-55.654-14.908a9.388,9.388,0,1,1,4.861-18.135Z" fill="#fff"/>
                  </g>
                </g>
              </g>
            </g>
            <g id="Grupo_15912" data-name="Grupo 15912">
              <g id="Grupo_15911" data-name="Grupo 15911">
                <g id="Grupo_15910" data-name="Grupo 15910">
                  <g id="Grupo_15909" data-name="Grupo 15909">
                    <path id="Trazado_29307" data-name="Trazado 29307" d="M862.294,659a12.213,12.213,0,0,1-6.119-22.79l95.715-55.258a12.219,12.219,0,0,1,12.237,21.154L868.4,657.369A12.245,12.245,0,0,1,862.294,659Z" opacity="0.1"/>
                    <path id="Trazado_29308" data-name="Trazado 29308" d="M857.588,638.653,953.3,583.4a9.4,9.4,0,0,1,9.41,16.274l-95.725,55.257a9.4,9.4,0,1,1-9.4-16.273Z" fill="#fff"/>
                  </g>
                </g>
              </g>
            </g>
          </g>
        </g>
      </g>
      <g id="Grupo_15919" data-name="Grupo 15919">
        <g id="Grupo_15916" data-name="Grupo 15916">
          <path id="Trazado_29309" data-name="Trazado 29309" d="M725.233,859.658a13.12,13.12,0,0,1-13.106-13.105V604.278a13.108,13.108,0,1,1,26.216,0V846.553A13.122,13.122,0,0,1,725.233,859.658Z" opacity="0.1"/>
          <path id="Trazado_29310" data-name="Trazado 29310" d="M725.234,856.839a10.289,10.289,0,0,1-10.288-10.286V604.278a10.289,10.289,0,0,1,20.577,0V846.553A10.288,10.288,0,0,1,725.234,856.839Z" fill="#fff"/>
        </g>
        <g id="Grupo_15917" data-name="Grupo 15917">
          <path id="Trazado_29311" data-name="Trazado 29311" d="M830.13,799.083a13.071,13.071,0,0,1-6.547-1.758L613.776,676.2a13.107,13.107,0,1,1,13.11-22.7L836.693,774.626a13.106,13.106,0,0,1-6.563,24.457Z" opacity="0.1"/>
          <path id="Trazado_29312" data-name="Trazado 29312" d="M830.13,796.263a10.225,10.225,0,0,1-5.135-1.378L615.187,673.761a10.286,10.286,0,1,1,10.287-17.816l209.81,121.123a10.287,10.287,0,0,1-5.154,19.2Z" fill="#fff"/>
        </g>
        <g id="Grupo_15918" data-name="Grupo 15918">
          <path id="Trazado_29313" data-name="Trazado 29313" d="M620.341,799.083a13.146,13.146,0,0,1-11.361-6.556,13.1,13.1,0,0,1,4.8-17.9L823.583,653.5a13.107,13.107,0,1,1,13.107,22.7L626.884,797.327A13.078,13.078,0,0,1,620.341,799.083Z" opacity="0.1"/>
          <path id="Trazado_29314" data-name="Trazado 29314" d="M620.341,796.263a10.287,10.287,0,0,1-5.154-19.2L824.993,655.945a10.286,10.286,0,1,1,10.287,17.816L625.474,794.885A10.223,10.223,0,0,1,620.341,796.263Z" fill="#fff"/>
        </g>
      </g>
      <g id="Grupo_15925" data-name="Grupo 15925">
        <g id="Grupo_15920" data-name="Grupo 15920">
          <path id="Trazado_29315" data-name="Trazado 29315" d="M830.128,677.959a13.094,13.094,0,0,1-6.547-1.757l-104.9-60.574a13.105,13.105,0,0,1-4.8-17.9,13.1,13.1,0,0,1,17.906-4.8L836.69,653.5a13.106,13.106,0,0,1-6.562,24.457Z" opacity="0.1"/>
          <path id="Trazado_29316" data-name="Trazado 29316" d="M830.128,675.139a10.207,10.207,0,0,1-5.135-1.378l-104.9-60.576a10.287,10.287,0,1,1,10.288-17.816l104.9,60.576a10.286,10.286,0,0,1-5.152,19.194Z" fill="#fff"/>
        </g>
        <g id="Grupo_15921" data-name="Grupo 15921">
          <path id="Trazado_29317" data-name="Trazado 29317" d="M830.141,799.083a13.123,13.123,0,0,1-13.109-13.107l0-121.123a13.107,13.107,0,0,1,26.214,0l0,121.123A13.121,13.121,0,0,1,830.141,799.083Z" opacity="0.1"/>
          <path id="Trazado_29318" data-name="Trazado 29318" d="M830.141,796.263a10.285,10.285,0,0,1-10.288-10.287l0-121.123a10.288,10.288,0,0,1,20.575,0l0,121.123A10.285,10.285,0,0,1,830.141,796.263Z" fill="#fff"/>
        </g>
        <g id="Grupo_15922" data-name="Grupo 15922">
          <path id="Trazado_29319" data-name="Trazado 29319" d="M725.245,859.658a13.153,13.153,0,0,1-11.361-6.553,13.106,13.106,0,0,1,4.8-17.9l104.9-60.575a13.107,13.107,0,1,1,13.107,22.7L731.79,857.9A13.1,13.1,0,0,1,725.245,859.658Z" opacity="0.1"/>
          <path id="Trazado_29320" data-name="Trazado 29320" d="M725.245,856.839a10.287,10.287,0,0,1-5.153-19.2l104.9-60.575a10.287,10.287,0,0,1,10.289,17.817L730.38,855.46A10.237,10.237,0,0,1,725.245,856.839Z" fill="#fff"/>
        </g>
        <g id="Grupo_15923" data-name="Grupo 15923">
          <path id="Trazado_29321" data-name="Trazado 29321" d="M725.225,859.658a13.066,13.066,0,0,1-6.545-1.757l-104.9-60.574a13.1,13.1,0,0,1-4.794-17.906,13.1,13.1,0,0,1,17.9-4.8L731.79,835.2a13.108,13.108,0,0,1-6.565,24.457Z" opacity="0.1"/>
          <path id="Trazado_29322" data-name="Trazado 29322" d="M725.225,856.839a10.219,10.219,0,0,1-5.133-1.379l-104.9-60.575a10.287,10.287,0,0,1,10.287-17.817L730.38,837.643a10.288,10.288,0,0,1-5.155,19.2Z" fill="#fff"/>
        </g>
        <g id="Grupo_15924" data-name="Grupo 15924">
          <path id="Trazado_29323" data-name="Trazado 29323" d="M620.33,799.083a13.122,13.122,0,0,1-13.108-13.107V664.853a13.109,13.109,0,0,1,26.217,0V785.976A13.123,13.123,0,0,1,620.33,799.083Z" opacity="0.1"/>
          <path id="Trazado_29324" data-name="Trazado 29324" d="M620.33,796.263a10.287,10.287,0,0,1-10.288-10.287V664.853a10.289,10.289,0,0,1,20.577,0V785.976A10.287,10.287,0,0,1,620.33,796.263Z" fill="#fff"/>
        </g>
      </g>
      <g id="Grupo_15926" data-name="Grupo 15926">
        <path id="Trazado_29325" data-name="Trazado 29325" d="M620.341,677.959a13.151,13.151,0,0,1-11.361-6.554,13.105,13.105,0,0,1,4.8-17.9l104.907-60.575a13.107,13.107,0,0,1,13.107,22.7L626.884,676.2A13.1,13.1,0,0,1,620.341,677.959Z" opacity="0.1"/>
        <path id="Trazado_29326" data-name="Trazado 29326" d="M620.341,675.139a10.286,10.286,0,0,1-5.154-19.194l104.9-60.576a10.287,10.287,0,0,1,10.288,17.816L625.474,673.761A10.213,10.213,0,0,1,620.341,675.139Z" fill="#fff"/>
      </g>
      <path id="Trazado_29327" data-name="Trazado 29327" d="M742.79,602.536l-12.41-7.167a10.287,10.287,0,1,0-10.288,17.816l22.7,13.108Z" fill="#fff"/>
      <path id="Trazado_29328" data-name="Trazado 29328" d="M716.327,599.134a10.239,10.239,0,0,1,4.057-3.914c-.1.052-.2.094-.292.149l-7.017,4.052a13.077,13.077,0,0,0,5.608,16.207l3.733,2.157,2.819-1.629-5.143-2.971A10.284,10.284,0,0,1,716.327,599.134Z" opacity="0.1"/>
    </g>
    <g id="Grupo_15937" data-name="Grupo 15937">
      <g id="Grupo_15928" data-name="Grupo 15928">
        <path id="Trazado_29329" data-name="Trazado 29329" d="M575.55,159.849q3.5,86.533,7,173.067a255.653,255.653,0,0,1,142.329-5.7q-3.5-86.591-7-173.183A255.636,255.636,0,0,0,575.55,159.849Z" fill="#b3b3b3"/>
        <path id="Trazado_29330" data-name="Trazado 29330" d="M860.2,148.311a255.643,255.643,0,0,0-142.328,5.819l7,173.068a255.639,255.639,0,0,1,142.33-5.7Q863.707,234.9,860.2,148.311Z" fill="#b3b3b3"/>
      </g>
      <g id="Grupo_15931" data-name="Grupo 15931">
        <g id="Grupo_15929" data-name="Grupo 15929">
          <path id="Trazado_29331" data-name="Trazado 29331" d="M724.671,321.841a250.189,250.189,0,0,0-139.3,5.583q-3.427-84.693-6.853-169.385a250.2,250.2,0,0,1,139.3-5.7Q721.244,237.091,724.671,321.841Z" fill="#fff"/>
        </g>
        <g id="Grupo_15930" data-name="Grupo 15930">
          <path id="Trazado_29332" data-name="Trazado 29332" d="M863.964,316.242a250.207,250.207,0,0,0-139.3,5.583q-3.426-84.693-6.853-169.384a250.192,250.192,0,0,1,139.3-5.7Q860.538,231.494,863.964,316.242Z" fill="#fff"/>
        </g>
      </g>
      <g id="Grupo_15936" data-name="Grupo 15936">
        <g id="Grupo_15932" data-name="Grupo 15932">
          <path id="Trazado_29333" data-name="Trazado 29333" d="M698.419,212.551a250.2,250.2,0,0,0-98.078,4.191q-.852-21.032-1.7-42.065a250.224,250.224,0,0,1,98.076-4.28Q697.566,191.475,698.419,212.551Z" fill="#e6854d"/>
          <path id="Trazado_29334" data-name="Trazado 29334" d="M698.921,224.965a250.184,250.184,0,0,0-98.008,4.179q-.048-1.182-.1-2.362a250.227,250.227,0,0,1,98.009-4.176Q698.873,223.787,698.921,224.965Z" fill="#e6854d"/>
          <path id="Trazado_29335" data-name="Trazado 29335" d="M699.44,237.77a250.19,250.19,0,0,0-98.013,4.431c-.031-.786-.065-1.573-.1-2.359a250.222,250.222,0,0,1,98.012-4.435Q699.391,236.589,699.44,237.77Z" fill="#e6854d"/>
          <path id="Trazado_29336" data-name="Trazado 29336" d="M699.958,250.571A250.186,250.186,0,0,0,601.946,255q-.048-1.18-.1-2.359a250.212,250.212,0,0,1,98.014-4.425Z" fill="#e6854d"/>
          <path id="Trazado_29337" data-name="Trazado 29337" d="M700.476,263.376a250.189,250.189,0,0,0-98.013,4.418l-.1-2.36a250.207,250.207,0,0,1,98.013-4.418Q700.428,262.2,700.476,263.376Z" fill="#e6854d"/>
          <path id="Trazado_29338" data-name="Trazado 29338" d="M700.991,276.178a250.2,250.2,0,0,0-98.011,4.416q-.048-1.18-.095-2.362A250.188,250.188,0,0,1,700.9,273.82Q700.946,275,700.991,276.178Z" fill="#e6854d"/>
          <path id="Trazado_29339" data-name="Trazado 29339" d="M701.513,288.981a250.2,250.2,0,0,0-98.016,4.41q-.048-1.18-.1-2.361a250.2,250.2,0,0,1,98.016-4.408Q701.464,287.8,701.513,288.981Z" fill="#e6854d"/>
          <path id="Trazado_29340" data-name="Trazado 29340" d="M669.012,298.582a250.288,250.288,0,0,0-65.017,7.257q-.047-1.179-.094-2.358a250.24,250.24,0,0,1,65.017-7.258C668.948,297.009,668.981,297.8,669.012,298.582Z" fill="#e6854d"/>
        </g>
        <g id="Grupo_15935" data-name="Grupo 15935">
          <path id="Trazado_29341" data-name="Trazado 29341" d="M756.488,142.834a250.249,250.249,0,0,0-38.678,9.607c2.32,57.343,4.534,112.039,6.853,169.384a250.329,250.329,0,0,1,38.487-9.542Z" fill="#f5f5f5"/>
          <path id="Trazado_29342" data-name="Trazado 29342" d="M781.591,204.859a249.856,249.856,0,0,0-41.77,6.4q-.849-21.033-1.7-42.065a249.909,249.909,0,0,1,41.766-6.476Q780.738,183.788,781.591,204.859Z" fill="#bfbfbf"/>
          <path id="Trazado_29343" data-name="Trazado 29343" d="M838.839,207.278A250.5,250.5,0,0,0,796.667,204q-.852-21.037-1.705-42.076a250.421,250.421,0,0,1,42.172,3.2Q837.986,186.2,838.839,207.278Z" fill="#bfbfbf"/>
          <g id="Grupo_15933" data-name="Grupo 15933">
            <path id="Trazado_29344" data-name="Trazado 29344" d="M781.04,216.686a249.944,249.944,0,0,0-40.683,6.379c-.024-.588-.047-1.176-.073-1.764a249.958,249.958,0,0,1,40.683-6.377Q781,215.806,781.04,216.686Z" fill="#bfbfbf"/>
            <path id="Trazado_29345" data-name="Trazado 29345" d="M781.426,226.248a250.456,250.456,0,0,0-40.681,6.569q-.035-.881-.072-1.761a250.459,250.459,0,0,1,40.682-6.572Q781.389,225.366,781.426,226.248Z" fill="#bfbfbf"/>
            <path id="Trazado_29346" data-name="Trazado 29346" d="M781.814,235.808a250.311,250.311,0,0,0-40.681,6.568q-.038-.879-.073-1.761a250.22,250.22,0,0,1,40.681-6.568Q781.778,234.928,781.814,235.808Z" fill="#bfbfbf"/>
            <path id="Trazado_29347" data-name="Trazado 29347" d="M782.2,245.372a250.21,250.21,0,0,0-40.681,6.563l-.072-1.762a250.213,250.213,0,0,1,40.681-6.565Z" fill="#bfbfbf"/>
            <path id="Trazado_29348" data-name="Trazado 29348" d="M782.587,254.932a250.229,250.229,0,0,0-40.682,6.566q-.035-.883-.071-1.765a250.3,250.3,0,0,1,40.681-6.564Q782.55,254.049,782.587,254.932Z" fill="#bfbfbf"/>
            <path id="Trazado_29349" data-name="Trazado 29349" d="M782.974,264.494a250.256,250.256,0,0,0-40.682,6.562q-.035-.882-.071-1.763A250.236,250.236,0,0,1,782.9,262.73Q782.939,263.612,782.974,264.494Z" fill="#bfbfbf"/>
            <path id="Trazado_29350" data-name="Trazado 29350" d="M769.607,275.242a250.265,250.265,0,0,0-26.942,5.113c-.022-.587-.047-1.174-.07-1.761a250.431,250.431,0,0,1,26.94-5.114Q769.573,274.36,769.607,275.242Z" fill="#bfbfbf"/>
          </g>
          <g id="Grupo_15934" data-name="Grupo 15934">
            <path id="Trazado_29351" data-name="Trazado 29351" d="M839.034,218.987a250.441,250.441,0,0,0-41.08-3.168q-.037-.884-.073-1.765a250.472,250.472,0,0,1,41.083,3.17Q839,218.106,839.034,218.987Z" fill="#bfbfbf"/>
            <path id="Trazado_29352" data-name="Trazado 29352" d="M839.423,228.552a250.143,250.143,0,0,0-41.08-2.98c-.026-.588-.049-1.175-.073-1.762a250.039,250.039,0,0,1,41.081,2.979Z" fill="#bfbfbf"/>
            <path id="Trazado_29353" data-name="Trazado 29353" d="M839.81,238.114a250.35,250.35,0,0,0-41.08-2.981c-.026-.588-.049-1.175-.074-1.762a250.026,250.026,0,0,1,41.081,2.983C839.763,236.94,839.786,237.527,839.81,238.114Z" fill="#bfbfbf"/>
            <path id="Trazado_29354" data-name="Trazado 29354" d="M840.2,247.68a250.135,250.135,0,0,0-41.08-2.985q-.036-.882-.072-1.762a249.919,249.919,0,0,1,41.081,2.984Q840.161,246.8,840.2,247.68Z" fill="#bfbfbf"/>
            <path id="Trazado_29355" data-name="Trazado 29355" d="M840.583,257.244a250.034,250.034,0,0,0-41.08-2.984l-.072-1.765a250.148,250.148,0,0,1,41.081,2.985Q840.548,256.362,840.583,257.244Z" fill="#bfbfbf"/>
            <path id="Trazado_29356" data-name="Trazado 29356" d="M840.972,266.808a250.276,250.276,0,0,0-41.082-2.987c-.024-.588-.047-1.176-.073-1.764a250.142,250.142,0,0,1,41.082,2.987C840.923,265.632,840.946,266.22,840.972,266.808Z" fill="#bfbfbf"/>
            <path id="Trazado_29357" data-name="Trazado 29357" d="M827.6,274.349a250.006,250.006,0,0,0-27.337-1.228q-.036-.881-.072-1.761a250.252,250.252,0,0,1,27.338,1.226C827.555,273.174,827.577,273.762,827.6,274.349Z" fill="#bfbfbf"/>
          </g>
        </g>
      </g>
    </g>
    <g id="Grupo_15944" data-name="Grupo 15944">
      <g id="Grupo_15942" data-name="Grupo 15942">
        <path id="Trazado_29358" data-name="Trazado 29358" d="M224.259,967.286l105.877,35.564,65.035-87.536-.2-.668L289.094,873.408Z" fill="#bfbfbf"/>
        <g id="Grupo_15941" data-name="Grupo 15941">
          <g id="Grupo_15938" data-name="Grupo 15938">
            <path id="Trazado_29359" data-name="Trazado 29359" d="M367.422,885.3l15.969,86.279-126.9,68.1L240.523,953.4Z" fill="#e6854d"/>
          </g>
          <g id="Grupo_15940" data-name="Grupo 15940">
            <path id="Trazado_29360" data-name="Trazado 29360" d="M304.353,824.3l63.069,61-126.9,68.1-63.067-61Z" fill="#fff"/>
            <path id="Trazado_29361" data-name="Trazado 29361" d="M311.075,748.334l-6.639,76.082-126.9,68.1,6.64-76.082Z" fill="#f5f5f5"/>
            <g id="Grupo_15939" data-name="Grupo 15939">
              <path id="Trazado_29362" data-name="Trazado 29362" d="M249.069,872.589l38.383,37.126-38.971,20.913L210.1,893.5Z" fill="#e6854d"/>
            </g>
            <path id="Trazado_29363" data-name="Trazado 29363" d="M285.689,888.543a4.052,4.052,0,0,1-4.491-.754h0a2,2,0,0,1,.4-3.374h0l39.471-21.28a4.032,4.032,0,0,1,4.481.752h0a2,2,0,0,1-.4,3.373h0l-39.464,21.283Z" opacity="0.2"/>
            <path id="Trazado_29364" data-name="Trazado 29364" d="M276.2,878.954a4.041,4.041,0,0,1-4.488-.753h0a2,2,0,0,1,.4-3.374h0l39.47-21.279a4.032,4.032,0,0,1,4.481.752h0a1.994,1.994,0,0,1-.4,3.372h0L276.2,878.954Z" opacity="0.2"/>
            <path id="Trazado_29365" data-name="Trazado 29365" d="M266.711,869.367a4.044,4.044,0,0,1-4.488-.753h0a2,2,0,0,1,.4-3.375h0l39.47-21.28a4.035,4.035,0,0,1,4.481.753h0a1.994,1.994,0,0,1-.4,3.372h0l-39.467,21.283Z" opacity="0.2"/>
          </g>
        </g>
        <path id="Trazado_29366" data-name="Trazado 29366" d="M396.923,921.11l-1.752-5.8-65.035,87.537L224.259,967.286a10.2,10.2,0,0,0,.361,1.849L225.789,973,304.4,998.778l-44.552,81.178a10.235,10.235,0,0,0,4.366,2.153l44.668-81.365c.058-.094.053-.207.1-.31l21.188,7.61a1.845,1.845,0,0,0,.285.055c.1.02.2.044.293.058a2.445,2.445,0,0,0,.848-.064c.051-.007.087.012.121,0a2.386,2.386,0,0,0,.849-.507c.055-.05.116-.112.171-.171a2.946,2.946,0,0,0,.218-.206l12.9-17.36,80.637,42.166a10.371,10.371,0,0,0,1.721-4.6l-79.414-41.535Z" fill="#bfbfbf"/>
        <path id="Trazado_29367" data-name="Trazado 29367" d="M332.96,1007.211a2.946,2.946,0,0,1-.218.206c-.055.059-.116.121-.171.171a2.386,2.386,0,0,1-.849.507c-.034.01-.07-.009-.121,0a2.445,2.445,0,0,1-.848.064c-.1-.014-.193-.038-.293-.058a1.845,1.845,0,0,1-.285-.055l-21.188-7.61c-.05.1-.045.216-.1.31l-44.668,81.365a10.18,10.18,0,0,0,5.233-.146l151.52-45.793a10.185,10.185,0,0,0,5.532-4.153l-80.637-42.166Z" fill="#f5f5f5"/>
        <path id="Trazado_29368" data-name="Trazado 29368" d="M396.923,921.11l-48.115,64.771,79.414,41.535a10.4,10.4,0,0,0-.395-4.055Z" fill="#f5f5f5"/>
        <path id="Trazado_29369" data-name="Trazado 29369" d="M225.789,973l30.857,102.1a10.15,10.15,0,0,0,3.2,4.858L304.4,998.778Z" fill="#f5f5f5"/>
        <path id="Trazado_29370" data-name="Trazado 29370" d="M224.259,967.286l105.877,35.564,65.036-87.536L323.6,984.165Z" opacity="0.2"/>
      </g>
      <g id="Grupo_15943" data-name="Grupo 15943">
        <path id="Trazado_29371" data-name="Trazado 29371" d="M257.161,829.317a40.84,40.84,0,0,1-6.238,9.9,32.756,32.756,0,0,1-8.125,6.838,15.46,15.46,0,0,1-7.387,2.439,8.787,8.787,0,0,1-5.833-1.886,13.152,13.152,0,0,1-3.93-5.858,30.193,30.193,0,0,1-1.678-9.412,42.166,42.166,0,0,1,1.015-10.893,48.744,48.744,0,0,1,3.523-10.284,41.841,41.841,0,0,1,5.474-8.685,26.2,26.2,0,0,1,6.865-6.028,16.557,16.557,0,0,1,6.221-2.273,8.579,8.579,0,0,1,5.462.955,9.868,9.868,0,0,1,3.955,4.627,23.018,23.018,0,0,1,1.749,8.778,36.207,36.207,0,0,1-.469,7.651,31.392,31.392,0,0,1-1.785,6.408,19.922,19.922,0,0,1-2.753,4.856,12.558,12.558,0,0,1-3.417,3.092q-2.1,1.238-3.144.321a3.876,3.876,0,0,1-1.114-2.891l-.188.109a13.056,13.056,0,0,1-.685,2.041,17.834,17.834,0,0,1-1.2,2.342,16.145,16.145,0,0,1-1.657,2.263,8.583,8.583,0,0,1-2.106,1.762,4.969,4.969,0,0,1-2.884.83,3.376,3.376,0,0,1-2.216-1.059,6.715,6.715,0,0,1-1.468-2.752,16.905,16.905,0,0,1-.642-4.249,28.478,28.478,0,0,1,.438-6,31.088,31.088,0,0,1,1.658-5.985,22.818,22.818,0,0,1,2.788-5.157,12.8,12.8,0,0,1,3.83-3.577,3.8,3.8,0,0,1,3.107-.613,3.033,3.033,0,0,1,1.91,1.831l.188-.11.348-3.337,2.9-1.708-1.381,13.754c-.051.355-.09.783-.117,1.287s-.064,1.036-.106,1.592-.07,1.1-.082,1.614-.012.934,0,1.251a8.763,8.763,0,0,0,.117,1.15,1.983,1.983,0,0,0,.369.895,1.009,1.009,0,0,0,.732.4,2.164,2.164,0,0,0,1.2-.4,6.21,6.21,0,0,0,2.09-2.206,15.424,15.424,0,0,0,1.536-3.547,25.954,25.954,0,0,0,.9-4.5,32.678,32.678,0,0,0,.187-5.05,21.443,21.443,0,0,0-1.3-7.2,8.5,8.5,0,0,0-3.023-4.027,6.373,6.373,0,0,0-4.387-.964,14.133,14.133,0,0,0-5.442,2.024,21.329,21.329,0,0,0-5.78,5.073,32.7,32.7,0,0,0-4.337,7.148,38.574,38.574,0,0,0-2.659,8.49,39.4,39.4,0,0,0-.7,9.073,25.9,25.9,0,0,0,1.41,8.073,10.653,10.653,0,0,0,3.269,4.822,7.064,7.064,0,0,0,4.789,1.458,13.212,13.212,0,0,0,6.016-2.049,26.241,26.241,0,0,0,7.125-6.109,41.12,41.12,0,0,0,5.219-8.467Zm-15.945-17.6a7.068,7.068,0,0,0-2.425,2.506,18.363,18.363,0,0,0-1.7,3.752,23.372,23.372,0,0,0-.987,4.337,25.025,25.025,0,0,0-.22,4.236,14.014,14.014,0,0,0,.248,2.078,6.508,6.508,0,0,0,.676,1.967,2.36,2.36,0,0,0,1.219,1.125,2.215,2.215,0,0,0,1.883-.379,7.63,7.63,0,0,0,2.679-2.761,17.365,17.365,0,0,0,1.722-3.97,25.525,25.525,0,0,0,.889-4.315,25.1,25.1,0,0,0,.188-3.867,14.992,14.992,0,0,0-.286-2.441,5.28,5.28,0,0,0-.72-1.87,2,2,0,0,0-1.26-.894A2.736,2.736,0,0,0,241.216,811.722Z" fill="#e6854d"/>
      </g>
    </g>
    <g id="Grupo_15947" data-name="Grupo 15947">
      <g id="Grupo_15945" data-name="Grupo 15945">
        <path id="Trazado_29372" data-name="Trazado 29372" d="M779.062,1273.505a7.1,7.1,0,0,1-7.093,7.074H675.894a7.085,7.085,0,0,1-7.089-7.074l7-26.673a7.086,7.086,0,0,1,7.083-7.086h82.078a7.089,7.089,0,0,1,7.092,7.086Z" fill="#4b4b4b"/>
      </g>
      <g id="Grupo_15946" data-name="Grupo 15946" opacity="0.2">
        <path id="Trazado_29373" data-name="Trazado 29373" d="M773.667,1252.96l-1.607-6.128a7.089,7.089,0,0,0-7.092-7.086H682.889a7.086,7.086,0,0,0-7.082,7.086l-1.608,6.128Z"/>
      </g>
      <path id="Trazado_29374" data-name="Trazado 29374" d="M851.028,1061.751H596.82a7.633,7.633,0,0,0-7.631,7.633V1238.3a7.644,7.644,0,0,0,7.644,7.646H851.04a7.633,7.633,0,0,0,7.632-7.631V1069.4A7.644,7.644,0,0,0,851.028,1061.751Z" fill="#4b4b4b"/>
      <path id="Trazado_29375" data-name="Trazado 29375" d="M842.811,1229.877H605.042v-151.91H842.811Z" fill="#e6854d"/>
    </g>
    <g id="Grupo_15956" data-name="Grupo 15956">
      <g id="Grupo_15952" data-name="Grupo 15952">
        <g id="Grupo_15951" data-name="Grupo 15951">
          <path id="Trazado_29376" data-name="Trazado 29376" d="M1235.426,456.215a13.253,13.253,0,0,1,15.287,10.84l13.731,79.189A13.251,13.251,0,0,1,1253.7,561.6l-190.581,33.045a13.25,13.25,0,0,1-15.284-10.837L1034.1,504.613a13.25,13.25,0,0,1,10.743-15.352Z" fill="#4b4b4b"/>
          <g id="Grupo_15949" data-name="Grupo 15949">
            <g id="Grupo_15948" data-name="Grupo 15948">
              <path id="Trazado_29377" data-name="Trazado 29377" d="M1221.757,463.061a.609.609,0,0,1,.7.463l16.56,95.508a.607.607,0,0,1-.5.673L1073.8,588.313a.574.574,0,0,1-.664-.47l-16.559-95.507a.574.574,0,0,1,.465-.668Z" fill="#e6854d"/>
            </g>
          </g>
          <path id="Trazado_29378" data-name="Trazado 29378" d="M1241.248,502.516a6.862,6.862,0,1,1-5.555,7.911A6.8,6.8,0,0,1,1241.248,502.516Z" fill="#919191"/>
          <path id="Trazado_29379" data-name="Trazado 29379" d="M1241.332,503.007a6.364,6.364,0,1,1-5.152,7.336A6.309,6.309,0,0,1,1241.332,503.007Z" fill="#dbdbdb"/>
          <path id="Trazado_29380" data-name="Trazado 29380" d="M1050.539,533.14a1.385,1.385,0,0,1,1.6,1.135l2.692,15.524a1.389,1.389,0,0,1-1.125,1.609h0a1.387,1.387,0,0,1-1.6-1.135l-2.692-15.523a1.371,1.371,0,0,1,1.108-1.607Z" fill="#dbdbdb"/>
          <g id="Grupo_15950" data-name="Grupo 15950">
            <path id="Trazado_29381" data-name="Trazado 29381" d="M1063.14,591.563a13.158,13.158,0,0,1-15.18-10.762l.373,2.153a13.159,13.159,0,0,0,15.18,10.765l189.506-32.86a13.027,13.027,0,0,0,7.662-4.345q-1.286-.063-2.572-.139a12.935,12.935,0,0,1-5.465,2.33Z" fill="#363a3f"/>
          </g>
        </g>
      </g>
      <g id="Grupo_15955" data-name="Grupo 15955">
        <g id="Grupo_15954" data-name="Grupo 15954">
          <g id="Grupo_15953" data-name="Grupo 15953">
            <path id="Trazado_29382" data-name="Trazado 29382" d="M1169.242,541.168a28.15,28.15,0,0,1-39.42,6.837,28.594,28.594,0,0,1-6.882-39.67,28.041,28.041,0,0,1,18.292-11.631,28.5,28.5,0,0,1,28.01,44.464Zm-40.93-29.02a21.951,21.951,0,0,0,5.284,30.468,21.644,21.644,0,0,0,30.28-5.254,21.9,21.9,0,0,0-21.518-34.154A21.53,21.53,0,0,0,1128.312,512.148Z" fill="#4b4b4b"/>
          </g>
        </g>
        <path id="Trazado_29383" data-name="Trazado 29383" d="M1143.289,537.272c-1.446,1.26-2.9.746-3.225-1.157l-3.436-19.794c-.33-1.9.867-2.883,2.648-2.176l17.685,7c1.788.707,2.07,2.319.625,3.591Z" fill="#4b4b4b"/>
      </g>
    </g>
    <g id="Grupo_15964" data-name="Grupo 15964">
      <g id="Grupo_15960" data-name="Grupo 15960">
        <g id="Grupo_15959" data-name="Grupo 15959">
          <g id="Grupo_15958" data-name="Grupo 15958">
            <path id="Trazado_29384" data-name="Trazado 29384" d="M429.159,445.683l-205.91-48.315a6.14,6.14,0,0,0-7.371,4.573l-6.133,26.139L187.51,522.843l-6.132,26.135a6.139,6.139,0,0,0,4.567,7.376l205.912,48.314a6.138,6.138,0,0,0,7.37-4.575l6.131-26.136L427.593,479.2l6.134-26.139A6.139,6.139,0,0,0,429.159,445.683Z" fill="#4b4b4b"/>
            <path id="Trazado_29385" data-name="Trazado 29385" d="M412.495,525.643a3.7,3.7,0,1,1-2.757-4.45A3.7,3.7,0,0,1,412.495,525.643Z" fill="#999"/>
            <g id="Grupo_15957" data-name="Grupo 15957">
              <path id="Trazado_29386" data-name="Trazado 29386" d="M227.347,407.4l-.253,1.077L194.355,548l190.949,44.8,32.738-139.532.252-1.076Z" fill="#e6854d"/>
            </g>
          </g>
        </g>
      </g>
      <g id="Grupo_15963" data-name="Grupo 15963">
        <g id="Grupo_15962" data-name="Grupo 15962">
          <g id="Grupo_15961" data-name="Grupo 15961">
            <path id="Trazado_29387" data-name="Trazado 29387" d="M355.271,464.505,276.324,446.05a9.685,9.685,0,0,0-11.635,7.237l-16.019,68.5a9.68,9.68,0,0,0,7.229,11.633l78.945,18.46a9.683,9.683,0,0,0,11.638-7.227l16.016-68.51A9.69,9.69,0,0,0,355.271,464.505Zm-8.7,4.8a1.022,1.022,0,0,1,1.29-.576l7.463,1.745c.6.141,1.012.628.906,1.089l-1.851,7.92a1.029,1.029,0,0,1-1.3.581l-7.462-1.744c-.6-.141-1.009-.634-.9-1.094Zm-17.6-4.113a1.025,1.025,0,0,1,1.3-.574l7.457,1.742c.611.143,1.013.63.9,1.091l-1.852,7.919a1.022,1.022,0,0,1-1.295.581l-7.456-1.743c-.6-.142-1.014-.636-.906-1.1Zm-18.559-4.339a1.029,1.029,0,0,1,1.3-.573l7.453,1.742c.608.142,1.016.631.908,1.091l-1.852,7.92a1.026,1.026,0,0,1-1.3.579l-7.451-1.742c-.61-.143-1.022-.636-.914-1.1Zm-18.56-4.338a1.026,1.026,0,0,1,1.3-.574l7.455,1.743c.6.141,1.012.629.9,1.089l-1.852,7.92a1.022,1.022,0,0,1-1.293.58l-7.458-1.742c-.614-.144-1.019-.636-.911-1.1ZM273.3,452.177a1.033,1.033,0,0,1,1.3-.574l7.457,1.744c.6.141,1.01.629.9,1.088l-1.85,7.921a1.025,1.025,0,0,1-1.293.581l-7.458-1.744c-.608-.141-1.02-.635-.914-1.1ZM265.836,527.7a1.025,1.025,0,0,1-1.292.578l-7.459-1.744c-.608-.142-1.02-.636-.912-1.093l1.851-7.926a1.032,1.032,0,0,1,1.3-.571l7.458,1.743c.6.142,1.01.626.9,1.087Zm18.558,4.338a1.027,1.027,0,0,1-1.294.578l-7.456-1.743c-.615-.145-1.02-.637-.912-1.094l1.852-7.925a1.024,1.024,0,0,1,1.3-.571l7.455,1.743c.6.141,1.014.625.906,1.086Zm18.56,4.339a1.026,1.026,0,0,1-1.3.576l-7.451-1.742c-.609-.142-1.019-.636-.914-1.092l1.854-7.927a1.025,1.025,0,0,1,1.3-.57l7.45,1.742c.611.142,1.019.627.912,1.088Zm18.555,4.339a1.022,1.022,0,0,1-1.3.575l-7.457-1.742c-.6-.141-1.014-.634-.906-1.091l1.851-7.927a1.026,1.026,0,0,1,1.3-.572l7.456,1.743c.61.143,1.015.627.906,1.087Zm17.593,4.113a1.026,1.026,0,0,1-1.292.576l-7.463-1.744c-.6-.141-1.009-.634-.9-1.09l1.852-7.926a1.022,1.022,0,0,1,1.291-.575l7.463,1.746c.6.14,1.013.626.9,1.086Zm3.645-13.328-84.184-19.681,10.943-46.807,84.183,19.681Z" fill="#4b4b4b"/>
          </g>
        </g>
        <path id="Trazado_29388" data-name="Trazado 29388" d="M296.261,509.928c-2.149.7-3.49-.53-2.976-2.734l5.365-22.944c.515-2.2,2.263-2.711,3.876-1.128L318.532,498.8c1.616,1.585,1.178,3.458-.973,4.162Z" fill="#4b4b4b"/>
      </g>
    </g>
    <g id="Grupo_15970" data-name="Grupo 15970">
      <g id="Grupo_15966" data-name="Grupo 15966">
        <g id="Grupo_15965" data-name="Grupo 15965">
          <path id="Rectángulo_3069" data-name="Rectángulo 3069" d="M2.187,0H234.461a2.186,2.186,0,0,1,2.186,2.186V155.3a2.185,2.185,0,0,1-2.185,2.185H2.187A2.187,2.187,0,0,1,0,155.295V2.187A2.187,2.187,0,0,1,2.187,0Z" transform="translate(1030.036 882.438)" fill="#f2f2f2"/>
          <path id="Trazado_29389" data-name="Trazado 29389" d="M1266.683,890.8V880.751a6.314,6.314,0,0,0-6.315-6.313H1036.35a6.313,6.313,0,0,0-6.314,6.313V890.8Z" fill="#ccc"/>
          <path id="Trazado_29390" data-name="Trazado 29390" d="M1041.044,882.778a3.086,3.086,0,1,1-3.086-3.085A3.086,3.086,0,0,1,1041.044,882.778Z" fill="#4b4b4b"/>
          <path id="Trazado_29391" data-name="Trazado 29391" d="M1050.588,882.778a3.086,3.086,0,1,1-3.085-3.085A3.086,3.086,0,0,1,1050.588,882.778Z" fill="#4b4b4b"/>
          <path id="Trazado_29392" data-name="Trazado 29392" d="M1060.132,882.778a3.086,3.086,0,1,1-3.086-3.085A3.086,3.086,0,0,1,1060.132,882.778Z" fill="#4b4b4b"/>
        </g>
      </g>
      <g id="Grupo_15967" data-name="Grupo 15967">
        <path id="Trazado_29393" data-name="Trazado 29393" d="M1049.69,1009.481a3.238,3.238,0,0,1-3.221-3.237h0a3.221,3.221,0,0,1,3.221-3.232h0l52.089-.1a3.231,3.231,0,0,1,3.216,3.233h0a3.2,3.2,0,0,1-3.216,3.231h0l-52.089.108Z" opacity="0.2"/>
        <path id="Trazado_29394" data-name="Trazado 29394" d="M1049.69,994.456a3.24,3.24,0,0,1-3.221-3.238h0a3.223,3.223,0,0,1,3.221-3.233h0l52.089-.1a3.228,3.228,0,0,1,3.216,3.23h0a3.205,3.205,0,0,1-3.216,3.233h0l-52.089.109Z" opacity="0.2"/>
        <path id="Trazado_29395" data-name="Trazado 29395" d="M1049.69,979.429a3.239,3.239,0,0,1-3.221-3.238h0a3.221,3.221,0,0,1,3.221-3.232h0l52.089-.1a3.229,3.229,0,0,1,3.216,3.231h0a3.205,3.205,0,0,1-3.216,3.232h0l-52.089.108Z" opacity="0.2"/>
        <rect id="Rectángulo_3070" data-name="Rectángulo 3070" width="58.445" height="44.271" transform="translate(1046.427 913.95)" opacity="0.2"/>
      </g>
      <g id="Grupo_15968" data-name="Grupo 15968">
        <path id="Trazado_29396" data-name="Trazado 29396" d="M1195.042,1009.481a3.24,3.24,0,0,1-3.221-3.237h0a3.222,3.222,0,0,1,3.221-3.232h0l52.09-.1a3.232,3.232,0,0,1,3.216,3.233h0a3.2,3.2,0,0,1-3.216,3.231h0l-52.09.108Z" opacity="0.2"/>
        <path id="Trazado_29397" data-name="Trazado 29397" d="M1195.042,994.456a3.241,3.241,0,0,1-3.221-3.238h0a3.223,3.223,0,0,1,3.221-3.233h0l52.09-.1a3.23,3.23,0,0,1,3.216,3.23h0a3.2,3.2,0,0,1-3.216,3.233h0l-52.09.109Z" opacity="0.2"/>
        <path id="Trazado_29398" data-name="Trazado 29398" d="M1195.042,979.429a3.24,3.24,0,0,1-3.221-3.238h0a3.222,3.222,0,0,1,3.221-3.232h0l52.09-.1a3.23,3.23,0,0,1,3.216,3.231h0a3.2,3.2,0,0,1-3.216,3.232h0l-52.09.108Z" opacity="0.2"/>
        <rect id="Rectángulo_3071" data-name="Rectángulo 3071" width="58.443" height="44.271" transform="translate(1191.78 913.95)" opacity="0.2"/>
      </g>
      <g id="Grupo_15969" data-name="Grupo 15969">
        <path id="Trazado_29399" data-name="Trazado 29399" d="M1122.366,1009.481a3.238,3.238,0,0,1-3.221-3.237h0a3.221,3.221,0,0,1,3.221-3.232h0l52.09-.1a3.231,3.231,0,0,1,3.216,3.233h0a3.2,3.2,0,0,1-3.216,3.231h0l-52.09.108Z" fill="#e6854d"/>
        <path id="Trazado_29400" data-name="Trazado 29400" d="M1122.366,994.456a3.239,3.239,0,0,1-3.221-3.238h0a3.223,3.223,0,0,1,3.221-3.233h0l52.09-.1a3.229,3.229,0,0,1,3.216,3.23h0a3.205,3.205,0,0,1-3.216,3.233h0l-52.09.109Z" fill="#e6854d"/>
        <path id="Trazado_29401" data-name="Trazado 29401" d="M1122.366,979.429a3.238,3.238,0,0,1-3.221-3.238h0a3.221,3.221,0,0,1,3.221-3.232h0l52.09-.1a3.23,3.23,0,0,1,3.216,3.231h0a3.205,3.205,0,0,1-3.216,3.232h0l-52.09.108Z" fill="#e6854d"/>
        <rect id="Rectángulo_3072" data-name="Rectángulo 3072" width="58.443" height="44.271" transform="translate(1119.104 913.95)" fill="#e6854d"/>
      </g>
    </g>
    <g id="Grupo_15971" data-name="Grupo 15971">
      <path id="Trazado_29402" data-name="Trazado 29402" d="M203.117,655.686c-5.55.24-11.309-3.45-11.309-10.8,0-7.38,5.759-11.01,11.309-11.01,5.25.27,10.74,3.9,10.74,11.01A10.462,10.462,0,0,1,203.117,655.686Zm-.33-17.909a7.11,7.11,0,1,0,7.14,7.11A6.866,6.866,0,0,0,202.787,637.777Z" fill="#fff"/>
      <path id="Trazado_29403" data-name="Trazado 29403" d="M217.847,636.727c0-1.08.24-2.13,1.8-2.13,1.08,0,1.32.27,2.13,1.05l9.93,12.419V636.427a2.11,2.11,0,0,1,1.89-2.07,2.284,2.284,0,0,1,2.13,2.07v16.889a2,2,0,0,1-1.59,2.07,3.013,3.013,0,0,1-2.43-1.05l-9.93-12.6v11.579a1.864,1.864,0,0,1-1.89,2.07,1.976,1.976,0,0,1-2.04-2.07Z" fill="#fff"/>
      <path id="Trazado_29404" data-name="Trazado 29404" d="M240.2,636.427a1.87,1.87,0,0,1,1.889-1.83,1.827,1.827,0,0,1,1.771,1.83v15.029h8.159a1.98,1.98,0,1,1,0,3.93h-9.93a1.814,1.814,0,0,1-1.889-1.83Z" fill="#fff"/>
      <path id="Trazado_29405" data-name="Trazado 29405" d="M257.837,636.427c0-2.46,3.959-2.55,3.959,0v17.129c0,2.49-3.959,2.55-3.959,0Z" fill="#fff"/>
      <path id="Trazado_29406" data-name="Trazado 29406" d="M266.566,636.727c0-1.08.241-2.13,1.8-2.13,1.08,0,1.321.27,2.13,1.05l9.93,12.419V636.427a2.11,2.11,0,0,1,1.89-2.07,2.284,2.284,0,0,1,2.13,2.07v16.889a2,2,0,0,1-1.59,2.07,3.014,3.014,0,0,1-2.43-1.05l-9.93-12.6v11.579a1.863,1.863,0,0,1-1.889,2.07,1.976,1.976,0,0,1-2.041-2.07Z" fill="#fff"/>
      <path id="Trazado_29407" data-name="Trazado 29407" d="M290.746,655.386a1.832,1.832,0,0,1-1.86-1.86V636.487a1.814,1.814,0,0,1,1.86-1.86h10.77a1.952,1.952,0,1,1,0,3.9h-8.64v4.5h7.56a1.965,1.965,0,1,1,0,3.929h-7.56v4.5h9.15a1.971,1.971,0,1,1,0,3.93Z" fill="#fff"/>
      <path id="Trazado_29408" data-name="Trazado 29408" d="M323.505,654.036l-7.919-16.589a2.059,2.059,0,0,1,3.689-1.83l2.67,6.03,3.45,7.919,3.39-7.919,2.67-6.03a2.008,2.008,0,0,1,3.66,1.65l-7.65,16.769C326.775,655.926,324.645,656.376,323.505,654.036Z" fill="#fff"/>
      <path id="Trazado_29409" data-name="Trazado 29409" d="M338.626,636.427c0-2.46,3.959-2.55,3.959,0v17.129c0,2.49-3.959,2.55-3.959,0Z" fill="#fff"/>
      <path id="Trazado_29410" data-name="Trazado 29410" d="M349.395,655.386a1.877,1.877,0,0,1-2.07-1.86V636.487a2.037,2.037,0,0,1,2.07-1.86h6.87c13.709,0,13.409,20.759.27,20.759Zm1.89-17.1v13.439h4.98c8.1,0,8.459-13.439,0-13.439Z" fill="#fff"/>
      <path id="Trazado_29411" data-name="Trazado 29411" d="M372.105,655.386a1.832,1.832,0,0,1-1.86-1.86V636.487a1.814,1.814,0,0,1,1.86-1.86h10.769a1.952,1.952,0,1,1,0,3.9h-8.64v4.5h7.56a1.965,1.965,0,1,1,0,3.929h-7.56v4.5h9.15a1.971,1.971,0,1,1,0,3.93Z" fill="#fff"/>
      <path id="Trazado_29412" data-name="Trazado 29412" d="M399.584,655.686c-5.549.24-11.309-3.45-11.309-10.8,0-7.38,5.76-11.01,11.309-11.01,5.25.27,10.74,3.9,10.74,11.01A10.462,10.462,0,0,1,399.584,655.686Zm-.33-17.909a7.11,7.11,0,1,0,7.14,7.11A6.867,6.867,0,0,0,399.254,637.777Z" fill="#fff"/>
    </g>
    <g id="Grupo_15972" data-name="Grupo 15972">
      <path id="Trazado_29413" data-name="Trazado 29413" d="M271.372,1136.592c0-1.08.24-2.131,1.8-2.131,1.08,0,1.32.27,2.13,1.051l9.93,12.419v-11.64a2.11,2.11,0,0,1,1.89-2.07,2.284,2.284,0,0,1,2.13,2.07v16.89a2,2,0,0,1-1.59,2.069,3.015,3.015,0,0,1-2.43-1.049l-9.93-12.6v11.58a1.864,1.864,0,0,1-1.89,2.069,1.975,1.975,0,0,1-2.04-2.069Z" fill="#fff"/>
      <path id="Trazado_29414" data-name="Trazado 29414" d="M295.552,1155.25a1.831,1.831,0,0,1-1.86-1.859v-17.04a1.814,1.814,0,0,1,1.86-1.86h10.769a1.952,1.952,0,1,1,0,3.9h-8.639v4.5h7.56a1.965,1.965,0,1,1,0,3.929h-7.56v4.5h9.15a1.971,1.971,0,1,1,0,3.93Z" fill="#fff"/>
      <path id="Trazado_29415" data-name="Trazado 29415" d="M333.44,1148.08l4.471-12.359a1.933,1.933,0,1,1,3.63,1.32l-5.94,16.109c-.54,1.71-1.05,2.221-2.07,2.221-1.08,0-1.41-.66-2.01-1.74l-5.22-11.85-4.98,11.67c-.54,1.26-1.05,1.98-2.13,1.98-1.05,0-1.59-.72-2.07-2.04l-5.819-16.35a1.96,1.96,0,1,1,3.689-1.32l4.44,12.359,5.31-12.359c.72-1.83,2.61-1.92,3.39-.09Z" fill="#fff"/>
      <path id="Trazado_29416" data-name="Trazado 29416" d="M344.331,1138.991c.69-5.819,9.48-6.87,13.62-3.69a1.757,1.757,0,1,1-1.92,2.94c-2.22-1.41-7.26-2.069-7.89,1.05-.81,4.92,12.239,2.1,12.029,10.08-.209,7.619-11.249,7.8-15.389,4.379a2.222,2.222,0,0,1-.42-2.94,1.769,1.769,0,0,1,2.67-.209c2.46,1.68,8.79,2.94,9.24-1.32C355.881,1144.841,343.4,1147.511,344.331,1138.991Z" fill="#fff"/>
      <path id="Trazado_29417" data-name="Trazado 29417" d="M363.921,1136.291a1.87,1.87,0,0,1,1.89-1.83,1.826,1.826,0,0,1,1.77,1.83v15.029h8.16a1.98,1.98,0,1,1,0,3.93h-9.93a1.814,1.814,0,0,1-1.89-1.83Z" fill="#fff"/>
      <path id="Trazado_29418" data-name="Trazado 29418" d="M383.181,1155.25a1.831,1.831,0,0,1-1.86-1.859v-17.04a1.814,1.814,0,0,1,1.86-1.86h10.77a1.952,1.952,0,1,1,0,3.9h-8.64v4.5h7.56a1.965,1.965,0,1,1,0,3.929h-7.56v4.5h9.15a1.971,1.971,0,1,1,0,3.93Z" fill="#fff"/>
      <path id="Trazado_29419" data-name="Trazado 29419" d="M405.741,1138.241h-5.25a1.92,1.92,0,1,1,0-3.84H414.68a1.922,1.922,0,1,1,0,3.84H409.7v15.15a1.98,1.98,0,0,1-3.96,0Z" fill="#fff"/>
      <path id="Trazado_29420" data-name="Trazado 29420" d="M425.961,1138.241h-5.25a1.92,1.92,0,1,1,0-3.84H434.9a1.922,1.922,0,1,1,0,3.84h-4.98v15.15a1.98,1.98,0,0,1-3.959,0Z" fill="#fff"/>
      <path id="Trazado_29421" data-name="Trazado 29421" d="M441.89,1155.25a1.831,1.831,0,0,1-1.86-1.859v-17.04a1.814,1.814,0,0,1,1.86-1.86h10.77a1.952,1.952,0,1,1,0,3.9h-8.64v4.5h7.56a1.965,1.965,0,1,1,0,3.929h-7.56v4.5h9.15a1.971,1.971,0,1,1,0,3.93Z" fill="#fff"/>
      <path id="Trazado_29422" data-name="Trazado 29422" d="M462.8,1153.3c0,2.609-3.989,2.7-3.989.059v-17.039a1.792,1.792,0,0,1,1.8-1.83h7.98c7.619,0,9.18,10.2,2.82,12.749l3.99,4.861c1.559,2.309-1.56,4.53-3.36,2.25l-4.53-6.48H462.8Zm0-8.88h5.79c3.9,0,4.14-6.3,0-6.3H462.8Z" fill="#fff"/>
    </g>
    <g id="Grupo_15973" data-name="Grupo 15973">
      <path id="Trazado_29423" data-name="Trazado 29423" d="M1084.441,1082.313c0-2.462,3.96-2.551,3.96,0v17.128c0,2.491-3.96,2.549-3.96,0Z" fill="#fff"/>
      <path id="Trazado_29424" data-name="Trazado 29424" d="M1093.171,1082.611c0-1.08.24-2.129,1.8-2.129,1.08,0,1.32.27,2.13,1.049l9.929,12.42v-11.638a2.11,2.11,0,0,1,1.89-2.071,2.284,2.284,0,0,1,2.13,2.071V1099.2a2,2,0,0,1-1.589,2.07,3.014,3.014,0,0,1-2.431-1.05l-9.929-12.6v11.58a1.864,1.864,0,0,1-1.89,2.07,1.976,1.976,0,0,1-2.04-2.07Z" fill="#fff"/>
      <path id="Trazado_29425" data-name="Trazado 29425" d="M1121.161,1084.262h-5.25a1.92,1.92,0,1,1,0-3.84H1130.1a1.922,1.922,0,1,1,0,3.84h-4.979v15.149a1.98,1.98,0,1,1-3.96,0Z" fill="#fff"/>
      <path id="Trazado_29426" data-name="Trazado 29426" d="M1137.09,1101.271a1.831,1.831,0,0,1-1.859-1.86v-17.04a1.813,1.813,0,0,1,1.859-1.859h10.77a1.952,1.952,0,1,1,0,3.9h-8.64v4.5h7.56a1.965,1.965,0,1,1,0,3.93h-7.56v4.5h9.15a1.971,1.971,0,1,1,0,3.929Z" fill="#fff"/>
      <path id="Trazado_29427" data-name="Trazado 29427" d="M1158,1099.321c0,2.611-3.99,2.7-3.99.06v-17.039a1.793,1.793,0,0,1,1.8-1.83h7.98c7.619,0,9.18,10.2,2.819,12.75l3.991,4.859c1.559,2.311-1.56,4.529-3.361,2.25l-4.529-6.48H1158Zm0-8.88h5.79c3.9,0,4.14-6.3,0-6.3H1158Z" fill="#fff"/>
      <path id="Trazado_29428" data-name="Trazado 29428" d="M1174.62,1082.611c0-1.08.24-2.129,1.8-2.129,1.08,0,1.32.27,2.13,1.049l9.93,12.42v-11.638a2.11,2.11,0,0,1,1.89-2.071,2.284,2.284,0,0,1,2.129,2.071V1099.2a2,2,0,0,1-1.59,2.07,3.012,3.012,0,0,1-2.429-1.05l-9.93-12.6v11.58a1.864,1.864,0,0,1-1.89,2.07,1.976,1.976,0,0,1-2.04-2.07Z" fill="#fff"/>
      <path id="Trazado_29429" data-name="Trazado 29429" d="M1198.8,1101.271a1.832,1.832,0,0,1-1.86-1.86v-17.04a1.814,1.814,0,0,1,1.86-1.859h10.769a1.952,1.952,0,1,1,0,3.9h-8.639v4.5h7.559a1.965,1.965,0,1,1,0,3.93h-7.559v4.5h9.149a1.971,1.971,0,1,1,0,3.929Z" fill="#fff"/>
      <path id="Trazado_29430" data-name="Trazado 29430" d="M1221.359,1084.262h-5.25a1.92,1.92,0,1,1,0-3.84h14.19a1.922,1.922,0,1,1,0,3.84h-4.98v15.149a1.98,1.98,0,1,1-3.96,0Z" fill="#fff"/>
    </g>
    <g id="Grupo_15974" data-name="Grupo 15974">
      <path id="Trazado_29431" data-name="Trazado 29431" d="M609.765,362.09a2.064,2.064,0,0,1,2.04-2.07h6.93c3.9,0,7.41,2.61,7.41,7.62a7.1,7.1,0,0,1-7.41,7.379h-5.01v3.96a1.885,1.885,0,0,1-1.92,2.07,2.027,2.027,0,0,1-2.04-2.07Zm3.96,1.71v7.469h5.01a3.737,3.737,0,0,0,0-7.469Z" fill="#fff"/>
      <path id="Trazado_29432" data-name="Trazado 29432" d="M633.615,379.1c0,2.609-3.989,2.7-3.989.059V362.12a1.792,1.792,0,0,1,1.8-1.83h7.98c7.619,0,9.179,10.2,2.82,12.749l3.99,4.86c1.559,2.31-1.56,4.53-3.36,2.25l-4.53-6.48h-4.71Zm0-8.88h5.79c3.9,0,4.14-6.3,0-6.3h-5.79Z" fill="#fff"/>
      <path id="Trazado_29433" data-name="Trazado 29433" d="M650.415,362.09c0-2.46,3.96-2.55,3.96,0v17.129c0,2.49-3.96,2.55-3.96,0Z" fill="#fff"/>
      <path id="Trazado_29434" data-name="Trazado 29434" d="M659.145,362.39c0-1.08.24-2.13,1.8-2.13,1.08,0,1.321.27,2.13,1.05L673,373.729V362.09a2.11,2.11,0,0,1,1.89-2.07,2.284,2.284,0,0,1,2.13,2.07v16.889a2,2,0,0,1-1.59,2.07A3.014,3.014,0,0,1,673,380l-9.93-12.6v11.579a1.863,1.863,0,0,1-1.889,2.07,1.976,1.976,0,0,1-2.04-2.07Z" fill="#fff"/>
      <path id="Trazado_29435" data-name="Trazado 29435" d="M687.134,364.04h-5.25a1.92,1.92,0,1,1,0-3.84h14.19a1.922,1.922,0,1,1,0,3.84h-4.98v15.149a1.98,1.98,0,0,1-3.96,0Z" fill="#fff"/>
      <path id="Trazado_29436" data-name="Trazado 29436" d="M703.064,381.049a1.832,1.832,0,0,1-1.86-1.86V362.15a1.814,1.814,0,0,1,1.86-1.86h10.77a1.952,1.952,0,1,1,0,3.9h-8.64v4.5h7.56a1.965,1.965,0,1,1,0,3.93h-7.56v4.5h9.15a1.971,1.971,0,1,1,0,3.929Z" fill="#fff"/>
      <path id="Trazado_29437" data-name="Trazado 29437" d="M722.054,381.049a1.877,1.877,0,0,1-2.07-1.86V362.15a2.037,2.037,0,0,1,2.07-1.86h6.87c13.709,0,13.409,20.759.27,20.759Zm1.89-17.1v13.44h4.98c8.1,0,8.459-13.44,0-13.44Z" fill="#fff"/>
      <path id="Trazado_29438" data-name="Trazado 29438" d="M755.983,367.88v11.1a2.072,2.072,0,0,1-2.16,2.07,1.864,1.864,0,0,1-1.8-2.07V362.09a2,2,0,0,1,1.8-2.07,2.471,2.471,0,0,1,1.89,1.08l6.6,8.91,6.84-9.24a1.947,1.947,0,0,1,3.42,1.32v16.889a1.865,1.865,0,0,1-1.8,2.07,1.885,1.885,0,0,1-1.92-2.07v-11.1l-4.98,6.3c-1.08,1.319-2.43,1.319-3.42,0Z" fill="#fff"/>
      <path id="Trazado_29439" data-name="Trazado 29439" d="M778.873,381.049a1.832,1.832,0,0,1-1.86-1.86V362.15a1.814,1.814,0,0,1,1.86-1.86h10.77a1.952,1.952,0,1,1,0,3.9H781v4.5h7.56a1.965,1.965,0,1,1,0,3.93H781v4.5h9.15a1.971,1.971,0,1,1,0,3.929Z" fill="#fff"/>
      <path id="Trazado_29440" data-name="Trazado 29440" d="M797.863,381.049a1.876,1.876,0,0,1-2.069-1.86V362.15a2.036,2.036,0,0,1,2.069-1.86h6.87c13.709,0,13.41,20.759.27,20.759Zm1.89-17.1v13.44h4.98c8.1,0,8.459-13.44,0-13.44Z" fill="#fff"/>
      <path id="Trazado_29441" data-name="Trazado 29441" d="M818.953,362.09c0-2.46,3.959-2.55,3.959,0v17.129c0,2.49-3.959,2.55-3.959,0Z" fill="#fff"/>
      <path id="Trazado_29442" data-name="Trazado 29442" d="M827.232,381.049a2.116,2.116,0,0,1-.959-2.88l8.609-16.829a2.031,2.031,0,0,1,3.72,0l8.46,16.829c1.23,2.34-2.4,4.2-3.48,1.86l-1.32-2.639h-11.07l-1.29,2.639A2.252,2.252,0,0,1,827.232,381.049Zm12.9-7.619-3.39-7.41-3.69,7.41Z" fill="#fff"/>
    </g>
    <g id="Grupo_15975" data-name="Grupo 15975">
      <path id="Trazado_29443" data-name="Trazado 29443" d="M1042.776,638.371c.69-5.82,9.48-6.87,13.619-3.69a1.757,1.757,0,1,1-1.919,2.94c-2.22-1.411-7.26-2.07-7.89,1.049-.81,4.92,12.239,2.1,12.029,10.08-.21,7.62-11.249,7.8-15.389,4.38a2.221,2.221,0,0,1-.42-2.94,1.769,1.769,0,0,1,2.67-.21c2.46,1.68,8.79,2.94,9.239-1.32C1054.326,644.22,1041.846,646.89,1042.776,638.371Z" fill="#fff"/>
      <path id="Trazado_29444" data-name="Trazado 29444" d="M1066.356,641.46v11.1a2.072,2.072,0,0,1-2.16,2.07,1.864,1.864,0,0,1-1.8-2.07V635.671a2,2,0,0,1,1.8-2.07,2.471,2.471,0,0,1,1.89,1.08l6.6,8.909,6.839-9.239a1.947,1.947,0,0,1,3.42,1.32V652.56a1.864,1.864,0,0,1-1.8,2.07,1.885,1.885,0,0,1-1.92-2.07v-11.1l-4.979,6.3c-1.08,1.32-2.431,1.32-3.42,0Z" fill="#fff"/>
      <path id="Trazado_29445" data-name="Trazado 29445" d="M1087,654.63a2.116,2.116,0,0,1-.96-2.88l8.609-16.829a2.031,2.031,0,0,1,3.72,0l8.46,16.829c1.23,2.34-2.4,4.2-3.48,1.86l-1.32-2.64h-11.069l-1.29,2.64A2.252,2.252,0,0,1,1087,654.63Zm12.9-7.62-3.39-7.409-3.69,7.409Z" fill="#fff"/>
      <path id="Trazado_29446" data-name="Trazado 29446" d="M1113.846,652.68c0,2.61-3.99,2.7-3.99.06V635.7a1.793,1.793,0,0,1,1.8-1.83h7.979c7.62,0,9.18,10.2,2.82,12.749l3.99,4.86c1.56,2.31-1.56,4.53-3.359,2.25l-4.531-6.48h-4.709Zm0-8.88h5.789c3.9,0,4.14-6.3,0-6.3h-5.789Z" fill="#fff"/>
      <path id="Trazado_29447" data-name="Trazado 29447" d="M1136.075,637.621h-5.25a1.92,1.92,0,1,1,0-3.84h14.19a1.922,1.922,0,1,1,0,3.84h-4.98V652.77a1.98,1.98,0,0,1-3.96,0Z" fill="#fff"/>
      <path id="Trazado_29448" data-name="Trazado 29448" d="M1159.265,635.671a2.064,2.064,0,0,1,2.041-2.07h6.929c3.9,0,7.41,2.609,7.41,7.619a7.1,7.1,0,0,1-7.41,7.38h-5.009v3.96a1.885,1.885,0,0,1-1.92,2.07,2.027,2.027,0,0,1-2.041-2.07Zm3.961,1.709v7.47h5.009a3.737,3.737,0,0,0,0-7.47Z" fill="#fff"/>
      <path id="Trazado_29449" data-name="Trazado 29449" d="M1179.155,652.77V635.73a1.878,1.878,0,0,1,2.129-1.859,1.789,1.789,0,0,1,1.83,1.859v6.54h9.78v-6.54a1.951,1.951,0,0,1,2.041-1.859,1.814,1.814,0,0,1,1.859,1.859v17.04a1.832,1.832,0,0,1-1.859,1.86,1.972,1.972,0,0,1-2.041-1.86V646.2h-9.78v6.57a1.806,1.806,0,0,1-1.83,1.86A1.894,1.894,0,0,1,1179.155,652.77Z" fill="#fff"/>
      <path id="Trazado_29450" data-name="Trazado 29450" d="M1211.825,654.93c-5.551.24-11.31-3.45-11.31-10.8,0-7.38,5.759-11.009,11.31-11.009,5.249.27,10.739,3.9,10.739,11.009A10.463,10.463,0,0,1,1211.825,654.93Zm-.33-17.91a7.11,7.11,0,1,0,7.139,7.11A6.867,6.867,0,0,0,1211.495,637.02Z" fill="#fff"/>
      <path id="Trazado_29451" data-name="Trazado 29451" d="M1226.555,635.971c0-1.08.24-2.13,1.8-2.13,1.08,0,1.32.27,2.129,1.05l9.93,12.419V635.671a2.11,2.11,0,0,1,1.89-2.07,2.285,2.285,0,0,1,2.131,2.07V652.56a2,2,0,0,1-1.59,2.07,3.015,3.015,0,0,1-2.431-1.05l-9.93-12.6v11.58a1.863,1.863,0,0,1-1.889,2.07,1.976,1.976,0,0,1-2.04-2.07Z" fill="#fff"/>
      <path id="Trazado_29452" data-name="Trazado 29452" d="M1250.733,654.63a1.832,1.832,0,0,1-1.859-1.86V635.73a1.814,1.814,0,0,1,1.859-1.859h10.77a1.952,1.952,0,1,1,0,3.9h-8.639v4.5h7.56a1.965,1.965,0,1,1,0,3.93h-7.56v4.5h9.15a1.971,1.971,0,1,1,0,3.93Z" fill="#fff"/>
      <path id="Trazado_29453" data-name="Trazado 29453" d="M1267.294,638.371c.689-5.82,9.48-6.87,13.619-3.69a1.757,1.757,0,1,1-1.92,2.94c-2.219-1.411-7.26-2.07-7.888,1.049-.811,4.92,12.238,2.1,12.029,10.08-.211,7.62-11.25,7.8-15.39,4.38a2.222,2.222,0,0,1-.42-2.94,1.769,1.769,0,0,1,2.67-.21c2.46,1.68,8.79,2.94,9.239-1.32C1278.844,644.22,1266.364,646.89,1267.294,638.371Z" fill="#fff"/>
    </g>
  </g>
</svg>
