<svg xmlns="http://www.w3.org/2000/svg" xmlns:xlink="http://www.w3.org/1999/xlink" width="772.8" height="354.446" viewBox="0 0 772.8 354.446">
  <defs>
    <linearGradient id="linear-gradient" x1="-4.055" y1="-2.272" x2="-3.055" y2="-2.272" gradientUnits="objectBoundingBox">
      <stop offset="0.157" stop-color="navy"/>
      <stop offset="0.455" stop-color="#1818a3"/>
      <stop offset="1" stop-color="#cb2069"/>
    </linearGradient>
    <linearGradient id="linear-gradient-2" x1="-32.766" y1="-2.483" x2="-31.766" y2="-2.483" gradientUnits="objectBoundingBox">
      <stop offset="0" stop-color="#1818a3"/>
      <stop offset="1" stop-color="#cb2069"/>
    </linearGradient>
  </defs>
  <g id="Grupo_16087" data-name="Grupo 16087" transform="translate(-520 -2110.553)">
    <g id="Grupo_16079" data-name="Grupo 16079" transform="translate(512.523 2035.852)">
      <path id="Trazado_27666" data-name="Trazado 27666" d="M604.373,215.2V226.81q-1.571-.291-3.137-.532-1.006-.152-2-.284.036-5.813.071-11.626Q601.832,214.721,604.373,215.2Zm29.844-9.411q0,2.693.035,5.388a82.118,82.118,0,0,1-21.267,6.876q-.035-2.765-.035-5.458A83.057,83.057,0,0,0,634.218,205.792Zm0,51.218v5.529a46.074,46.074,0,0,1-15.844,6.734v-5.529A47.808,47.808,0,0,0,634.218,257.009Zm-6.628,47.6a57.24,57.24,0,0,0,6.664-3.544q-.035,2.836-.035,5.671a58.815,58.815,0,0,1-6.628,3.544ZM539.155,182.824V179.35h13.008v3.474Zm-60.167,47.584q.623.168,1.311.408.571.187,1.187.425,3.473,1.382,4.324,1.666.851.213,1.56.319a7.639,7.639,0,0,0-1.542,1.453,10.767,10.767,0,0,0-1.382,2.268,20.7,20.7,0,0,0-1.506,5.388q-.218,1.367-.337,2.906-.053.756-.089,1.56-.021.506-.035,1.028-.037,1.158-.053,2.41-.015,1.36,0,2.836.005.672.018,1.365.016,1.213.053,2.5c0,.043,0,.084,0,.124q.049,1.853.124,3.846.038.862.089,1.755.037.933.089,1.9-.319,2.269-5.1,9.18-5.352,7.762-5.813,8.719-.474,1.055-1.134,8.861l-.354-.071-.142-.035h-.106a.809.809,0,0,0-.284-.071,46.519,46.519,0,0,0-4.891-.709q-2.411-.249-7.231-.922a55.279,55.279,0,0,1-7.053-1.418,1.065,1.065,0,0,0-1.01-.266q3.952-4.385,5.937-6.805a23.9,23.9,0,0,0,1.772-2.357q.353-.614.638-1.241a12.566,12.566,0,0,0,1.134-6.557q-.386-3.279-.744-11.4c0-.046,0-.094,0-.142q-.037-.767-.071-1.577-.1-2.361-.23-4.431l5.441-3.119a63.378,63.378,0,0,0,6.167-5.6.884.884,0,0,1,.248-.319.4.4,0,0,0,.142-.142,3.1,3.1,0,0,1,.461-.5A48.69,48.69,0,0,0,478.988,230.408Zm8.1,10.722q.063-5.41,5.618-6.859.713-.182,1.506-.3a.1.1,0,0,0,.071-.035q.46-.035.922-.106,3.154-.425,5.99-.851,7.053-1.1,10.527-1.7.567-.106,1.1-.248a1.82,1.82,0,0,0,.354-.035q1.879-.354,3.651-.744,2.268-.5,4.431-1.063,1.454-.319,2.871-.744,2.051-.527,4.005-1.17c.25-.087.5-.176.744-.266a.451.451,0,0,0,.071-.018,3.63,3.63,0,0,1,1.719.23,4.8,4.8,0,0,1,2.357,2.605,10.334,10.334,0,0,1,.815,2.091q-2.694.72-6.309,1.56l-1.6.372q-4.27.959-9.676,2.074-3.488.712-7.443,1.489-7.424,1.463-12.973,2.41Q490.639,240.7,487.087,241.13Zm63.021,24.652a9.675,9.675,0,0,0,1.418,3.1.775.775,0,0,0,.071.089,9.408,9.408,0,0,0,4.324,3.527,6.135,6.135,0,0,0,4.714-.035,5.457,5.457,0,0,0,3.119-3.544,8.3,8.3,0,0,0-.159-5.033c-.026-.093-.055-.188-.089-.284a9.761,9.761,0,0,0-3.474-4.608,7.445,7.445,0,0,0-4.253-1.648,6.355,6.355,0,0,0-.744.018l-.922-4.147a9.957,9.957,0,0,1,5.352,1.1l-.177.744a14.432,14.432,0,0,1,1.7.975,14.2,14.2,0,0,1,4.4,4.98,12.8,12.8,0,0,1,1.489,8.01,8.043,8.043,0,0,1-10.811,6.628,13.1,13.1,0,0,1-6.7-4.891,13.747,13.747,0,0,1-2.446-5.6,13.546,13.546,0,0,1-.213-2.41l3.084.6A10.035,10.035,0,0,0,550.107,265.782Zm-27.363,13.947v12.583l-2.906.071V279.8Zm-14.178-5.175v17.9l-2.481.106v-17.9Zm-21.231,5.175a1.61,1.61,0,0,1,1.737.532,2.592,2.592,0,0,1,.78,1.808,2.745,2.745,0,0,1-.709,1.808,2.626,2.626,0,0,1-1.63.851,2.947,2.947,0,0,1-2.02-.6,2.236,2.236,0,0,1-.673-1.808,2.42,2.42,0,0,1,.673-1.808A1.67,1.67,0,0,1,487.335,279.729Z" transform="translate(-43.432 -30.464)" fill="#ffdb59" fill-rule="evenodd"/>
      <path id="Trazado_27667" data-name="Trazado 27667" d="M603.4,113.5v23l-5.919-1.382v-23ZM426.6,213.839V158.085l2.658.673v54.9Q427.961,213.759,426.6,213.839Zm16.73-8.507v6.38q-1.054.239-2.2.461V169.179a1.02,1.02,0,0,1,.319-.744,1.035,1.035,0,0,1,1.56,0,1.02,1.02,0,0,1,.319.744v36.154Zm57.03-38.723q-1.107-.469-2.2-.851v-1.825a1.02,1.02,0,0,1,.319-.744,1.035,1.035,0,0,1,1.56,0,1.02,1.02,0,0,1,.319.744Zm34.7,7.089a14.508,14.508,0,0,0-2.2-.727v-8.4a1.02,1.02,0,0,1,.319-.744,1.035,1.035,0,0,1,1.56,0,1.02,1.02,0,0,1,.319.744Zm31.227,14.727V167.194a1.02,1.02,0,0,1,.319-.744,1.035,1.035,0,0,1,1.56,0,1.02,1.02,0,0,1,.319.744v44.66a1.061,1.061,0,0,1-.319.78,1.113,1.113,0,0,1-1.56,0,1.061,1.061,0,0,1-.319-.78V188.425Zm-33.424,20.009q.444-.489.886-1.01.585-.677,1.311-1.613v3.42a1.061,1.061,0,0,1-.319.78,1.113,1.113,0,0,1-1.56,0,1.061,1.061,0,0,1-.319-.78Zm-5.476,4.59.337-.071q.642-.429,1.276-.922,18.672.7,38.493,2.694a1.1,1.1,0,0,1,.744.39,1.189,1.189,0,0,1,.248.815,1.1,1.1,0,0,1-.39.744,1.189,1.189,0,0,1-.815.248q-22.111-2.23-42.782-2.853,1.368-.405,2.871-.833C527.377,213.164,527.383,213.094,527.387,213.024Zm-54.089,58.4q.239-2.753.532-4.962,1.65-.165,3.314-.266.141,2.411.106,4.82Q475.223,271.163,473.3,271.419Zm124.358,26.158V179.21l2.8.957V305.393l-1.932-.656-.833-.284-.035-.018ZM486.289,116.65l-6.415-.815v-.248a11.733,11.733,0,0,1,13.717-11.945A15.514,15.514,0,0,1,503.3,109.1a15.3,15.3,0,0,1,4.041,10.35A11.736,11.736,0,0,1,493.59,131.4a14.968,14.968,0,0,1-7.922-3.615,17.6,17.6,0,0,0,1.9,1.382l2.818-5.458a8.144,8.144,0,0,0,3.172,1.134,6.14,6.14,0,0,0,7.266-6.309,8.761,8.761,0,0,0-7.266-8.365,6.232,6.232,0,0,0-7.266,6.345Zm-5.21,4.891a20.1,20.1,0,0,0,.922,1.808c.091.158.186.318.284.479A15.142,15.142,0,0,1,481.078,121.541ZM500.36,169V189.79a19.355,19.355,0,0,1-2.2-1.985V168.08q1,.371,2.02.833c.06.021.118.045.177.071Zm-71.1,70.765q-1.337.9-2.658,1.613v-1.6q1.345-.169,2.658-.372ZM426.6,255.4q1.441-1.014,2.658-1.985v30.571h-.035l-2.623-.673Zm108.461-76.135v11.254q-1.111-.677-2.2-1.4V175.258a14.645,14.645,0,0,1,2.2.833v3.172Zm0,13.788v.762q-1,.857-2.2,1.808V191.7Q533.95,192.393,535.061,193.051Zm-34.7,2.02v13.522a1.061,1.061,0,0,1-.319.78,1.113,1.113,0,0,1-1.56,0,1.061,1.061,0,0,1-.319-.78V190.836a15.831,15.831,0,0,0,1.7,1.276h-.035q.264.179.532.337Z" transform="translate(-36.715 -8.384)" fill="#ff65a7" fill-rule="evenodd"/>
      <path id="Trazado_27668" data-name="Trazado 27668" d="M585.546,274.151v11.59q-1.735-.313-3.491-.585-1-.161-2-.3.036-5.883.071-11.626Q582.858,273.631,585.546,274.151ZM605.7,192.4q.017,1.988.018,3.97-4.348,1.416-10.385,2.747l-.39-.106q.141-5.742.035-11.59a86.9,86.9,0,0,1,10.7,3.828Q605.686,191.825,605.7,192.4Zm9.694,4.59v5.352a84.647,84.647,0,0,1-15.879,5.6q.036-2.765-.035-5.352A90.4,90.4,0,0,0,615.39,196.988Zm-15.064,28.143V219.6a71.345,71.345,0,0,0,15.064-5.565v5.388A66.933,66.933,0,0,1,600.326,225.131Zm-22.95-24.457q-.023,4.846-.053,9.818a92.89,92.89,0,0,0-9.854-.514q-.983,0-1.985.018V198.334a87.537,87.537,0,0,1,11.909.567C577.389,199.491,577.385,200.081,577.376,200.674Zm20.079,34.133q0-2.8.035-5.636a70.449,70.449,0,0,0,17.935-6.628q-.035,2.693-.035,5.494A67.461,67.461,0,0,1,597.455,234.807Zm.39,8.719v-5.636a64.33,64.33,0,0,0,17.545-6.77v5.494A61.3,61.3,0,0,1,597.845,243.526Zm-30.376,10.9q-.986.012-1.985.053v-11.7a85.881,85.881,0,0,1,11.661.354q-.005.9-.018,1.808-.023,4.909-.053,9.818A82.281,82.281,0,0,0,567.469,254.426Zm28.746,6.929v-5.529a60.205,60.205,0,0,0,19.176-7.621v5.458A58.457,58.457,0,0,1,596.215,261.355Zm19.176-16.2a52.186,52.186,0,0,1-11.7,5.388q.035-2.871-.035-5.6a53.807,53.807,0,0,0,11.732-5.281Zm0,20.31v5.565a49.28,49.28,0,0,1-18.36,7.266V272.91A49.877,49.877,0,0,0,615.39,265.467Zm.035,17.687q.035,2.835-.035,5.6a39.892,39.892,0,0,1-16.73,6.345V289.64A41.054,41.054,0,0,0,615.426,283.154Zm-9.96-3.934a52.441,52.441,0,0,0,9.924-4.927v5.565a50.842,50.842,0,0,1-9.924,4.891Zm-2.056,17.935a32.525,32.525,0,0,0,11.98-5.139v5.6a32.954,32.954,0,0,1-11.98,5.1Zm-5.565,24q0-2.8.035-5.494a35.675,35.675,0,0,0,17.545-6.1q-.035,2.765-.035,5.529A35.4,35.4,0,0,1,597.845,321.15ZM467.8,179.194v3.474L454.826,183.8v-3.474Zm30.8-.744v3.474H485.592V178.45Zm45.3,5.317v-3.474l12.9,1.56v3.474ZM390.777,317.818V334.69l-5.777-.6V317.251Zm9.18,8.648v9.145l-5.671-.567V325.9Zm150.339-65.4a18.47,18.47,0,0,1,.975,3.013l-.638.071a13.889,13.889,0,0,1-.851,9.038,9.371,9.371,0,0,1-6.1,5.281,11.65,11.65,0,0,1-8.471-.78,17.887,17.887,0,0,1-9.942-13.345,16.2,16.2,0,0,1-.16-2.392l2.765.532a13.546,13.546,0,0,0,.213,2.41,13.748,13.748,0,0,0,2.446,5.6,13.1,13.1,0,0,0,6.7,4.891,8.043,8.043,0,0,0,10.811-6.628,12.8,12.8,0,0,0-1.489-8.01,14.2,14.2,0,0,0-4.4-4.98,14.431,14.431,0,0,0-1.7-.975l.177-.744.638-2.765a18.012,18.012,0,0,1,8.188,8.01Q549.927,260.189,550.3,261.072Zm-55.914,10.492v20.558l-2.481.035V271.6Zm11.307,13.611,2.552-.071v6.841l-2.552.106Zm-25.024,2.056v5.317l-2.481.071V287.3Z" transform="translate(-24.605 -30.202)" fill="#ed428b" fill-rule="evenodd"/>
      <path id="Trazado_27669" data-name="Trazado 27669" d="M447.376,218.391v-1.046a.866.866,0,0,1,.071-.106q1.773-2.836,7.833-.319l-.035-.071a15.019,15.019,0,0,1,7.16,5.707q.357.566.673,1.17.291.367.585.727.466.563.939,1.1.3.338.6.656l-.142.284a9.335,9.335,0,0,1-1.223,1.471q-.873-.933-1.737-1.949-.4-.482-.8-.975l-.106-.213q-.17-.332-.354-.656a11.809,11.809,0,0,0-3.137-3.474,14.2,14.2,0,0,0-3.279-1.79q-4.041-1.666-5.246-.39l-.018.035a1.006,1.006,0,0,1-.656.39,1.23,1.23,0,0,1-.177,0,1.062,1.062,0,0,1-.638-.213A.9.9,0,0,1,447.376,218.391Zm76.277-11.271q.687-.927,1.294-1.719a39.33,39.33,0,0,1,3.988-4.785A7.9,7.9,0,0,1,534,198.559a6.3,6.3,0,0,1,2.906.071,14.5,14.5,0,0,1,2.2.727q.682.287,1.418.656,3.509,1.693,5.937,6.451-.674.925-1.453,1.985a18.313,18.313,0,0,0-1.6-2.871,10.66,10.66,0,0,0-3.846-3.615q-.234-.115-.461-.213a14.645,14.645,0,0,0-2.2-.833,5.511,5.511,0,0,0-2.446-.195h-.177a6.054,6.054,0,0,0-3.633,1.311q-.117.1-.23.213l-.035.035a37.049,37.049,0,0,0-3.757,4.484q-.6.792-1.294,1.719c-.04.06-.081.119-.124.177q-5.459,7.408-8.471,9.535v.071a8.629,8.629,0,0,1-1.063.656,10.114,10.114,0,0,1-4.75,1.081,12.134,12.134,0,0,1-6.256-1.737q-.134-.075-.266-.16-.268-.157-.532-.337h.035a15.831,15.831,0,0,1-1.7-1.276,24.247,24.247,0,0,1-2.729-2.8v-.035a21.111,21.111,0,0,0-2.658-2.712q-.043-.485-.106-.975-.106-.5-.177-1.063-.073-.491-.177-.975a19,19,0,0,1,4.785,4.342q.537.629,1.063,1.187a19.355,19.355,0,0,0,2.2,1.985q.356.28.709.514a10.207,10.207,0,0,0,5.813,1.843,7.519,7.519,0,0,0,4.5-1.347h.035q2.507-1.842,6.947-7.691.519-.682,1.063-1.418C523.534,207.272,523.594,207.194,523.653,207.119Zm28.639-.992a5.918,5.918,0,0,0-.744-.443h-.071l-.035-.071-.532-.213-.142-.071a.206.206,0,0,0-.142-.035,1.6,1.6,0,0,1,.213-.851c.031-.058.067-.118.106-.177a6.477,6.477,0,0,0,1.808.6,4.8,4.8,0,0,0,5.777-4.891,6.729,6.729,0,0,0-1.7-4.431,6.585,6.585,0,0,0-4.076-2.446,4.694,4.694,0,0,0-4.076,1.028,4.827,4.827,0,0,0-1.7,3.863,6.729,6.729,0,0,0,1.7,4.431q.209.249.425.479-.344.463-.744,1.01-.328-.336-.638-.709a8.271,8.271,0,0,1-2.056-5.458,5.993,5.993,0,0,1,2.056-4.785,6.079,6.079,0,0,1,5.069-1.205,8.106,8.106,0,0,1,5,2.977,8.246,8.246,0,0,1,2.127,5.494,5.8,5.8,0,0,1-2.127,4.75,5.861,5.861,0,0,1-5,1.241C552.623,206.188,552.458,206.159,552.292,206.127Zm6.717,6.167q-2.749,2.72-5.122,2.57-.407-.012-.8-.053.433-.32.868-.62a3.765,3.765,0,0,0,1.506-1.932q4.536-2.222,11.147-16.712a.954.954,0,0,1,.6-.6,1.13,1.13,0,0,1,1.382,1.489l-.372.815Q563.185,208.124,559.009,212.294ZM519.4,242.865c.06-.026.119-.05.177-.071q.5-.213.851-.354.957-.354,1.985-.709l.833-.3,6.291.337V244.5l-10.137-.532ZM601.7,263.1v11.573q-1.691-.318-3.385-.585-1-.148-2-.284.035-5.778.071-11.59Q599.056,262.6,601.7,263.1Zm0-58.236v10.669q-1.54-.295-3.066-.532-1.008-.151-2-.284.035-5.883.071-11.59,3.722.494,7.479,1.294-.843.152-1.737.3C602.21,204.774,601.963,204.821,601.7,204.868ZM550.4,201.235c-.04-.054-.082-.108-.124-.16a4.094,4.094,0,0,1-1.028-2.729,3.019,3.019,0,0,1,1.028-2.41,3.09,3.09,0,0,1,2.552-.6,4.225,4.225,0,0,1,2.517,1.524,4.145,4.145,0,0,1,1.063,2.765A2.87,2.87,0,0,1,555.341,202a2.787,2.787,0,0,1-2.517.638,3.384,3.384,0,0,1-.656-.177q.074-.1.159-.213a6.435,6.435,0,0,0,1.6-3.225,2.183,2.183,0,0,0-2.339.815Q551.128,200.341,550.4,201.235Zm-101.46-5.441,8.01-.957v3.474l-8.01.957Zm6.274,78.687v3.934l-14.71.532v-3.934ZM452.941,284.6l-12.3.443V281.11l14.71-.532V281q-.284.627-.638,1.241A23.9,23.9,0,0,1,452.941,284.6Zm104.42-36.455v-2.729l10.137.532v2.729Zm.106-12.087v-2.729l10.137.532v2.729Zm14.656,26.778a25.866,25.866,0,0,1,2.144,10.4q0,8.861-5.884,13.859-5.955,5.1-14.249,3.225-8.4-1.844-14.32-9.535a30.167,30.167,0,0,1-2.428-3.651A24.965,24.965,0,0,1,534,264.38l3.58.673q0,1.1.071,2.2c.007.069.013.14.018.213a17.613,17.613,0,0,0,.372,1.879,21.678,21.678,0,0,0,2.02,5.671,20.256,20.256,0,0,0,2.375,3.615q4.253,5.529,8.188,6.912a21.065,21.065,0,0,0,7.231,1.276,12.943,12.943,0,0,0,6.061-1.6,12.645,12.645,0,0,0,5.352-5.919,16.769,16.769,0,0,0,1.506-8.808,22.662,22.662,0,0,0-.408-2.676l-.177.035A20.56,20.56,0,0,0,569,264.185a22.213,22.213,0,0,0-1.56-3.048,25.247,25.247,0,0,0-1.613-2.357l2.552-2.2A29.489,29.489,0,0,1,572.124,262.838Zm-52.618-14.692v-2.729l10.137.532v2.729Zm-4.218,30.66v17.155l-2.41.035V278.842Zm-13.611,17.4-2.481.142v-13.5l2.481-.071Zm-17.262-4.572q2.2-.142,4.643-.142.035,2.3.035,4.75-2.411,0-4.643.142Q484.451,293.941,484.416,291.637Z" transform="translate(-40.762 -34.042)" fill="#4eeef1" fill-rule="evenodd"/>
      <path id="Trazado_27670" data-name="Trazado 27670" d="M574.747,129.994q.827,5.7,1.187,11.52.205,3.368.39,6.734-6.124-1.6-14.391-3.048-31.652-5.636-76.312-5.636-7.569,0-14.763.16,3.229-6.823,5.831-13.947a136.414,136.414,0,0,1,21.9-38.706q12.8-15.809,33.212-11.413,5.033.992,10.208,2.127,17.332,3.828,23.819,19.707a137.489,137.489,0,0,1,5.139,14.816l-.638-.142V129Zm-8.064-24.882-5.919-1.382v23l5.919,1.382ZM380.953,372.648q4.891,2.2,8.719-3.013a51.729,51.729,0,0,0,2.729-4.679,33.937,33.937,0,0,1,2.517-4.466,18.914,18.914,0,0,0,3.509-2.2q2.552-1.879,3.048-2.268a1.278,1.278,0,0,1,.425-.177q1.417-.638,5.848-2.127,5.813-2.02,13.575-4.679a53.8,53.8,0,0,1,13.965-2.977q6.274-.425,7.55-4.466a20.248,20.248,0,0,0,.532-9.464q-.6-4.644-1.1-12.122-.674-9.748-.886-12.264a5.437,5.437,0,0,0-.142-.957q1.63-.816,3.155-1.737l-6.983-18.183q-.425-1.525-.922-2.8l-.035-.071a20.944,20.944,0,0,1-.673-3.58q-.071-1.454-.035-3.013a1.241,1.241,0,0,0,.071-.567l-.035-.035q.46-4.891.5-7.3.02-.063.106-1.152,22.255-2.074,49.233-2.074,43.962,0,75.32,5.529v17.386a200.256,200.256,0,0,1-11.165,24.085,148.388,148.388,0,0,1-26.442,34.984A137.755,137.755,0,0,1,485.8,374.456a161.79,161.79,0,0,1-43.384,13.753,243.422,243.422,0,0,1-43.455,3.261,135.014,135.014,0,0,1-25.095-2.694q.406-.954.815-2.02l.39-.957-.035-.071,1.737-4.679a13,13,0,0,0,2.2-3.97A28.49,28.49,0,0,1,380.953,372.648ZM399.845,344.4a30.119,30.119,0,0,0,2.8-2.658,22.732,22.732,0,0,0,2.871-4.005,19.325,19.325,0,0,0,1.453-3.084q2.057-6.486,3.3-9.712a43.49,43.49,0,0,0,3.367-8.365q.5-1.666.851-3.119,2.02-.035,3.934-.177.319.851.638,1.737,2.8,7.515,6.7,19.636-5.317-.851-11.271,2.339l-7.443,3.9a21.555,21.555,0,0,1-2.127,1.241l-1.879,1.418-2.658,1.949Zm-17.013-93.042a5.143,5.143,0,0,1,.638-.39l3.4-2.02a1.749,1.749,0,0,1,.425-.213q1.373-.876,2.587-1.719v27.913l2.623.673h.035a1.411,1.411,0,0,1,.159-.035q-.121,1.514-.089,3.19.035.709.142,1.63-.035.532-.284,9.357-.035.922-.035,1.808a72.578,72.578,0,0,1-3.084,16.73q1.808.708,3.438,1.276a.944.944,0,0,1,.071.354,2.166,2.166,0,0,0-.035.319l-.213,3.048a5.821,5.821,0,0,1-.035.638q-.6,9.641-1.772,17.474-.178,2.8-3.438,5-.922.6-2.8,1.737a9.242,9.242,0,0,0-2.3,2.091q-5.423,5.246-8.223,16.234-.709,2.977-2.091,9a53.135,53.135,0,0,1-1.7,5.6q-.638,1.665-1.276,3.013l.39.354q-1.028.143-3.119.567a10.628,10.628,0,0,0-2.977,1.028,4.933,4.933,0,0,0-.992.992,8.935,8.935,0,0,0-1.914,5.1q.033.235-.124,3.119-2.482-.783-4.945-1.666a78.96,78.96,0,0,1-35.551-24.847,82.985,82.985,0,0,1-18.148-41.187,91.286,91.286,0,0,1,3.58-43.42Q309.6,261.175,323,251.428a76.136,76.136,0,0,1,22.117-11.165q15.961-5.058,31.244-11.52a4.929,4.929,0,0,0,.443.922q.248.354.5.744,1.736,1.843,5.671,1.666,3.474-.213,6.628-.638l.284-.035V233q-.5.257-.992.5a56.6,56.6,0,0,0-8.684,6.593q-2.587,2.2-7.833,7.585-5,5.034-7.975,7.514a7.61,7.61,0,0,1-.815.709,1.811,1.811,0,0,1-.354.39l-5.884,4.218a.309.309,0,0,0-.142.035l-.354.213-.177.177-.5.284h-.106a1.781,1.781,0,0,1-.532.319q-.851,1.808,1.1,1.63a8.386,8.386,0,0,0,2.977-.922.578.578,0,0,1,.142-.106q-3.58,4.749-5.529,7.692,1.241,1.666,3.261-.39a2,2,0,0,1,.319-.319,22.72,22.72,0,0,0,1.56-1.985.956.956,0,0,1,.248-.177,1.826,1.826,0,0,1,.567-.673,3.894,3.894,0,0,1,.425-.248,27.707,27.707,0,0,1-2.2,4.147q-1.6,2.446-1.1,4.041,1.985-.283,3.58-3.261.532-.921.957-1.772.141-.176.213-.248l1.737-2.41a17.887,17.887,0,0,1-.425,1.949l-.035.177a.252.252,0,0,0-.035.213l-.248.673a8.772,8.772,0,0,0-.319,1.028,39.912,39.912,0,0,0-1.205,3.934q1.1.887,1.949-.5a17.135,17.135,0,0,0,1.134-2.517,9.757,9.757,0,0,1,1.772-3.686q.567-.708,2.623-3.084,3.509-3.969,3.544-7.2Q374.466,256.142,382.831,251.357Zm-26.158,29.1-6.026-.638v23l6.026.638Zm9.5,7.16-5.777-.567v16.836l5.777.6Zm9.18,8.648-5.671-.567v9.145l5.671.567Zm128.487,19.282v-.142a6.232,6.232,0,0,1,7.266-6.345,8.761,8.761,0,0,1,7.266,8.365,6.14,6.14,0,0,1-7.266,6.309,8.129,8.129,0,0,1-3.172-1.134l.018-.035a8.761,8.761,0,0,1-2.942-3.084,8.132,8.132,0,0,1-.975-2.286l-.195-1.453a.6.6,0,0,0,0-.071C503.84,315.631,503.84,315.59,503.839,315.547Zm-6.415-.815,1.205,5.707a15.684,15.684,0,0,0,1.506,2.765l.3.425a15.794,15.794,0,0,0,1.9,2.215l1.825,1.577a14.776,14.776,0,0,0,6.983,2.871,11.736,11.736,0,0,0,13.753-11.945A15.3,15.3,0,0,0,520.853,308a15.516,15.516,0,0,0-9.712-5.458,11.733,11.733,0,0,0-13.717,11.945ZM434.368,427.2a116.4,116.4,0,0,1-42.427,0q-8.754-1.914-8.755-4.679,0-2.73,8.755-4.643a116.4,116.4,0,0,1,42.427,0q8.754,1.914,8.755,4.643Q443.123,425.284,434.368,427.2Z" fill="#e8eaff" fill-rule="evenodd"/>
      <path id="Trazado_27671" data-name="Trazado 27671" d="M426.6,176.337a147.91,147.91,0,0,1,19.317-4.5q26.376-4.681,61.656-5.476,7.195-.16,14.763-.16,44.66,0,76.312,5.636,8.266,1.447,14.391,3.048,16.468,4.31,17.35,9.73l.018.106a3.546,3.546,0,0,1,.036.408v.284q-.147,4.453-10.633,8.188-.95.338-1.985.673-3.364,1.082-7.621,2.109l-1.152.266q-2.587.6-5.494,1.187h-.018q-1.5.292-3.084.585l-2.8-.957c.26-.048.508-.094.744-.142q.894-.149,1.737-.3c.107-.017.213-.034.319-.053q.268-.05.532-.089l3.385-.673h.018q.8-.167,1.577-.337.748-.158,1.471-.319,6.037-1.331,10.385-2.747,1.031-.334,1.967-.673.5-.18.975-.354,5.824-2.15,8.064-5.707a3.329,3.329,0,0,0,.142-.6.8.8,0,0,0,.018-.106.351.351,0,0,1,0-.053v-.142l-.018-.106a2.289,2.289,0,0,0-.2-.673h.053q-1.5-4.317-15.72-7.993-6.156-1.593-14.71-3.066-31.546-5.671-76.064-5.671-7.939,0-15.472.177-34.693.835-60.7,5.494a160.526,160.526,0,0,0-16.907,3.686Zm68.727,80.1-2.091.992a2.478,2.478,0,0,1,.071.567v.035a2.289,2.289,0,0,1-.284,1.134,2.389,2.389,0,0,1-.408.514l-.018.018a2.223,2.223,0,0,1-1.63.673,2.314,2.314,0,0,1-1.276-.354,10.394,10.394,0,0,0,.337-4.129,2.246,2.246,0,0,1,.939-.195,2.166,2.166,0,0,1,1.63.709.911.911,0,0,1,.213.213l2.871-1.4.354-.16a1.8,1.8,0,0,1-.018-.23,2.524,2.524,0,0,1-.018-.3,2.36,2.36,0,0,1,2.339-2.339,2.425,2.425,0,0,1,2.339,2.339,2.215,2.215,0,0,1-.5,1.453l3.3,3.544a2.443,2.443,0,0,1,1.17-.284,2.263,2.263,0,0,1,1.666.673,2.334,2.334,0,0,1,.567,1.028l5.884-.248a2.185,2.185,0,0,1,.6-1.063,2.265,2.265,0,0,1,1.666-.673,2.36,2.36,0,0,1,2.339,2.339,2.291,2.291,0,0,1-.177.886l16.163,16.588-.673.638-16-16.429-.018-.018a2.221,2.221,0,0,1-1.63.673,2.265,2.265,0,0,1-1.666-.673,2.442,2.442,0,0,1-.673-1.347h-.035l-5.671.213a2.536,2.536,0,0,1-.372,1.046,3.184,3.184,0,0,1-.3.372,2.263,2.263,0,0,1-1.666.673,2.3,2.3,0,0,1-2.339-2.339,2.208,2.208,0,0,1,.071-.567,2.034,2.034,0,0,1,.425-.886l-2.871-3.048-.461-.5a2.4,2.4,0,0,1-2.8-.39,2.6,2.6,0,0,1-.248-.284Z" transform="translate(-36.715 -26.636)" fill="#ff9fc8" fill-rule="evenodd"/>
      <path id="Trazado_27672" data-name="Trazado 27672" d="M608.53,196.145q-.723.161-1.471.319.117-5.394.018-10.846-.984-.237-1.967-.461,0-.759-.018-1.524-5.742-1.382-11.271-2.162.106,5.707-.035,11.555,1.007.141,2.02.3-.016.842-.035,1.684,4.766.672,9.694,1.79l-3.385.673q-.264.038-.532.089c-.106.019-.212.036-.319.053q-3.758-.8-7.479-1.294-.036,5.707-.071,11.59.994.133,2,.284-.013.851-.018,1.7,1.534.205,3.084.461v1.613q-2.541-.481-5.069-.833-.035,5.813-.071,11.626,1,.132,2,.284-.013.852-.018,1.7,1.576.207,3.155.479v1.648q-2.591-.493-5.175-.851.036,5.707-.035,11.555,1,.138,2,.3-.007.838-.018,1.684,1.611.223,3.226.5v1.382q-2.626-.51-5.246-.922-.035,5.813-.071,11.661,1,.136,2,.284-.013.853-.018,1.7,1.668.229,3.332.514v1.613q-2.647-.5-5.317-.886-.036,5.813-.071,11.59,1,.137,2,.284-.013.855-.018,1.7,1.7.233,3.4.532v1.666q-2.687-.519-5.423-.922-.035,5.742-.071,11.626,1,.141,2,.3-.013.838-.018,1.684,1.764.249,3.509.549v14.621q-31.358-5.529-75.32-5.529-26.978,0-49.233,2.073.073-.793.177-2.109a4.369,4.369,0,0,0-.124-1.524c.047-.577.094-1.137.142-1.684q1.924-.256,3.952-.408.035-2.411-.106-4.82-1.664.1-3.314.266.754-5.558,1.861-7.6,1.063-1.808,3.332-5.636,2.374-3.438,3.544-5.494a18.084,18.084,0,0,0,3.9-1.808,7.5,7.5,0,0,0,2.375-2.322,2.288,2.288,0,0,0,1.453.478,2.36,2.36,0,0,0,2.339-2.339,2.582,2.582,0,0,0-.018-.3,2.388,2.388,0,0,0,.408-.514l2.729-1.311a2.609,2.609,0,0,0,.248.284,2.4,2.4,0,0,0,2.8.39l3.332,3.544a2.215,2.215,0,0,0-.5,1.453,2.3,2.3,0,0,0,2.339,2.339,2.263,2.263,0,0,0,1.666-.673,2.49,2.49,0,0,0,.673-1.418l5.707-.213a2.443,2.443,0,0,0,.673,1.347,2.265,2.265,0,0,0,1.666.673,2.223,2.223,0,0,0,1.63-.673L533.1,281.957l.673-.638L517.615,264.73a2.291,2.291,0,0,0,.177-.886,2.091,2.091,0,0,0-.018-.266l16,16.429.673-.638-16.163-16.588a2.292,2.292,0,0,0,.177-.886,2.36,2.36,0,0,0-2.339-2.339,2.265,2.265,0,0,0-1.666.673,2.185,2.185,0,0,0-.6,1.063l-5.884.248a2.334,2.334,0,0,0-.567-1.028,2.263,2.263,0,0,0-1.666-.673,2.443,2.443,0,0,0-1.17.284l-3.3-3.544a2.215,2.215,0,0,0,.5-1.453,2.425,2.425,0,0,0-2.339-2.339,2.36,2.36,0,0,0-2.339,2.339,2.531,2.531,0,0,0,.018.3l-.018.018a3.09,3.09,0,0,0-.319.372l-2.871,1.4a.911.911,0,0,0-.213-.213,2.166,2.166,0,0,0-1.63-.709,2.246,2.246,0,0,0-.939.195,21.994,21.994,0,0,0-.408-2.641q-.6-2.942-.815-3.863-.141-1.773-.106-4.537c.011-.066.023-.131.035-.195a18.165,18.165,0,0,0,4.076-1.223q1.347-.744,2.942-1.524a54.393,54.393,0,0,1,6.167-2.339q2.836-.779,5.246-1.489c.118-.023.248-.048.39-.071q1.985-.6,3.615-1.17,2.365-.743,4.182-1.382v1.1l10.137.532v-2.729l-6.291-.337q2.335-.807,5.3-1.7,20.67.623,42.782,2.853a1.189,1.189,0,0,0,.815-.248,1.1,1.1,0,0,0,.39-.744,1.19,1.19,0,0,0-.248-.815,1.1,1.1,0,0,0-.744-.39q-19.821-1.991-38.493-2.694a29.571,29.571,0,0,0,3.863-3.6v.8a1.061,1.061,0,0,0,.319.78,1.113,1.113,0,0,0,1.56,0,1.061,1.061,0,0,0,.319-.78v-3.42q1.517-1.97,3.651-5.086,1.057-1.4,1.949-2.587,1.412.686,2.836,1.311,10.811,4.82,22.685-9.747a1.041,1.041,0,0,0,.106-.142V230.7a1.061,1.061,0,0,0,.319.78,1.113,1.113,0,0,0,1.56,0,1.061,1.061,0,0,0,.319-.78v-44.66a1.02,1.02,0,0,0-.319-.744,1.035,1.035,0,0,0-1.56,0,1.02,1.02,0,0,0-.319.744v18.13a1.354,1.354,0,0,0-.284-.266,1.186,1.186,0,0,0-1.524.284q-9.534,14.178-19.707,10.137-.786-.331-1.56-.673.3-.4.567-.744a41.106,41.106,0,0,1,2.977-3.013,20.123,20.123,0,0,0,2.41.709l.035.035q6.663,1.7,16.411-18.75a1.3,1.3,0,0,0,.071-.851,1.1,1.1,0,0,0-.567-.6.978.978,0,0,0-.851-.035.829.829,0,0,0-.089.035l.372-.815a1.1,1.1,0,0,0-1.382-1.489.954.954,0,0,0-.6.6q-6.611,14.489-11.147,16.712a3.94,3.94,0,0,0-.479-3.066,8.212,8.212,0,0,0-2.694-3.066c.166.032.33.061.5.089a5.861,5.861,0,0,0,5-1.241,5.8,5.8,0,0,0,2.127-4.75,8.246,8.246,0,0,0-2.127-5.494,8.106,8.106,0,0,0-5-2.977,6.079,6.079,0,0,0-5.069,1.205,5.993,5.993,0,0,0-2.056,4.785,8.271,8.271,0,0,0,2.056,5.458q.309.373.638.709l-1.9,2.552q-2.428-4.758-5.937-6.451-.737-.368-1.418-.656V183.42a1.02,1.02,0,0,0-.319-.744,1.035,1.035,0,0,0-1.56,0,1.02,1.02,0,0,0-.319.744v8.4a6.3,6.3,0,0,0-2.906-.071,7.9,7.9,0,0,0-5.069,2.056,39.33,39.33,0,0,0-3.988,4.785,130.133,130.133,0,0,0-16.11-10.917,41.3,41.3,0,0,0-4.431-2.215v-2.676a1.02,1.02,0,0,0-.319-.744,1.035,1.035,0,0,0-1.56,0,1.02,1.02,0,0,0-.319.744v1.825a24.078,24.078,0,0,0-15.277-.514,38.329,38.329,0,0,0-5.388,2.091,18.1,18.1,0,0,0-5.1,1.028,27.125,27.125,0,0,0-2.694,1.134,15.544,15.544,0,0,0-5.955,5.458,13.711,13.711,0,0,0-2.552,10.031,26.449,26.449,0,0,0,1.117,5.175q-.217.547-.443,1.1a21.407,21.407,0,0,1-3.509,5.636,15.019,15.019,0,0,0-7.16-5.707l.035.071q-6.061-2.517-7.833.319a.86.86,0,0,0-.071.106V188.028a1.02,1.02,0,0,0-.319-.744,1.035,1.035,0,0,0-1.56,0,1.02,1.02,0,0,0-.319.744v42.994a111.492,111.492,0,0,1-11.874,1.489v-54.9a160.525,160.525,0,0,1,16.907-3.686q26.007-4.66,60.7-5.494,7.532-.178,15.472-.177,44.519,0,76.064,5.671,8.553,1.473,14.71,3.066,14.223,3.676,15.72,7.993h-.053a2.291,2.291,0,0,1,.195.673l.018.106v.142a.336.336,0,0,0,0,.053.789.789,0,0,1-.018.106,3.329,3.329,0,0,1-.142.6q-2.24,3.557-8.064,5.707-.477.175-.975.354,0-1.226-.018-2.463-.978-.425-1.967-.833-.011-.573-.018-1.152a86.9,86.9,0,0,0-10.7-3.828q.106,5.848-.035,11.59ZM580.689,192.1q-.005.993-.018,1.985a107.4,107.4,0,0,1,11.945.567q.142-5.848.035-11.59-.968-.11-1.949-.195-.019-.9-.035-1.79a106.655,106.655,0,0,0-11.98-.638q.071,5.777,0,11.661Q579.7,192.1,580.689,192.1Zm-.018,14.9v2a95.1,95.1,0,0,1,11.839.5q.036-5.883.071-11.59-.987-.119-2-.213.013-.889.018-1.772a87.536,87.536,0,0,0-11.909-.567v11.661Q579.688,207.009,580.671,207.009Zm0,14.9v2.02a86.668,86.668,0,0,1,11.768.425q.035-5.813.071-11.59-.989-.118-2-.213.012-.886.018-1.772a80.413,80.413,0,0,0-11.839-.5v11.661Q579.685,221.92,580.671,221.913Zm.018,14.9q-.005,1.019-.018,2.038a86.527,86.527,0,0,1,11.7.354q.071-5.92.035-11.59-.979-.112-1.985-.195.005-.9,0-1.79a76.177,76.177,0,0,0-11.732-.39q.071,5.742,0,11.626Q579.7,236.836,580.689,236.818Zm9.57,20.026q.012-.893.018-1.79a65.055,65.055,0,0,0-11.59-.248v11.626q1-.06,1.985-.089v2.074a71.654,71.654,0,0,1,11.52.213q.036-5.777.071-11.59Q591.268,256.927,590.259,256.844Zm-9.588-5.388v2.038a85.093,85.093,0,0,1,11.59.284q.035-5.813.071-11.626-.991-.1-2-.177.012-.9.018-1.808a85.881,85.881,0,0,0-11.661-.354v11.7Q579.684,251.468,580.671,251.456Zm0,29.774v2.109a61.6,61.6,0,0,1,11.449.142q0-5.778.035-11.59-.991-.107-2-.177.012-.906.018-1.808a63.854,63.854,0,0,0-11.484-.177v11.626Q579.682,281.276,580.671,281.23Zm-99.67-105-12.973,1.134v3.474L481,179.7Zm18.254,13.008v17.421q-.526-.558-1.063-1.187a19,19,0,0,0-4.785-4.342c-.061-.3-.133-.605-.213-.9q-.389-1.524-.673-3.19a10.148,10.148,0,0,1-.106-3.474l-.78-1.276a16.517,16.517,0,0,0-1.879-2.268,18.737,18.737,0,0,0-2.623-1.914,6,6,0,0,1-.567-.354q-.184-.093-.372-.177Q492.166,186.154,499.254,189.233Zm16.535,7.372q-5.139-3.507-10.97-6.983v.035q-1.709-1.019-3.367-1.808v-.018q1.648.751,3.332,1.719Q510.577,192.884,515.789,196.606ZM511.8,175.481H498.794v3.474H511.8Zm21.728,4.112h13.008v-3.474H533.529Zm13.912,14.834q-.286.348-.62.762-.3.405-.673.9-.216-.23-.425-.479a6.729,6.729,0,0,1-1.7-4.431,4.827,4.827,0,0,1,1.7-3.863,4.694,4.694,0,0,1,4.076-1.028,6.585,6.585,0,0,1,4.076,2.446,6.729,6.729,0,0,1,1.7,4.431,4.8,4.8,0,0,1-5.778,4.891,6.478,6.478,0,0,1-1.808-.6,17.581,17.581,0,0,1,1.223-1.808,3.383,3.383,0,0,0,.656.177,2.787,2.787,0,0,0,2.517-.638,2.871,2.871,0,0,0,1.063-2.375,4.146,4.146,0,0,0-1.063-2.765,4.225,4.225,0,0,0-2.517-1.524,3.09,3.09,0,0,0-2.552.6,3.019,3.019,0,0,0-1.028,2.41,4.094,4.094,0,0,0,1.028,2.729C547.359,194.318,547.4,194.372,547.442,194.426ZM557.1,180.8l12.9,1.56v-3.474l-12.9-1.56Zm-111.119,8.188v3.474l8.01-.957v-3.474Zm8.773,24.9a18,18,0,0,0-2.463-1.223l.035.035q-3.985-1.631-6.114-.957l.018-.035q1.206-1.276,5.246.39A14.2,14.2,0,0,1,454.754,213.885Zm8.454,4.023a12.035,12.035,0,0,0-.957,1.489q-.3-.317-.6-.656a21.888,21.888,0,0,0,2.942-5.3c.076-.191.152-.381.23-.567q.225.557.479,1.134a3.116,3.116,0,0,1,.408.939q-.133.131-.266.266A27.1,27.1,0,0,0,463.207,217.908Zm-18.786-6.327a.9.9,0,0,0,.319.337,1.062,1.062,0,0,0,.638.213,3.009,3.009,0,0,0-.886.922.859.859,0,0,0-.071.106Zm12.317,6.788a31.143,31.143,0,0,1-12.317,5.813V214.2a.9.9,0,0,0,.319.337,1.15,1.15,0,0,0,.815.213.991.991,0,0,0,.673-.425q1.206-1.276,5.246.39A12.956,12.956,0,0,1,456.739,218.369ZM430.35,258.616v-.354q.358-.058.709-.124-.174.128-.354.248C430.586,258.467,430.468,258.544,430.35,258.616Zm14.072-28.054v-1.825q9.233-2.207,14.585-7.107l.6.727q-2.072,1.847-5.689,4.484Q450.805,229.106,444.422,230.562Zm5.565,47.23q-1.985,2.421-5.937,6.805a1.6,1.6,0,0,0-.656.408,11.517,11.517,0,0,0-1.489,1.453,69.766,69.766,0,0,1-5.423,4.75,15.546,15.546,0,0,0-4.643,5.352,21.317,21.317,0,0,0-1.329,6.238,1.409,1.409,0,0,0-.16.035V272.262q.832-.652,1.56-1.294,2.2-1.985,4.537-3.934,2.127-1.666,4.4-3.332l.035.035a.88.88,0,0,0,.39.213,1.519,1.519,0,0,0,.5-.142v-.035q1.347-1.028,2.765-2.02.568-.425,1.1-.851,2.977-2.092,6.238-4.218l.78-.5.142.053q.358,8.116.744,11.4a12.566,12.566,0,0,1-1.134,6.557v-.425l-14.71.532v3.934Zm2.268-10.119-14.71.532v3.934l14.71-.532Zm-7.833-41.24a46.29,46.29,0,0,0,4.59-1.365,41.065,41.065,0,0,1-4.59,1.453Zm122.958-21v1.843a1.245,1.245,0,0,0-.939-.5Q566.914,206.122,567.379,205.431Zm-33.424,2.534a72.776,72.776,0,0,1-7.691-5.831q-.668-.584-1.347-1.152a23.981,23.981,0,0,1,2.517-2.889l.035-.035a5.9,5.9,0,0,1,3.863-1.524h.177a4.58,4.58,0,0,1,2.446.408Zm2.2,1.4V198.112q.209.124.425.266a13.517,13.517,0,0,1,4.537,4.874,11.109,11.109,0,0,0-1.311,5.9q-.6.7-1.436,1.506Q537.249,210.033,536.152,209.366ZM522.79,223.721c-.1.1-.191.211-.284.319q-1.953.642-4.005,1.17-1.418.425-2.871.744-2.163.567-4.431,1.063-1.773.39-3.651.744a1.821,1.821,0,0,1-.354.035q-.532.141-1.1.248-3.473.6-10.527,1.7-2.835.425-5.99.851-.46.071-.922.106a.1.1,0,0,1-.071.035q-.793.12-1.506.3a8.809,8.809,0,0,0-2.393-.939,8.584,8.584,0,0,0-1.808-2.268,11.868,11.868,0,0,1,.957-3.048q.815-2.233,1.1-2.8a8.519,8.519,0,0,0,7.089-4.75,3.1,3.1,0,0,1,.248-.567,7.707,7.707,0,0,0,.709-1.879,22.436,22.436,0,0,0,1.081-7.886,23.286,23.286,0,0,1,2.463,2.57v.035a24.244,24.244,0,0,0,2.729,2.8v15.135a1.061,1.061,0,0,0,.319.78,1.113,1.113,0,0,0,1.56,0,1.061,1.061,0,0,0,.319-.78V213.92a12.194,12.194,0,0,0,6.522,1.9,9.54,9.54,0,0,0,5.813-1.772v-.035q3.014-2.127,8.471-9.535c.065-.087.13-.176.195-.266q1.331,1.037,2.605,2.074a92.231,92.231,0,0,0,8.9,6.38v1.808q-1.613,1.279-3.58,2.729A62.286,62.286,0,0,0,522.79,223.721Zm17.669-24.953a15.794,15.794,0,0,0-2.711-2.233q-.833-.548-1.6-.957v-.638q.227.1.461.213A10.66,10.66,0,0,1,540.459,198.768Zm-6.5-4.661v.5a5.178,5.178,0,0,0-2.906-.23,8.857,8.857,0,0,0-3.35.851,6.054,6.054,0,0,1,3.633-1.311h.177A5.511,5.511,0,0,1,533.955,194.107Zm15.862,14.125c.108-.076.216-.152.319-.23q.39.041.8.053,2.373.151,5.122-2.57-3.008,3.387-5.3,3Q550.275,208.368,549.816,208.232Zm4.7,21.019,10.137.532v-2.729l-10.137-.532Zm-.106,12.087,10.137.532v-2.729l-10.137-.532Zm-19.778,16.907-3.58-.673a24.964,24.964,0,0,0,3.385,12.76,29.079,29.079,0,0,0,3.739,6.274q5.955,7.691,14.32,9.535,8.294,1.878,14.249-3.225,5.883-5,5.884-13.859a25.993,25.993,0,0,0-3.456-13.026,29.493,29.493,0,0,0-3.739-6.256l-2.552,2.2a25.25,25.25,0,0,1,1.613,2.357l-.3.266a24.85,24.85,0,0,1,1.861,2.782,20.56,20.56,0,0,1,1.187,3.669l-2.268.053q-.425-1.059-.992-2.144-.233-.437-.479-.851-.369-.883-.833-1.772a18.012,18.012,0,0,0-8.188-8.01l-.638,2.765a9.957,9.957,0,0,0-5.352-1.1l.922,4.147a6.349,6.349,0,0,1,.744-.018l.6,2.641a7.256,7.256,0,0,1,5,1.63,9.351,9.351,0,0,1,2.215,2.268,8.3,8.3,0,0,1,.159,5.033,5.457,5.457,0,0,1-3.119,3.544,6.135,6.135,0,0,1-4.714.035,9.408,9.408,0,0,1-4.324-3.527,9.648,9.648,0,0,1-.461-3l-1.028-.195a10.032,10.032,0,0,1-.319-2.428l-3.084-.6-2.765-.532Zm-15.17-56.286q-4.439,5.85-6.947,7.691h-.035a7.519,7.519,0,0,1-4.5,1.347,10.207,10.207,0,0,1-5.813-1.843q-.352-.234-.709-.514v-18.36q1.1.582,2.233,1.258Q512.334,196.691,519.458,201.958Zm-6.734,10.155c-.075.057-.145.11-.213.16h-.035a7.519,7.519,0,0,1-4.5,1.347,10.207,10.207,0,0,1-5.813-1.843c-.147-.1-.3-.2-.443-.319a12.134,12.134,0,0,0,6.256,1.737A10.114,10.114,0,0,0,512.723,212.113Zm-16.3,44.926v.035a3.69,3.69,0,0,0,.035.532l-2.056.992a2.48,2.48,0,0,0-.071-.567Zm20.133-15.7,10.137.532v-2.729l-10.137-.532Zm-15.525,16.34,2.871,3.048a2.034,2.034,0,0,0-.425.886l-2.871-3.084A2.1,2.1,0,0,0,501.027,257.677Zm6.681,5.8a2.536,2.536,0,0,0,.372-1.046l5.671-.213a2.192,2.192,0,0,0-.567,1.028Zm9.411,13.026-2.906.071v12.583l2.906-.071Zm-14.178-5.175-2.481.106v17.9l2.481-.106Zm9.393.673-2.41.035v17.155l2.41-.035Zm6.557,10.208v6.876l2.552-.106v-6.841Zm-11.307-13.611-2.481.035v20.558l2.481-.035ZM498.723,289.4V275.966l-2.481.071v13.5Zm-17.013-12.9a1.67,1.67,0,0,0-1.843.78,2.42,2.42,0,0,0-.673,1.808,2.237,2.237,0,0,0,.673,1.808,2.947,2.947,0,0,0,2.02.6,2.626,2.626,0,0,0,1.63-.851,2.745,2.745,0,0,0,.709-1.808,2.592,2.592,0,0,0-.78-1.808A1.61,1.61,0,0,0,481.709,276.5Zm-.248,8.329q.035,2.3.035,4.75,2.233-.141,4.643-.142,0-2.446-.035-4.75Q483.659,284.686,481.461,284.828Zm12.406-.567-2.481.071v5.317l2.481-.071Z" transform="translate(-37.807 -27.233)" fill-rule="evenodd" fill="url(#linear-gradient)"/>
      <path id="Trazado_27673" data-name="Trazado 27673" d="M668.783,387.258l-.833-.266v-.018Z" transform="translate(-106.974 -90.905)" fill="#dbdfff" fill-rule="evenodd"/>
      <path id="Trazado_27674" data-name="Trazado 27674" d="M553.628,216.9q.984-.9,1.967-1.666.459.137.939.248,2.29.392,5.3-3,4.176-4.169,9.216-15.046a.838.838,0,0,1,.089-.035.978.978,0,0,1,.851.035,1.1,1.1,0,0,1,.567.6,1.3,1.3,0,0,1-.071.851q-9.748,20.451-16.411,18.75l-.035-.035A20.123,20.123,0,0,1,553.628,216.9Zm-6.1,7.089q.645-.841,1.205-1.577,1.039.467,2.091.9,11.12,4.815,21.391-9.535a1.245,1.245,0,0,1,.939.5v1.134a1.046,1.046,0,0,1-.106.142q-11.874,14.568-22.685,9.747Q548.943,224.672,547.531,223.986Zm-42.5-27.753q-7.088-3.078-13.061-1.666a14.9,14.9,0,0,0-2.818-.975q.617-.206,1.276-.408a22.456,22.456,0,0,1,14.6.744Zm0,23.074a24.245,24.245,0,0,1-2.729-2.8v-.035a23.289,23.289,0,0,0-2.463-2.57q-.042-1.333-.195-2.765a21.111,21.111,0,0,1,2.658,2.712v.035a24.248,24.248,0,0,0,2.729,2.8Zm2.2,1.613V218.3q.132.084.266.159c.147.114.3.22.443.319a10.207,10.207,0,0,0,5.813,1.843,7.519,7.519,0,0,0,4.5-1.347h.035c.067-.05.138-.1.213-.16a8.627,8.627,0,0,0,1.063-.656v-.071q3.014-2.127,8.471-9.535c.043-.058.084-.118.124-.177q1.253,1.034,2.464,2.091a73.673,73.673,0,0,0,9.109,6.788v2.109a92.216,92.216,0,0,1-8.9-6.38q-1.273-1.037-2.605-2.073c-.064.09-.13.179-.195.266q-5.459,7.408-8.471,9.535v.035a9.54,9.54,0,0,1-5.813,1.772A12.194,12.194,0,0,1,507.23,220.92Zm18.006-11.963q-7.123-5.267-15.773-10.421-1.129-.677-2.233-1.258v-2.428q1.659.789,3.367,1.808v-.035q5.831,3.475,10.97,6.983,2.52,1.806,4.909,3.7c-.06.075-.119.152-.177.23Q525.755,208.277,525.236,208.958Zm-61.567,15.4q-.554.522-1.152,1.01a12.956,12.956,0,0,0-5.264-3.651q-4.041-1.666-5.246-.39a.991.991,0,0,1-.673.425,1.15,1.15,0,0,1-.815-.213.9.9,0,0,1-.319-.337v-1.046a.865.865,0,0,1,.071-.106,3.009,3.009,0,0,1,.886-.922,1.234,1.234,0,0,0,.177,0,1.006,1.006,0,0,0,.656-.39q2.129-.675,6.114.957l-.035-.035a18,18,0,0,1,2.463,1.223A11.809,11.809,0,0,1,463.669,224.358Zm-8.879,7.709a29.775,29.775,0,0,0,10.137-5.866q.864,1.017,1.737,1.949-.54.552-1.276,1.205l-.6-.727q-5.353,4.9-14.585,7.107v-2.215A41.065,41.065,0,0,0,454.79,232.068Zm11.7-7.426a23.089,23.089,0,0,0,3.757-5.636q.168.427.354.868c-.079.186-.155.376-.23.567a21.889,21.889,0,0,1-2.942,5.3Q466.954,225.2,466.487,224.642Zm75.444-5.742q.265.154.532.3-.26.23-.532.461Zm0-13.788v-2.534q.762.409,1.6.957a15.792,15.792,0,0,1,2.711,2.233,18.313,18.313,0,0,1,1.6,2.871c-.016.021-.034.045-.053.071q-.5.782-.886,1.542a13.516,13.516,0,0,0-4.537-4.874Q542.14,205.236,541.931,205.112Zm-11.236,2.871q-.61-.521-1.241-1.028a37.049,37.049,0,0,1,3.757-4.484l.035-.035q.114-.108.23-.213a8.856,8.856,0,0,1,3.349-.851,5.178,5.178,0,0,1,2.906.23v2.339a4.581,4.581,0,0,0-2.446-.408h-.177a5.9,5.9,0,0,0-3.864,1.524l-.035.035A23.989,23.989,0,0,0,530.695,207.983Z" transform="translate(-43.585 -34.232)" fill="#7c0e3d" fill-rule="evenodd"/>
      <path id="Trazado_27675" data-name="Trazado 27675" d="M588.712,301a.775.775,0,0,1-.071-.089,9.675,9.675,0,0,1-1.418-3.1l1.028.195A9.647,9.647,0,0,0,588.712,301Zm4.182-11.626a7.445,7.445,0,0,1,4.253,1.648,9.761,9.761,0,0,1,3.474,4.608c.033.1.063.191.089.284a9.351,9.351,0,0,0-2.215-2.268,7.256,7.256,0,0,0-5-1.63Zm14.32,7a18.471,18.471,0,0,0-.975-3.013q.246.414.479.851.567,1.086.992,2.144Zm.018-6.788a22.2,22.2,0,0,1,1.56,3.048,24.839,24.839,0,0,0-1.861-2.782Zm-30.057,16a30.181,30.181,0,0,0,2.428,3.651q5.92,7.692,14.32,9.535,8.294,1.878,14.249-3.225,5.884-5,5.884-13.859a25.867,25.867,0,0,0-2.144-10.4,25.993,25.993,0,0,1,3.456,13.026q0,8.861-5.884,13.859-5.955,5.1-14.249,3.225-8.365-1.844-14.32-9.535A29.08,29.08,0,0,1,577.175,305.591Z" transform="translate(-80.548 -62.493)" fill="#37035e" fill-rule="evenodd"/>
      <path id="Trazado_27676" data-name="Trazado 27676" d="M591.023,190.164q.069,5.044-.053,10.031-4.7-1.131-9.251-1.861-1.013-.159-2.02-.3.141-5.848.035-11.555,5.529.779,11.271,2.162Q591.019,189.4,591.023,190.164Zm-14.408-2.286q.049,4.859-.071,9.8-4.757-.505-9.942-.567-.993-.005-2,0,.071-5.883,0-11.661a106.652,106.652,0,0,1,11.98.638Q576.6,186.979,576.615,187.878Zm-103.569,5.228a16.393,16.393,0,0,0-.6,3.367,8.918,8.918,0,0,0,.106,2.091q.248,1.311.532,2.623.319,1.63.638,3.3.094.5.159,1.01a20.718,20.718,0,0,1,.195,2.286c0,.094,0,.189,0,.284q.005.317,0,.638-.025.851-.089,1.737c-.014.246-.033.494-.053.744a14.746,14.746,0,0,1-.673,3.4,12.3,12.3,0,0,1-2.056,3.722,10.419,10.419,0,0,1-2.906,2.587q-.575.342-1.17.709-.654.409-1.329.851c-.079.046-.156.094-.23.142q-.532.284-1.1.567a5.964,5.964,0,0,0-.5-1.63c-.026-.053-.05-.106-.071-.16a26.146,26.146,0,0,0-2.765-4.342q-.6-.779-1.17-1.489.389-.39.886-.815,6.132-6.309,4.75-12.76a16.213,16.213,0,0,0-2.18-5.3,17.443,17.443,0,0,0-1.17-1.613q-.584-.708-1.258-1.382l-.248-.23q-.8-.733-1.347-1.223a18.1,18.1,0,0,1,5.1-1.028h.035a18.061,18.061,0,0,1,4.75.408,14.9,14.9,0,0,1,2.818.975q.188.085.372.177A5.994,5.994,0,0,0,473.046,193.106Zm108.3,64.368q-1-.147-2-.284.036-5.848.071-11.661,2.619.411,5.246.922v11.573Q583.006,257.731,581.347,257.474Zm-5.175,4.377q-.023,4.914-.053,9.8a70.186,70.186,0,0,0-9.535-.3q-.988.029-1.985.089V259.813a65.055,65.055,0,0,1,11.59.248Q576.184,260.957,576.172,261.851Zm5.281-18.963q-1-.163-2-.3.07-5.848.035-11.555,2.584.357,5.175.851v11.573Q583.056,243.14,581.453,242.888Zm-5.122-10.456q.024,4.811-.035,9.8a85.622,85.622,0,0,0-9.694-.408q-.994.018-2,.053.071-5.883,0-11.626a76.177,76.177,0,0,1,11.732.39Q576.337,231.533,576.332,232.432Zm.089-14.869q-.023,4.9-.053,9.818a84.812,84.812,0,0,0-9.783-.461q-.985.006-1.985.035V215.294a80.411,80.411,0,0,1,11.839.5Q576.433,216.677,576.42,217.563Zm-.354,59.157q-.017,4.9-.018,9.783a60.8,60.8,0,0,0-9.464-.266q-.989.046-1.985.124V274.735a63.86,63.86,0,0,1,11.484.177Q576.078,275.814,576.066,276.72ZM451.619,219.955a6.178,6.178,0,0,1,4.182-1.506q.459,0,.939.035a2.96,2.96,0,0,1,.532.035q3.971.284,4.182,4.218c0,.213.011.461.035.744a18.535,18.535,0,0,1-.922,5.122q-.472,1.583-1.205,3.385c-.027.064-.056.128-.089.195a48.689,48.689,0,0,1-8.418,13.239,3.1,3.1,0,0,0-.461.5.4.4,0,0,1-.142.142.885.885,0,0,0-.248.319,63.378,63.378,0,0,1-6.167,5.6L438.4,255.1l-6.859,3.934a5.17,5.17,0,0,1-.5.213,1.249,1.249,0,0,0-.319.106q-2.567,1.025-5.3,1.843-1.13.336-2.286.638-1.37.355-2.782.656-1.664.364-3.385.656-.351.066-.709.124-1.313.2-2.658.372l-.284.035q-3.155.425-6.628.638-3.934.178-5.671-1.666a10.431,10.431,0,0,1,1.471-2.694q2.763-3.65,8.879-4.927.431-.1,2.233-.266,1.083-.114,2.658-.248.554-.039,1.17-.089,5.282-.532,6.1-.709,1.679-.355,3.261-.762a56.812,56.812,0,0,0,11.076-3.988,30.46,30.46,0,0,0,12-9.889A20.017,20.017,0,0,0,453,232.4q.128-.538.23-1.081.239-1.166.372-2.339c.011-.13.023-.259.035-.39a.667.667,0,0,0,.018-.106,26.682,26.682,0,0,0,.106-3.084q-.106-2.977-1.914-3.119a1.39,1.39,0,0,1-.142-.018,3.459,3.459,0,0,0-2.587.656,27.094,27.094,0,0,1,2.233-2.694Q451.487,220.086,451.619,219.955Zm-40.708,22.667,2.694-.372,2.446-.337c.071-.01.142-.021.213-.035q9.012-1.214,12.8-1.985a36.007,36.007,0,0,0,8.294-3.013q1.979-.99,4.555-2.268,2.128-1.063,4.661-2.322l.461-.23-.3.248q-3.062,2.5-5.99,4.466-2.246,1.512-4.413,2.712a42.435,42.435,0,0,1-7.266,3.243,30.588,30.588,0,0,1-4.112,1.063q-4.28.741-8.684,1.241-1.324.154-2.658.284-6.325.6-12.9.709-7.231,1.417-9.464,4.5a12.762,12.762,0,0,0-2.056,6.274,40.4,40.4,0,0,1-6.557-1.949,1.583,1.583,0,0,1-.5-.213,7.746,7.746,0,0,1,.213-4.218q1.63-3.687,9.428-5.848l1.241-.284,18.289-1.666ZM524.228,264a16.2,16.2,0,0,0,.159,2.392,17.887,17.887,0,0,0,9.942,13.345,11.651,11.651,0,0,0,8.471.78,9.371,9.371,0,0,0,6.1-5.281,13.89,13.89,0,0,0,.851-9.038l.638-.071.5-.018,2.268-.053.177-.035a22.675,22.675,0,0,1,.408,2.676,16.769,16.769,0,0,1-1.506,8.808,12.645,12.645,0,0,1-5.352,5.919,12.944,12.944,0,0,1-6.061,1.6,21.065,21.065,0,0,1-7.231-1.276q-3.934-1.382-8.188-6.912a20.253,20.253,0,0,1-2.375-3.615A21.677,21.677,0,0,1,521,267.54a17.614,17.614,0,0,1-.372-1.879c0-.072-.011-.143-.018-.213q-.071-1.1-.071-2.2Z" transform="translate(-23.72 -32.24)" fill="#6a6adc" fill-rule="evenodd"/>
      <path id="Trazado_27677" data-name="Trazado 27677" d="M505.929,291.615a3.09,3.09,0,0,1,.319-.372l.018-.018a1.8,1.8,0,0,0,.018.23Zm-.354,1.223,1.1-.532a2.606,2.606,0,0,0,.248.284,2.4,2.4,0,0,0,2.8.39l.461.5a2.1,2.1,0,0,1-.425.851l2.871,3.084a2.206,2.206,0,0,0-.071.567,2.3,2.3,0,0,0,2.339,2.339,2.263,2.263,0,0,0,1.666-.673,3.181,3.181,0,0,0,.3-.372l5.476-.23a2.193,2.193,0,0,1,.567-1.028h.035a2.443,2.443,0,0,0,.673,1.347,2.265,2.265,0,0,0,1.666.673,2.221,2.221,0,0,0,1.63-.673l.018.018a2.091,2.091,0,0,1,.018.266,2.29,2.29,0,0,1-.177.886l16.163,16.588-.673.638-16.021-16.446a2.222,2.222,0,0,1-1.63.673,2.265,2.265,0,0,1-1.666-.673,2.443,2.443,0,0,1-.673-1.347l-5.707.213a2.49,2.49,0,0,1-.673,1.418,2.263,2.263,0,0,1-1.666.673,2.3,2.3,0,0,1-2.339-2.339,2.215,2.215,0,0,1,.5-1.453l-3.332-3.544a2.4,2.4,0,0,1-2.8-.39,2.612,2.612,0,0,1-.248-.284l-2.729,1.311a2.289,2.289,0,0,0,.284-1.134V294.4l2.056-.992a3.69,3.69,0,0,1-.035-.532Zm-6.486,5.405a6.736,6.736,0,0,0,.5-.975,5.89,5.89,0,0,0,.354-.851,2.315,2.315,0,0,0,1.276.354,2.223,2.223,0,0,0,1.63-.673l.018-.018a2.588,2.588,0,0,1,.018.3,2.36,2.36,0,0,1-2.339,2.339A2.288,2.288,0,0,1,499.088,298.243Zm-37.146-6.2-.142-.053.142-.089C461.94,291.947,461.94,291.994,461.942,292.04Z" transform="translate(-46.962 -63.031)" fill="#460521" fill-rule="evenodd"/>
      <path id="Trazado_27678" data-name="Trazado 27678" d="M668.789,202.468q-.775.169-1.577.337h-.018q-4.929-1.118-9.694-1.79.02-.842.036-1.684,4.554.729,9.251,1.861.123-4.986.053-10.031.984.223,1.967.461Q668.906,197.074,668.789,202.468Zm-16.358-13.593q.982.085,1.949.195.106,5.742-.035,11.59a107.41,107.41,0,0,0-11.945-.567q.012-.991.018-1.985,5.185.062,9.942.567Q652.479,193.735,652.431,188.875Zm4.555,99.316q1.756.272,3.491.585v1.648q-1.744-.3-3.509-.549Q656.973,289.029,656.985,288.191Zm3.491-14.32v1.648q-1.7-.3-3.4-.532,0-.846.018-1.7Q658.788,273.553,660.477,273.871ZM642.4,257.46a82.288,82.288,0,0,1,9.605.337q.03-4.908.053-9.818,1.012.077,2,.177-.036,5.813-.071,11.626a85.092,85.092,0,0,0-11.59-.284Zm9.588,5.388q1.01.083,2,.195-.035,5.813-.071,11.59a71.657,71.657,0,0,0-11.52-.213v-2.073a70.185,70.185,0,0,1,9.535.3Q651.964,267.761,651.988,262.848Zm5.175-4.377q1.66.257,3.314.549v1.666q-1.663-.286-3.332-.514Q657.15,259.323,657.163,258.471Zm-5.015-25.042q1.007.083,1.985.195.035,5.671-.035,11.59a86.524,86.524,0,0,0-11.7-.354q.012-1.019.018-2.038a85.621,85.621,0,0,1,9.694.408Q652.171,238.24,652.147,233.429Zm5.122,10.456q1.6.252,3.208.567v1.613q-1.614-.273-3.226-.5Q657.261,244.723,657.269,243.885Zm3.208-14.3v1.648q-1.579-.27-3.155-.478.005-.851.018-1.7Q658.906,229.292,660.477,229.583Zm0-14.851v1.63q-1.549-.255-3.084-.461.005-.851.018-1.7Q658.937,214.437,660.477,214.732Zm22.135-16q-.936.34-1.967.673,0-1.982-.018-3.97.989.408,1.967.833Q682.609,197.5,682.612,198.729Zm-30.305,4.98q1.016.094,2,.213-.035,5.707-.071,11.59a95.1,95.1,0,0,0-11.839-.5v-2a92.894,92.894,0,0,1,9.854.514Q652.283,208.555,652.307,203.709Zm-.071,14.851q1.013.095,2,.213-.036,5.777-.071,11.59a86.672,86.672,0,0,0-11.768-.425v-2.02a84.812,84.812,0,0,1,9.783.461Q652.213,223.458,652.236,218.56Zm-.354,59.157q1.012.069,2,.177-.036,5.813-.035,11.59a61.6,61.6,0,0,0-11.449-.142v-2.109a60.8,60.8,0,0,1,9.464.266Q651.864,282.618,651.881,277.717Z" transform="translate(-99.536 -33.237)" fill="#000047" fill-rule="evenodd"/>
      <path id="Trazado_27679" data-name="Trazado 27679" d="M698.894,201.31a90.4,90.4,0,0,1-15.915,5.6q.07,2.587.035,5.352a84.65,84.65,0,0,0,15.879-5.6Zm2.942-8.01V318.278q0,7.726-29.951,13.256h-.035V206.308q1.581-.292,3.084-.585h.018q2.906-.584,5.494-1.187l1.152-.266q4.257-1.026,7.621-2.109,1.035-.335,1.985-.673Q701.689,197.753,701.836,193.3ZM683.83,229.454a66.934,66.934,0,0,0,15.064-5.707v-5.388a71.345,71.345,0,0,1-15.064,5.565Zm15.064-19.6a83.057,83.057,0,0,1-21.267,6.805q0,2.693.035,5.458a82.117,82.117,0,0,0,21.267-6.876Q698.895,212.547,698.894,209.853Zm-17.545,38a61.3,61.3,0,0,0,17.545-6.912v-5.494a64.332,64.332,0,0,1-17.545,6.77Zm-.39-8.719a67.462,67.462,0,0,0,17.935-6.77q0-2.8.035-5.494a70.45,70.45,0,0,1-17.935,6.628Q680.96,236.33,680.959,239.13Zm-1.241,26.548a58.457,58.457,0,0,0,19.176-7.691v-5.458a60.207,60.207,0,0,1-19.176,7.621Zm19.176-4.608a47.808,47.808,0,0,1-15.844,6.734v5.529a46.074,46.074,0,0,0,15.844-6.734Zm0-11.59v-5.494a53.808,53.808,0,0,1-11.732,5.281q.071,2.73.035,5.6A52.187,52.187,0,0,0,698.894,249.48Zm-11.98,52v5.565a32.954,32.954,0,0,0,11.98-5.1v-5.6A32.526,32.526,0,0,1,686.914,301.477Zm2.056-17.935v5.529a50.842,50.842,0,0,0,9.924-4.891v-5.565A52.441,52.441,0,0,1,688.97,283.542Zm9.96,3.934a41.054,41.054,0,0,1-16.765,6.486v5.458a39.893,39.893,0,0,0,16.73-6.345Q698.964,290.312,698.93,287.477Zm-.035-17.687a49.878,49.878,0,0,1-18.36,7.443v5.388a49.28,49.28,0,0,0,18.36-7.266Zm-17.545,55.684a35.4,35.4,0,0,0,17.545-6.061q0-2.765.035-5.529a35.675,35.675,0,0,1-17.545,6.1Q681.35,322.673,681.349,325.473Zm10.917-16.8v5.671a58.811,58.811,0,0,0,6.628-3.544q0-2.835.035-5.671A57.23,57.23,0,0,1,692.266,308.672Z" transform="translate(-108.109 -34.525)" fill-rule="evenodd" fill="url(#linear-gradient-2)"/>
      <path id="Trazado_27680" data-name="Trazado 27680" d="M470.244,218.1a23.089,23.089,0,0,1-3.757,5.636q-.295-.36-.585-.727-.316-.6-.673-1.17a21.406,21.406,0,0,0,3.509-5.636q.225-.552.443-1.1Q469.633,216.541,470.244,218.1Zm34.789-27.4q1.091.383,2.2.851a41.307,41.307,0,0,1,4.431,2.215,130.132,130.132,0,0,1,16.11,10.917q-.606.792-1.294,1.719-2.388-1.9-4.909-3.7-5.211-3.722-11.006-7.053-1.682-.969-3.332-1.719c-.059-.026-.118-.05-.177-.071q-1.017-.462-2.02-.833a22.456,22.456,0,0,0-14.6-.744q-.658.2-1.276.408a18.06,18.06,0,0,0-4.75-.408h-.035a38.327,38.327,0,0,1,5.388-2.091A24.078,24.078,0,0,1,505.033,190.7Zm43.7,30.8q.742-.973,1.347-1.755.774.343,1.56.673,10.172,4.041,19.707-10.137a1.186,1.186,0,0,1,1.524-.284,1.352,1.352,0,0,1,.284.266v1.258q-.465.691-.939,1.347-10.27,14.349-21.391,9.535Q549.775,221.968,548.736,221.5Zm-83.809,3.793a29.775,29.775,0,0,1-10.137,5.866,46.286,46.286,0,0,1-4.59,1.365v-2.251a31.143,31.143,0,0,0,12.317-5.813q.6-.488,1.152-1.01.184.323.354.656l.106.213Q464.527,224.812,464.927,225.294Zm77.535-7q-.267-.147-.532-.3-1.11-.657-2.2-1.347a73.67,73.67,0,0,1-9.109-6.788q-1.21-1.058-2.464-2.091.7-.926,1.294-1.719.629.507,1.241,1.028.681.568,1.347,1.152a72.777,72.777,0,0,0,7.692,5.831q1.086.723,2.2,1.4,1.1.668,2.215,1.294Q543.4,217.48,542.462,218.294Z" transform="translate(-43.585 -33.325)" fill="#fd4f5e" fill-rule="evenodd"/>
      <path id="Trazado_27681" data-name="Trazado 27681" d="M523.115,259.437l-.833.3q-1.028.354-1.985.709-.354.141-.851.354c-.058.021-.118.045-.177.071q-1.817.639-4.182,1.382-1.631.567-3.615,1.17c-.142.023-.271.047-.39.071q-2.411.709-5.246,1.489a54.4,54.4,0,0,0-6.167,2.339q-1.6.779-2.942,1.524a18.164,18.164,0,0,1-4.076,1.223q-7.079,1.1-8.4-7.248a.278.278,0,0,1,.035-.106q3.552-.429,8.755-1.311,5.548-.947,12.973-2.41,3.956-.776,7.443-1.489,5.407-1.114,9.676-2.074l1.6-.372q3.614-.839,6.309-1.56a9.638,9.638,0,0,1,.266,3.19c0,.069-.01.14-.018.213q-1.5.427-2.871.833Q525.45,258.63,523.115,259.437ZM440.44,282.955q-.216-.7-.39-1.311,1.156-.3,2.286-.638Q441.319,282.035,440.44,282.955Z" transform="translate(-40.631 -52.049)" fill="#ffbd59" fill-rule="evenodd"/>
      <path id="Trazado_27682" data-name="Trazado 27682" d="M415.048,308.636q-1.218.971-2.658,1.985-1.214.843-2.587,1.719a1.75,1.75,0,0,0-.425.213l-3.4,2.02a5.141,5.141,0,0,0-.638.39q.709-.814,1.56-1.7,3.257-3.65,5.494-6.4,1.585-1.951,2.658-3.456.691-.96,1.17-1.737a17.413,17.413,0,0,0,1.6-3.261,42.214,42.214,0,0,0,1.329-4.555q1.412-.3,2.782-.656.174.612.39,1.311a21.836,21.836,0,0,0,2.517,4.679,4.1,4.1,0,0,0,.709.886q-2.268,1.666-4.4,3.332-2.339,1.95-4.537,3.934Q415.879,307.985,415.048,308.636Zm-29.171,23.447a17.9,17.9,0,0,0,.425-1.949l-1.737,2.41q-.071.071-.213.248.178-.532.354-1.241a36.844,36.844,0,0,1,1.347-4.4c.118-.024.189-.071.213-.142a.627.627,0,0,1,.177.284q.567.744-.319,4.076Q386.019,331.729,385.877,332.083Zm.213-12.583a.3.3,0,0,1,.319.106q.178.249-4.289,6.238a8.386,8.386,0,0,1-2.977.922q-1.949.178-1.1-1.63a1.781,1.781,0,0,0,.532-.319h.106l.5-.284.177-.177.354-.213a.309.309,0,0,1,.142-.035l5.884-4.218A1.81,1.81,0,0,0,386.09,319.5Zm-6.1,13.54-.035-.071q-.319-.425,1.205-3.084a24.356,24.356,0,0,1,3.19-4.82,20.581,20.581,0,0,1-1.453,4.182q-.106.355-.213.638a1.825,1.825,0,0,0-.567.673.956.956,0,0,0-.248.177,22.725,22.725,0,0,1-1.56,1.985A2,2,0,0,0,379.993,333.04Z" transform="translate(-22.505 -63.606)" fill="#ed8a55" fill-rule="evenodd"/>
      <path id="Trazado_27683" data-name="Trazado 27683" d="M385.657,319.769a7.612,7.612,0,0,0,.815-.709q2.977-2.481,7.975-7.514,5.245-5.387,7.833-7.585a56.593,56.593,0,0,1,8.684-6.593q.494-.238.992-.5,1.322-.711,2.658-1.613c.118-.072.236-.15.354-.23s.238-.163.354-.248q1.722-.291,3.385-.656a42.212,42.212,0,0,1-1.329,4.555,17.412,17.412,0,0,1-1.6,3.261q-.479.777-1.17,1.737-1.073,1.5-2.658,3.456-2.236,2.748-5.494,6.4-.851.886-1.56,1.7-8.365,4.785-10.279,6.167-.035,3.226-3.544,7.2-2.055,2.374-2.623,3.084a9.757,9.757,0,0,0-1.772,3.686,17.134,17.134,0,0,1-1.134,2.517q-.851,1.382-1.949.5a39.906,39.906,0,0,1,1.205-3.934,8.768,8.768,0,0,1,.319-1.028l.248-.673a.252.252,0,0,1,.035-.213l.035-.177q.141-.354.248-.709.886-3.331.319-4.076a.627.627,0,0,0-.177-.284c-.023.071-.094.118-.213.142a36.845,36.845,0,0,0-1.347,4.4q-.178.709-.354,1.241-.425.851-.957,1.772-1.595,2.977-3.58,3.261-.5-1.6,1.1-4.041a27.7,27.7,0,0,0,2.2-4.147,3.891,3.891,0,0,0-.425.248q.106-.283.213-.638a20.581,20.581,0,0,0,1.453-4.182,24.356,24.356,0,0,0-3.19,4.82q-1.524,2.658-1.205,3.084l.035.071q-2.02,2.055-3.261.39,1.949-2.941,5.529-7.691a.577.577,0,0,0-.142.106q4.466-5.991,4.289-6.238A.3.3,0,0,0,385.657,319.769Z" transform="translate(-22.072 -63.876)" fill="#feb37c" fill-rule="evenodd"/>
      <path id="Trazado_27684" data-name="Trazado 27684" d="M494.1,281.845a10.394,10.394,0,0,1-.337,4.129,5.891,5.891,0,0,1-.354.851,6.738,6.738,0,0,1-.5.975,7.5,7.5,0,0,1-2.375,2.322,18.084,18.084,0,0,1-3.9,1.808q-1.17,2.057-3.544,5.494-2.268,3.828-3.332,5.636-1.107,2.045-1.861,7.6-.292,2.21-.532,4.962c-.048.547-.095,1.107-.142,1.684a2.014,2.014,0,0,0-.868-1.205,33.1,33.1,0,0,0-8.259-2.658q.659-7.806,1.134-8.861.461-.957,5.813-8.719,4.785-6.912,5.1-9.18-.051-.963-.089-1.9-.051-.891-.089-1.755-.074-1.993-.124-3.846c0-.04,0-.082,0-.124q-.037-1.287-.053-2.5-.012-.693-.018-1.365-.015-1.475,0-2.836.016-1.252.053-2.41.015-.522.035-1.028.035-.8.089-1.56.119-1.54.337-2.906a20.7,20.7,0,0,1,1.506-5.388,10.766,10.766,0,0,1,1.382-2.268,7.639,7.639,0,0,1,1.542-1.453,9.574,9.574,0,0,0,2.942.106,8.808,8.808,0,0,1,2.393.939q-5.556,1.447-5.618,6.859a.278.278,0,0,0-.035.106q1.322,8.352,8.4,7.248c-.013.064-.024.129-.035.195q-.035,2.765.106,4.537.213.922.815,3.863A21.986,21.986,0,0,1,494.1,281.845Zm-38.635-6.4q.131,2.07.23,4.431.034.81.071,1.577l-.142.089-.78.5q-3.26,2.127-6.238,4.218-.532.425-1.1.851-1.417.992-2.765,2.02v.035a1.52,1.52,0,0,1-.5.142.88.88,0,0,1-.39-.213l-.035-.035a4.1,4.1,0,0,1-.709-.886,21.835,21.835,0,0,1-2.517-4.679q.879-.919,1.9-1.949,2.733-.819,5.3-1.843a1.25,1.25,0,0,1,.319-.106,5.166,5.166,0,0,0,.5-.213Z" transform="translate(-40.791 -52.588)" fill="#fd9c3c" fill-rule="evenodd"/>
      <path id="Trazado_27685" data-name="Trazado 27685" d="M399.067,265.429q-.248-.39-.5-.744a4.929,4.929,0,0,1-.443-.922,3.941,3.941,0,0,1,.372-3.332q.567-.851,2.091-2.871,1.524-2.055,6.841-3.651,2.132-.489,4.218-.975,1.339-.31,2.658-.62,4.97-1.149,9.676-2.268a37.673,37.673,0,0,0,9.162-3.279,31.97,31.97,0,0,0,3.846-2.339q.345-.232.673-.479,1.063-.816,1.914-1.524a.227.227,0,0,1,.106-.106q.708-.638,1.347-1.276a5.231,5.231,0,0,1,.567-.5,10.81,10.81,0,0,0,.78-1.028,14.677,14.677,0,0,0,2.605-4.413c.03-.088.06-.177.089-.266l-.461.23q-2.533,1.258-4.661,2.322-2.576,1.279-4.555,2.268a36.006,36.006,0,0,1-8.294,3.013q-3.783.771-12.8,1.985c-.071.014-.142.026-.213.035l-2.446.337-2.694.372-4.431.071q-4.963.035-9.818.142a21.992,21.992,0,0,1-10-2.162,40.7,40.7,0,0,1-9.074-5.777q.213-3.863,3.225-4.041a9.467,9.467,0,0,1,4.927,1.063q3.048,1.736,5,2.729,8.01,3.9,21.054,3.155.918-.049,1.808-.106,1.361-.08,2.658-.177a111.493,111.493,0,0,0,11.874-1.489q1.143-.222,2.2-.461,6.383-1.456,9.5-3.722,3.616-2.637,5.689-4.484.736-.654,1.276-1.205a9.335,9.335,0,0,0,1.223-1.471l.142-.284a12.028,12.028,0,0,1,.957-1.489,3.459,3.459,0,0,1,2.587-.656,1.385,1.385,0,0,0,.142.018q1.808.141,1.914,3.119a26.683,26.683,0,0,1-.106,3.084.667.667,0,0,1-.018.106c-.012.13-.024.26-.035.39q-.134,1.173-.372,2.339-.1.543-.23,1.081a20.017,20.017,0,0,1-3.137,6.681,30.46,30.46,0,0,1-12,9.889,56.813,56.813,0,0,1-11.076,3.988q-1.581.406-3.261.762-.816.178-6.1.709-.616.049-1.17.089-1.576.134-2.658.248-1.8.168-2.233.266-6.116,1.276-8.879,4.927A10.432,10.432,0,0,0,399.067,265.429Zm49.357-45.635q-.611-1.557-1.063-3a26.446,26.446,0,0,1-1.117-5.175,13.71,13.71,0,0,1,2.552-10.031,15.544,15.544,0,0,1,5.955-5.458A27.125,27.125,0,0,1,457.445,195q.552.49,1.347,1.223l.248.23q.674.674,1.258,1.382a17.451,17.451,0,0,1,1.17,1.613,16.213,16.213,0,0,1,2.18,5.3q1.382,6.451-4.75,12.76-.5.425-.886.815l-2.127-3.048a13.918,13.918,0,0,1-1.666-3.3,6.629,6.629,0,0,1-.106-3.9c.014-.057.026-.116.035-.177a8.219,8.219,0,0,0,.213-1.613,7.58,7.58,0,0,0-.319-2.357l-.142.142a7.422,7.422,0,0,0-1.879,3.013,18.518,18.518,0,0,0-.957,3.509,10.962,10.962,0,0,0,.035,2.906c.031.242.067.491.106.744.014.1.032.2.053.3A10.9,10.9,0,0,0,452.341,218q.709,1.382,1.347,2.871c.055.118.108.236.16.354a6.178,6.178,0,0,0-4.182,1.506,3.117,3.117,0,0,0-.408-.939q-.252-.577-.478-1.134Q448.592,220.221,448.424,219.794Zm-68.249,37.624q-4.75-2.092-4.927-5.388a4.69,4.69,0,0,1,1.205-2.977q2.055-2.481,6.2-2.268l8.4.284-1.241.284q-7.8,2.162-9.428,5.848A7.746,7.746,0,0,0,380.175,257.418Z" transform="translate(-21.765 -35.02)" fill="#9999ef" fill-rule="evenodd"/>
      <path id="Trazado_27686" data-name="Trazado 27686" d="M469.161,225.775q-1.63,1.347-3.332,2.587a29.862,29.862,0,0,1-2.712,1.861l-.337.195a7.892,7.892,0,0,1-1.985.939q-.11.023-.213.053a6.037,6.037,0,0,0-1.347.354l-.461-.018a18.532,18.532,0,0,0,.922-5.122c-.024-.284-.035-.532-.035-.744q-.213-3.934-4.182-4.218a2.962,2.962,0,0,0-.532-.035q-.481-.04-.939-.035c-.051-.118-.1-.237-.16-.354q-.638-1.489-1.347-2.871a10.9,10.9,0,0,1-1.081-3.456c-.021-.1-.039-.2-.053-.3-.04-.254-.075-.5-.106-.744a10.962,10.962,0,0,1-.035-2.906,18.518,18.518,0,0,1,.957-3.509,7.422,7.422,0,0,1,1.879-3.013l.142-.142a7.58,7.58,0,0,1,.319,2.357,8.219,8.219,0,0,1-.213,1.613c-.009.061-.021.121-.035.177a6.629,6.629,0,0,0,.106,3.9,13.918,13.918,0,0,0,1.666,3.3l2.127,3.048q.567.709,1.17,1.489a26.149,26.149,0,0,1,2.765,4.342c.021.053.045.106.071.16a5.963,5.963,0,0,1,.5,1.63q.568-.284,1.1-.567c.074-.048.151-.1.23-.142q.675-.44,1.329-.851.594-.367,1.17-.709a10.418,10.418,0,0,0,2.906-2.587,12.3,12.3,0,0,0,2.056-3.722,14.744,14.744,0,0,0,.673-3.4c.021-.25.039-.5.053-.744q.064-.886.089-1.737.005-.321,0-.638c0-.1,0-.189,0-.284a20.725,20.725,0,0,0-.195-2.286q-.066-.506-.16-1.01-.319-1.666-.638-3.3-.284-1.311-.532-2.623a8.916,8.916,0,0,1-.106-2.091,16.393,16.393,0,0,1,.6-3.367,18.733,18.733,0,0,1,2.623,1.914,16.517,16.517,0,0,1,1.879,2.268l.78,1.276a10.147,10.147,0,0,0,.106,3.474q.283,1.666.673,3.19c.08.3.152.6.213.9q.1.484.177.975.07.567.177,1.063.038.446.035.9a10.266,10.266,0,0,1-.337,2.357c-.018.06-.037.118-.053.177q-.249,1.063-.567,2.056a25.176,25.176,0,0,1-1.311,3.048,15.866,15.866,0,0,1-2.02,2.836,9.6,9.6,0,0,1-2.481,2.02Q470.153,225.279,469.161,225.775ZM445.236,235.2c-.029.089-.059.178-.089.266a14.677,14.677,0,0,1-2.605,4.413,10.81,10.81,0,0,1-.78,1.028,5.231,5.231,0,0,0-.567.5q-.638.638-1.347,1.276a.227.227,0,0,0-.106.106q-.851.709-1.914,1.524-.33.247-.673.479a31.97,31.97,0,0,1-3.846,2.339,37.673,37.673,0,0,1-9.162,3.279q-4.706,1.119-9.676,2.268-1.32.309-2.658.62-2.086.486-4.218.975-5.317,1.6-6.841,3.651-1.524,2.02-2.091,2.871a45.372,45.372,0,0,1-11.271-.851,12.762,12.762,0,0,1,2.056-6.274q2.233-3.084,9.464-4.5,6.577-.112,12.9-.709,1.335-.13,2.658-.284,4.4-.5,8.684-1.241a30.587,30.587,0,0,0,4.112-1.063,42.436,42.436,0,0,0,7.266-3.243q2.166-1.2,4.413-2.712,2.928-1.967,5.99-4.466Zm-36.118,10.563h.39l-18.289,1.666-8.4-.284a15.844,15.844,0,0,1-6.7-8.188q-.178-.46-.319-.922a40.7,40.7,0,0,0,9.074,5.777,21.992,21.992,0,0,0,10,2.162q4.856-.106,9.818-.142Z" transform="translate(-21.927 -35.384)" fill="#4c4cc2" fill-rule="evenodd"/>
      <path id="Trazado_27687" data-name="Trazado 27687" d="M475.007,252.829a9.574,9.574,0,0,1-2.942-.106q-.708-.106-1.56-.319-.851-.284-4.324-1.666-.616-.238-1.187-.425-.688-.239-1.311-.408c.033-.067.062-.131.089-.195q.734-1.8,1.205-3.385l.461.018c.313.074.627.157.939.248a16.376,16.376,0,0,1,1.648.585,17.244,17.244,0,0,1,5.175,3.385A8.583,8.583,0,0,1,475.007,252.829ZM398.376,421.014a8.92,8.92,0,0,1,3.084,3.9,1.631,1.631,0,0,1,.284.532q.071.142,1.418,10.243l.035.071-.39.957q-.408,1.068-.815,2.02a36.392,36.392,0,0,1-1.63,3.438,17.476,17.476,0,0,1-.16-3.828c.014-.274.032-.558.053-.851q.284-4.643.354-4.785.071-5.636-3.119-8.329l-.39-.354Q397.738,422.68,398.376,421.014Zm31.652-15.206a1.278,1.278,0,0,0-.425.177q-.5.39-3.048,2.268a18.913,18.913,0,0,1-3.509,2.2q.141-2.694,3.048-7.869a18.122,18.122,0,0,0,2.41-7.124l2.658-1.949q.106.744.177,2.906a27.743,27.743,0,0,1-.5,6.345A18.059,18.059,0,0,1,430.028,405.808Z" transform="translate(-28.128 -49.961)" fill="#eefcff" fill-rule="evenodd"/>
      <path id="Trazado_27688" data-name="Trazado 27688" d="M551.727,207.434a11.136,11.136,0,0,1-.939.691c-.03.017-.06.035-.089.053a6.9,6.9,0,0,0-2.02,2.02.779.779,0,0,1,.106.532q.07.319.815.035a8.661,8.661,0,0,0,2.8-1.879c.026-.023.049-.047.071-.071l.035-.035-.071-.106a5.924,5.924,0,0,1,.744.443,8.211,8.211,0,0,1,2.694,3.066,3.94,3.94,0,0,1,.479,3.066,3.764,3.764,0,0,1-1.506,1.932q-.435.3-.868.62c-.1.078-.211.155-.319.23q-.984.765-1.967,1.666a41.119,41.119,0,0,0-2.977,3.013q-.267.347-.567.744-.6.782-1.347,1.755-.559.737-1.205,1.577-.892,1.189-1.949,2.587-2.085,1.88-3.651,3.084a19.973,19.973,0,0,1-2.2,1.489q-.3.162-.567.284-1.023.434-8.347-.443a3.63,3.63,0,0,0-1.719-.23.451.451,0,0,1-.071.018c-.151-.016-.3-.033-.461-.053A62.282,62.282,0,0,1,534.218,227q1.967-1.45,3.58-2.729,1.2-.951,2.2-1.808.271-.231.532-.461.936-.813,1.684-1.542.838-.808,1.436-1.506a11.109,11.109,0,0,1,1.311-5.9q.389-.76.886-1.542c.019-.026.037-.05.053-.071q.778-1.059,1.453-1.985l1.9-2.552q.4-.548.744-1.01.371-.5.673-.9.334-.415.62-.762.732-.894,1.187-1.4a2.183,2.183,0,0,1,2.339-.815,6.435,6.435,0,0,1-1.6,3.225q-.085.112-.159.213a17.581,17.581,0,0,0-1.223,1.808C551.794,207.316,551.758,207.376,551.727,207.434Zm-54.018,6.5q.153,1.431.195,2.765a22.435,22.435,0,0,1-1.081,7.886,7.706,7.706,0,0,1-.709,1.879,3.106,3.106,0,0,0-.248.567,8.519,8.519,0,0,1-7.089,4.75q0-3.119.106-4.36.993-.5,1.985-1.063a9.6,9.6,0,0,0,2.481-2.02,15.866,15.866,0,0,0,2.02-2.836,25.176,25.176,0,0,0,1.311-3.048q.319-.992.567-2.056c.016-.059.035-.118.053-.177a10.266,10.266,0,0,0,.337-2.357q0-.458-.035-.9Q497.667,213.452,497.709,213.938ZM443.55,392.88a18.059,18.059,0,0,0,.815-3.048,27.743,27.743,0,0,0,.5-6.345q-.071-2.162-.177-2.906l1.879-1.418a21.555,21.555,0,0,0,2.127-1.241l7.443-3.9q5.955-3.19,11.271-2.339-3.9-12.122-6.7-19.636,1.843.249,4.005.709a31.233,31.233,0,0,1,15.7,8.932,64.241,64.241,0,0,1,4.608,7.479,20.248,20.248,0,0,1-.532,9.464q-1.276,4.041-7.55,4.466a53.8,53.8,0,0,0-13.965,2.977q-7.762,2.658-13.575,4.679Q444.967,392.242,443.55,392.88Z" transform="translate(-41.649 -37.033)" fill="#ffaa83" fill-rule="evenodd"/>
      <path id="Trazado_27689" data-name="Trazado 27689" d="M435.434,385.244q-.178-.886-.461-3.9a28.514,28.514,0,0,0-.886-5.1,26.858,26.858,0,0,0-8.4-12.087q-1.879-1.525-3.19-2.729a5.828,5.828,0,0,0,.035-.638l.213-3.048a2.167,2.167,0,0,1,.035-.319.944.944,0,0,0-.071-.354,63.424,63.424,0,0,0,21.692,3.9q-.354,1.453-.851,3.119a43.49,43.49,0,0,1-3.367,8.365q-1.24,3.225-3.3,9.712A19.325,19.325,0,0,1,435.434,385.244ZM477.152,237.9q-.106,1.241-.106,4.36-.284.567-1.1,2.8a11.868,11.868,0,0,0-.957,3.048,17.244,17.244,0,0,0-5.175-3.385,16.376,16.376,0,0,0-1.648-.585c-.312-.091-.626-.174-.939-.248a6.036,6.036,0,0,1,1.347-.354q.1-.03.213-.053a7.892,7.892,0,0,0,1.985-.939l.337-.195a29.861,29.861,0,0,0,2.712-1.861Q475.522,239.247,477.152,237.9Zm-47.39,154.007q-2.055-1.346-3.119-2.02a12.554,12.554,0,0,0-3.509-1.524,1.089,1.089,0,0,0-.177.035l-.213.035a1.506,1.506,0,0,1-.177.071,1.5,1.5,0,0,0-.177.071c-.084.021-.167.045-.248.071q-2.931.882-4.36,5-.319.922-1.205,4.182a20.576,20.576,0,0,1-1.205,3.863q-1.135,2.871-3.757,8.507a17.356,17.356,0,0,0-1.276,7.656,1.917,1.917,0,0,1,.071.532l.142.78.319.992a28.488,28.488,0,0,0-1.985,4.431,13,13,0,0,1-2.2,3.97l-1.737,4.679q-1.347-10.1-1.418-10.243a1.631,1.631,0,0,0-.284-.532,132.866,132.866,0,0,0,6.1-13.5q.532-1.63,1.772-7.8a32.2,32.2,0,0,1,2.446-8.046q6.026-7.656,12.9-6.77,4.395.567,6.1,2.906A30.118,30.118,0,0,1,429.763,391.907Z" transform="translate(-29.918 -47.508)" fill="#ce7c56" fill-rule="evenodd"/>
      <path id="Trazado_27690" data-name="Trazado 27690" d="M519.057,240.75a10.334,10.334,0,0,0-.815-2.091,4.8,4.8,0,0,0-2.357-2.605q7.324.877,8.347.443.266-.121.567-.284a19.978,19.978,0,0,0,2.2-1.489q1.565-1.2,3.651-3.084-2.134,3.117-3.651,5.086-.726.936-1.311,1.613-.441.521-.886,1.01a29.571,29.571,0,0,1-3.863,3.6q-.634.493-1.276.922l-.337.071A9.638,9.638,0,0,0,519.057,240.75Zm-117.074,173.5a8.92,8.92,0,0,0-3.084-3.9,53.143,53.143,0,0,0,1.7-5.6q1.382-6.025,2.091-9,2.8-10.989,8.223-16.234a9.242,9.242,0,0,1,2.3-2.091q1.879-1.135,2.8-1.737,3.261-2.2,3.438-5,1.17-7.833,1.772-17.474,1.311,1.2,3.19,2.729a26.858,26.858,0,0,1,8.4,12.087,28.514,28.514,0,0,1,.886,5.1q.284,3.012.461,3.9a22.732,22.732,0,0,1-2.871,4.005q-1.7-2.339-6.1-2.906-6.877-.886-12.9,6.77a32.2,32.2,0,0,0-2.446,8.046q-1.241,6.167-1.772,7.8A132.866,132.866,0,0,1,401.984,414.251ZM538.729,209.7a1.605,1.605,0,0,0-.213.851.206.206,0,0,1,.142.035l.142.071.532.213.035.071h.071l.071.106-.035.035c-.022.024-.045.048-.071.071a8.661,8.661,0,0,1-2.8,1.879q-.744.284-.815-.035a.779.779,0,0,0-.106-.532,6.9,6.9,0,0,1,2.02-2.02c.028-.018.058-.036.089-.053A11.144,11.144,0,0,0,538.729,209.7ZM514.1,235.84c-.245.09-.494.179-.744.266.092-.108.187-.214.284-.319C513.791,235.807,513.944,235.825,514.1,235.84ZM472.022,371.434a64.241,64.241,0,0,0-4.608-7.479,31.233,31.233,0,0,0-15.7-8.932q-2.163-.46-4.005-.709-.319-.887-.638-1.737a57.516,57.516,0,0,0,6.628-.957q1.028-.141,1.949-.284l4.253-1.205a64.1,64.1,0,0,0,10-4.041,5.434,5.434,0,0,1,.142.957q.213,2.516.886,12.264Q471.42,366.79,472.022,371.434Z" transform="translate(-28.651 -39.299)" fill="#ed9870" fill-rule="evenodd"/>
      <path id="Trazado_27691" data-name="Trazado 27691" d="M454.915,388.273q-1.914.142-3.934.177a63.424,63.424,0,0,1-21.692-3.9q-1.631-.567-3.438-1.276a72.576,72.576,0,0,0,3.084-16.73q0-.886.035-1.808.248-8.826.284-9.357-.106-.922-.142-1.63-.032-1.676.089-3.19a21.317,21.317,0,0,1,1.329-6.238,15.547,15.547,0,0,1,4.643-5.352,69.759,69.759,0,0,0,5.423-4.75,11.519,11.519,0,0,1,1.489-1.453,1.6,1.6,0,0,1,.656-.408,1.064,1.064,0,0,1,1.01.266,55.279,55.279,0,0,0,7.053,1.418q4.82.674,7.231.922a46.528,46.528,0,0,1,4.891.709,4.636,4.636,0,0,0-.425,1.772,11.639,11.639,0,0,0,.673,4.572c.023.071.046.141.071.213q.354,1.054.6,2.056a15.01,15.01,0,0,1-.071,8.046,15.586,15.586,0,0,1-1.205,2.8q-1.027,1.843-2.658,4.5a21.488,21.488,0,0,0-3.474,8.436q-.921,5.778,1.772,13.753,1.773,3.154,3.332,5.494A57.516,57.516,0,0,1,454.915,388.273Z" transform="translate(-36.497 -74.994)" fill="#00558c" fill-rule="evenodd"/>
      <path id="Trazado_27692" data-name="Trazado 27692" d="M490.206,383.164a64.1,64.1,0,0,1-10,4.041l-4.253,1.205q-.922.143-1.949.284-1.56-2.339-3.332-5.494-2.693-7.975-1.772-13.753a21.488,21.488,0,0,1,3.474-8.436q1.631-2.658,2.658-4.5a15.586,15.586,0,0,0,1.205-2.8,15.01,15.01,0,0,0,.071-8.046q-.249-1-.6-2.056c-.025-.072-.048-.142-.071-.213a11.639,11.639,0,0,1-.673-4.572,4.636,4.636,0,0,1,.425-1.772.809.809,0,0,1,.284.071h.106l.142.035.354.071a33.1,33.1,0,0,1,8.259,2.658,2.014,2.014,0,0,1,.868,1.205,4.369,4.369,0,0,1,.124,1.524q-.1,1.315-.177,2.109-.086,1.09-.106,1.152-.035,2.411-.5,7.3l.035.035a1.241,1.241,0,0,1-.071.567q-.035,1.559.035,3.013a20.944,20.944,0,0,0,.673,3.58l.035.071q.5,1.276.922,2.8l6.983,18.183Q491.836,382.349,490.206,383.164Z" transform="translate(-48.962 -76.371)" fill="#003151" fill-rule="evenodd"/>
      <path id="Trazado_27693" data-name="Trazado 27693" d="M394.884,483.716q3.19,2.693,3.119,8.329-.071.143-.354,4.785c-.021.293-.039.577-.053.851a17.476,17.476,0,0,0,.16,3.828,16.127,16.127,0,0,1-.567,6.77q-1.347,5.777-1.453,6.735a5.85,5.85,0,0,1-2.658,4.4,4.093,4.093,0,0,1-4.927.035q3.438-.355,4.076-2.552,1.985-4.006,1.1-10.846-.532-3.579-.638-5.388a27.121,27.121,0,0,1-.266-4.218q.023-.668.089-1.276a36.684,36.684,0,0,0-.071-5.955c-.048-.118-.083-.213-.106-.284a4.45,4.45,0,0,0-1.241-2.339.228.228,0,0,0-.106-.142.754.754,0,0,0-.284-.319,3.578,3.578,0,0,0-.354-.213,2.478,2.478,0,0,0-1.382-.532c-.023-.047-.047-.059-.071-.035l-.106-.035a10.628,10.628,0,0,1,2.977-1.028Q393.857,483.858,394.884,483.716Zm25.556-13.93a33.937,33.937,0,0,0-2.517,4.466,51.722,51.722,0,0,1-2.729,4.679q-3.828,5.21-8.719,3.013l-.319-.992q5.848-.744,8.684-7.55,1.524-3.65,2.836-12.264.248-1.1.744-2.765.673-2.552.744-2.694a7.193,7.193,0,0,0-.425-5.529,12.554,12.554,0,0,1,3.509,1.524q1.063.674,3.119,2.02l.532,1.1a18.122,18.122,0,0,1-2.41,7.124Q420.582,467.092,420.44,469.786Z" transform="translate(-25.522 -109.296)" fill="#132146" fill-rule="evenodd"/>
      <path id="Trazado_27694" data-name="Trazado 27694" d="M388,519.444c0-.024-.023-.024-.071,0a.71.71,0,0,0-.248-.213,6.687,6.687,0,0,0,3.9-4.182q1.276-3.792,0-11.484-.29-2-.514-7.443-.031-.531-.053-1.1-.249-5.919-.319-6.132a4.275,4.275,0,0,0-2.233-2.2,5.055,5.055,0,0,0-.815-.39,4.931,4.931,0,0,1,.992-.992l.106.035c.023-.023.047-.012.071.035a2.478,2.478,0,0,1,1.382.532,3.578,3.578,0,0,1,.354.213.754.754,0,0,1,.284.319.228.228,0,0,1,.106.142,4.45,4.45,0,0,1,1.241,2.339c.023.071.059.165.106.284a36.684,36.684,0,0,1,.071,5.955q-.066.608-.089,1.276a27.121,27.121,0,0,0,.266,4.218q.106,1.808.638,5.388.886,6.842-1.1,10.846Q391.443,519.089,388,519.444Zm18.006-38.493-.142-.78a1.917,1.917,0,0,0-.071-.532,7.348,7.348,0,0,0,2.942-.461q2.268-.781,3.793-3.97a52.619,52.619,0,0,0,3.155-10.421q2.836-12.193,2.481-13.256l-.567-1.1c.082-.026.164-.05.248-.071a1.5,1.5,0,0,1,.177-.071,1.506,1.506,0,0,0,.177-.071l.213-.035a1.089,1.089,0,0,1,.177-.035,7.193,7.193,0,0,1,.425,5.529q-.071.141-.744,2.694-.5,1.665-.744,2.765-1.311,8.613-2.836,12.264Q411.858,480.207,406.01,480.951Z" transform="translate(-25.377 -109.296)" fill="#2c4482" fill-rule="evenodd"/>
      <path id="Trazado_27695" data-name="Trazado 27695" d="M386.084,519.348q-4.006-3.119-3.934-9.57a38.389,38.389,0,0,1,.532-5.777q.709-3.792.957-5.529a19.4,19.4,0,0,0,.354-3.509c.006-.108.012-.215.018-.319q.157-2.884.124-3.119a8.936,8.936,0,0,1,1.914-5.1,5.058,5.058,0,0,1,.815.39,4.275,4.275,0,0,1,2.233,2.2q.071.213.319,6.132.022.568.053,1.1.223,5.442.514,7.443,1.276,7.691,0,11.484A6.687,6.687,0,0,1,386.084,519.348ZM404.2,479.756a17.356,17.356,0,0,1,1.276-7.656q2.623-5.636,3.757-8.507a20.577,20.577,0,0,0,1.205-3.863q.886-3.26,1.205-4.182,1.429-4.116,4.36-5l.567,1.1q.354,1.063-2.481,13.256a52.618,52.618,0,0,1-3.155,10.421q-1.524,3.19-3.793,3.97A7.348,7.348,0,0,1,404.2,479.756Z" transform="translate(-23.775 -109.412)" fill="#455d9d" fill-rule="evenodd"/>
      <path id="Trazado_27696" data-name="Trazado 27696" d="M605.575,136.637v9.145l-5.565-1.241V135.4Zm-14-10.882,5,1.1v16.872l-1.223-.284-4.413-.992V125.614Zm-125.4,3.137c-.1-.161-.192-.32-.284-.479a20.1,20.1,0,0,1-.922-1.808l-1.205-5.707,6.415.815c0,.043,0,.084,0,.124,0,.024,0,.048,0,.071l.195,1.453a8.128,8.128,0,0,0,.975,2.286,8.756,8.756,0,0,0,2.942,3.084l-.018.035-2.818,5.458a17.6,17.6,0,0,1-1.9-1.382l-.922-.851a16.227,16.227,0,0,1-1.56-1.79Zm-88.9,165.013v23l-6.026-.638v-23ZM518.026,328.18v-.248a11.734,11.734,0,0,1,13.717-11.945,15.516,15.516,0,0,1,9.712,5.458A15.3,15.3,0,0,1,545.5,331.8a11.736,11.736,0,0,1-13.753,11.945,14.777,14.777,0,0,1-6.983-2.871q.467.329.957.638l2.818-5.458a8.129,8.129,0,0,0,3.172,1.134,6.14,6.14,0,0,0,7.266-6.309,8.761,8.761,0,0,0-7.266-8.365,6.232,6.232,0,0,0-7.266,6.345V329Zm1.205,5.707a19.982,19.982,0,0,0,.922,1.808q.282.487.585.957A15.684,15.684,0,0,1,519.232,333.887Z" transform="translate(-20.602 -13.449)" fill="#8ec2ff" fill-rule="evenodd"/>
      <path id="Trazado_27697" data-name="Trazado 27697" d="M585.034,425.989l-1.825-1.577a15.794,15.794,0,0,1-1.9-2.215l-.3-.425q-.3-.469-.585-.957a20,20,0,0,1-.922-1.808L578.3,413.3l6.415.815c0,.043,0,.084,0,.124a.6.6,0,0,1,0,.071l.195,1.453a8.132,8.132,0,0,0,.975,2.286,8.761,8.761,0,0,0,2.942,3.084l-.018.035-2.818,5.458Q585.5,426.318,585.034,425.989Z" transform="translate(-80.876 -98.568)" fill="#fff" fill-rule="evenodd"/>
    </g>
    <path id="Trazado_27698" data-name="Trazado 27698" d="M393.75,36.967V34.5h27.885v2.469ZM131.6,26.3l2.525-4.953a2.64,2.64,0,0,1,4-1.3l8.74,4.439a2.621,2.621,0,0,1,1.276,4l-4.439,8.74q-1.332,2.636-3.968,1.276l-3.663-1.859,1.526-3q1.721-3.385-1.665-5.133Zm2.081,9.115-2.691-1.36a2.61,2.61,0,0,1-1.3-3.968l.694-1.373,4.328,2.206a.994.994,0,0,1,.5,1.5ZM52,295.229a11.963,11.963,0,0,1,3.663-8.768,11.766,11.766,0,0,1,8.685-3.579,12.177,12.177,0,0,1,12.347,12.347A12.315,12.315,0,0,1,64.347,307.6,12.507,12.507,0,0,1,52,295.229Z" transform="translate(468 2124.402)" fill="#ff65a7" fill-rule="evenodd"/>
    <path id="Trazado_27699" data-name="Trazado 27699" d="M545.85,137.45l8.25-4.75q2.6-1.5,2.6,1.5v9.55a4.875,4.875,0,0,1-2.6,4.5L545.85,153q-2.6,1.5-2.6-1.5v-9.55A4.873,4.873,0,0,1,545.85,137.45Z" transform="translate(736.1 2091.273)" fill="#a7edff" fill-rule="evenodd"/>
  </g>
</svg>
