<svg xmlns="http://www.w3.org/2000/svg" xmlns:xlink="http://www.w3.org/1999/xlink" width="423" height="312.315" viewBox="0 0 423 312.315">
  <defs>
    <linearGradient id="linear-gradient" x1="0.569" y1="0.914" x2="0.487" y2="0.08" gradientUnits="objectBoundingBox">
      <stop offset="0.169" stop-color="#1818a3"/>
      <stop offset="0.855" stop-color="#6a6adc"/>
    </linearGradient>
  </defs>
  <g id="Grupo_16090" data-name="Grupo 16090" transform="translate(-451 -3602.676)">
    <path id="Trazado_27732" data-name="Trazado 27732" d="M191.6.285c114.387,0,222.635-10.983,222.635,103.4S321.5,310.806,207.116,310.806,0,218.077,0,103.689,77.21.285,191.6.285Z" transform="translate(874 3913.482) rotate(180)" fill="#f5f5f5"/>
    <g id="Grupo_16080" data-name="Grupo 16080" transform="translate(451 3634.31)">
      <path id="Trazado_27700" data-name="Trazado 27700" d="M633.153,304.55l-1.125-1.213q.494-.078.96-.126a138.532,138.532,0,0,1-8.042-13.8,50.11,50.11,0,0,0-6.994-10.555,51.7,51.7,0,0,0-5.19-5.258l-.5-.417q-.058-.01-5.287-2.61a10.231,10.231,0,0,0-6.6-.8q.214-.495.407-1,.669-1.853,1.3-3.716.359-1.058.631-2.105a25,25,0,0,0,.592-3.056l.155-2.154q.049-1.688,0-3.327a32.816,32.816,0,0,0-.359-4,16.094,16.094,0,0,0-1.261-4.327,6.638,6.638,0,0,0-2.765-3.017q-.272-.136-.553-.262-.456-.243-.864-.456l-.252-.039q-.155-.155-.311-.291-.9-.611-1.775-1.106a14,14,0,0,0-17.937,21.439q.039.524.058,1.019a.879.879,0,0,0,.029.34.331.331,0,0,0,0,.194.3.3,0,0,0-.029.175.3.3,0,0,1,.029.175,1.028,1.028,0,0,1-.029.136l-1.746,8.265-.136-.116q-.311.272-.621.582l-.155.155-5.394,4.812a13.574,13.574,0,0,1-5.045,2.774H564.3q-.116.039-.495.155-.466.272-.854.543-.883.728-1.727,1.465a30.125,30.125,0,0,0-3.036,2.91q-4.2,3.5-6.073,14.4a155.477,155.477,0,0,0-2.513,22.274l-3.23-1.785a4.82,4.82,0,0,0-4.143-2.6,4.165,4.165,0,0,1-.728-.039q-.272-.078-.495-.146-.117-.029-.136-.068a.576.576,0,0,0-.116-.078q-.757-.243-1.5-.524a10.937,10.937,0,0,1-1.552-.611q-.64-.243-1.193-.4a1.208,1.208,0,0,1-.31-.058l-3.23-1a.426.426,0,0,1-.281-.019,22.645,22.645,0,0,0-2.27-.34q.041-.383.077-.766l5.156-2.217,1.8.306q.039,0,.378.068a2.46,2.46,0,0,0,.776-.029,2.382,2.382,0,0,0,1.019-.7,3.657,3.657,0,0,0,.815-1.154,1.487,1.487,0,0,0,.107-.669l4.511-1.921a6.792,6.792,0,0,0,2.726-2.027,7.127,7.127,0,0,0,1.368-4.511V264.9q0-2.425-1.028-3.163l-4.686-3.386-.087-.019-4.676-3.434-.049-.01q-.989-.679-3.095.136l-7.479,3.23a56.577,56.577,0,0,1,3.735-21,26.219,26.219,0,0,1,6.684-10.041,65.2,65.2,0,0,1,27.968-15.463,59.572,59.572,0,0,1,33.352.689,61.822,61.822,0,0,1,28.046,17.9A111.541,111.541,0,0,1,647.083,259a201.8,201.8,0,0,1,11.671,31.9,133.986,133.986,0,0,1,4.7,34.934v.048q-.291-.184-.592-.369-.912-.66-1.882-1.319l-.8-.631q-.243.019-.475.049c-.019-.123-.042-.243-.068-.359a3.021,3.021,0,0,0-1.465-2.154.3.3,0,0,1,.077-.058l-24.437-16.579a.318.318,0,0,0-.107-.1A3.073,3.073,0,0,0,633.153,304.55Zm26.833,32.081a5.043,5.043,0,0,1,.747.5q.67,1.649,1.106,2.668.311.64.534,1.048-.126.9-.271,1.795l-.32.165-37.262-19.839q-.67-.349-.272.4l15.978,30.083a2.535,2.535,0,0,0,1.067,1.1l15.565,8.29a106.129,106.129,0,0,1-14.023,26.673,144.6,144.6,0,0,1-21.488,23.574,186.534,186.534,0,0,1-16.084,12.563q.572-2.406,1.193-5.044,1.077-4.627,1.494-6.858l.233-1.775v-.077a3.59,3.59,0,0,0-.146-1q2.426-1.271,4.075-5.442a22.224,22.224,0,0,0,1.688-6.9,6.779,6.779,0,0,0-1.611-4.822q.708-1.649,1.329-3.531.757-2.28,1.378-4.928a91.372,91.372,0,0,0,2.066-12.854q.4-4.278.4-6.49,0-1.087-.33-5.763-.359-4.967-.582-6.16a18.613,18.613,0,0,0-1.7-5.141,26.122,26.122,0,0,0-1.319-2.406,5.592,5.592,0,0,0-.805-2.076v-.252a6,6,0,0,0-2-4.9,5.312,5.312,0,0,0-.427-.33q.029-1.436.029-2.872l1.038-13.484a17.58,17.58,0,0,0,2.542.029q.039-.145.078-.3.349-1.387.65-2.774a108.513,108.513,0,0,0,2.1-12.058,43.955,43.955,0,0,0,4.3,4.938q.194-.533.4-1.057l4.327,4.094a6.068,6.068,0,0,0,.058.951,1.115,1.115,0,0,1,.02.349,67.948,67.948,0,0,0,25.446,12.543q.757.213,1.542.4.718.175,1.445.32a.431.431,0,0,0,.049.019,2.629,2.629,0,0,0,1.009.2,14.62,14.62,0,0,0,.252,2.037,3.765,3.765,0,0,0,1.048,1.814q.407.446.989.99.446.31,1.009.669Q659.452,336.272,659.986,336.631Zm-86.533,15.415a4.141,4.141,0,0,0-3.415,2.406,15.575,15.575,0,0,0-1.494,4.744,30.6,30.6,0,0,1-.825,3.842q-.116,1.523-1.6,14.134-1.368,12.495-1.407,16.666v.184a8.477,8.477,0,0,0,.33,2.319,17.431,17.431,0,0,0-1.571,7.373,10.861,10.861,0,0,0-3.056.7q-3.851,1.465-6.781,9.788-.223-.194-.534,3.706-.349,3.89-.5,7.664-.194,3.744-.31,5.937-.4,8.09-.184,16.172a4.6,4.6,0,0,0-1.242,1.1,6.736,6.736,0,0,0-1.232,2.668,36.12,36.12,0,0,0-2.018,3.24q-5.151,1.969-10.157,3.735-13.029,4.7-24.214,3.085a42.113,42.113,0,0,1-19.257-7.644,31.668,31.668,0,0,1-11.3-14.755q-3.279-8.653-.931-22.021,2.3-13.262,13.2-24.563a120.77,120.77,0,0,0,19.16-26.571,153.242,153.242,0,0,0,12.456-31.024q.243-.834.466-1.678l.272.388a5.39,5.39,0,0,0,1.407,1.407l1.029.64a8.534,8.534,0,0,0,2.483-.543,9.25,9.25,0,0,1,1.1-.378,4.072,4.072,0,0,0,1.086-.543l1.252-.757q.941-.592,1.862-1.135,1.494-.825,2.959-1.678.563.728,1.145,1.445.747.883,1.494,1.737.359.407.7.854a22.284,22.284,0,0,1,1.5,1.9q4.065,5.539,7.586,5.714a14.564,14.564,0,0,0,7.625-2.144q.437-.262.8-.514a5.484,5.484,0,0,0,1.562-1.843.435.435,0,0,1,.058-.136.126.126,0,0,1,.029-.058.009.009,0,0,1,.01-.01,9.042,9.042,0,0,0,1.116-2.668,8.92,8.92,0,0,0,.058-4.249,13.342,13.342,0,0,0,.068-3.221q-.272-3.172-.33-3.23v-.165l1.814-13.378a.106.106,0,0,1,.019.029l.078.155q.194.3.427.65a49.707,49.707,0,0,1,4.812,9.061,27.539,27.539,0,0,1,2.008,8.673.432.432,0,0,0,.039.194v.272a16.888,16.888,0,0,0,2.115.766,19.347,19.347,0,0,1,2.27,11.535q-2.988,2.26-2.988,4.036a8.173,8.173,0,0,0,.611,2.93,11.957,11.957,0,0,0,.64,1.445,3.51,3.51,0,0,0-1.64.834A3.423,3.423,0,0,0,573.452,352.046ZM592.728,399.4a8.717,8.717,0,0,0,.96,4.792,1.555,1.555,0,0,0-.184.068,1.827,1.827,0,0,0-.495.233,6.313,6.313,0,0,0-.892.543.113.113,0,0,0-.078.039.759.759,0,0,0-.078.068.715.715,0,0,0-.146.116,4.017,4.017,0,0,0-.5.427l-.078.077q-3.162,3.046-3.162,10.371a25.687,25.687,0,0,0,.5,6.17,66.261,66.261,0,0,1,1.659,8.634,27.484,27.484,0,0,0,1.028,3.589,226.576,226.576,0,0,1-21.934,11.234q-2.367,1.028-4.647,2.008-2.183.932-4.336,1.824.078-.1.146-.194a44.569,44.569,0,0,0,4.9-9.216q1.271-3.269,2.619-6.548,1.727-4.239,3.541-8.44,1.7-3.783,3.269-7.6.66-1.542,1.164-3.124.223-.728.417-1.387a.735.735,0,0,1,.039-.233,3.9,3.9,0,0,0,0-1.892q-.077-.272-.165-.524a12.125,12.125,0,0,0,3.153-4.754q.543-1.349.912-2.58a9.423,9.423,0,0,0,2.58-2.852.5.5,0,0,1,.116-.184q.029-.068.068-.146a2.3,2.3,0,0,1,.252-.4,2.506,2.506,0,0,1,.184-.4,14.188,14.188,0,0,0,.65-1.523.144.144,0,0,1,.039-.107,37.985,37.985,0,0,0,1.484-5.433q.756-3.405,1.009-4.094,4.579-11.36,5.374-15.6a4.012,4.012,0,0,0,.873-.7q.02.116.048.233,1.814,7.975,1.814,10.186a37.96,37.96,0,0,1-1.164,9.274,31.823,31.823,0,0,0-1.155,6.558A5.085,5.085,0,0,0,592.728,399.4Zm-62.979-79.17q.126-.834.242-1.669,1.029.223,2.1.446l-.039.029a.434.434,0,0,0-.223.146,4.208,4.208,0,0,0-.388.223A14.706,14.706,0,0,1,529.749,320.227Z" transform="translate(-480.769 -209.697)" fill="#eff0ff" fill-rule="evenodd"/>
      <path id="Trazado_27701" data-name="Trazado 27701" d="M829.655,669.192a.027.027,0,0,0-.02-.039,1.514,1.514,0,0,0-.155-.243q-.107-.165-.233-.4-.223-.407-.534-1.048a1.046,1.046,0,0,0,.65-.049h.039a2.516,2.516,0,0,0,.679-.291,4.59,4.59,0,0,0,.805,2.207q.109.171.233.344-.3-.085-.573-.17Q830.063,669.353,829.655,669.192Zm62.737,143.5q.323-.186.65-.388,5.317-3.24,7.838-10.633a7.843,7.843,0,0,0,1.979.369A2.563,2.563,0,0,0,905.721,800a23.481,23.481,0,0,0,.349-5.481,3.339,3.339,0,0,0-.437-1.795l.126-.563v-.631a.236.236,0,0,1-.039-.1v-.562a5.945,5.945,0,0,1-.155-.631,2.732,2.732,0,0,0-.1-.5,11.641,11.641,0,0,0,1.581-5.636q.227-1.639.665-4.094.792.41,1.557.854,9.527,5.51,9.526,13.3,0,7.809-9.526,13.32A41.8,41.8,0,0,1,892.391,812.69Zm-14.037-5.772-.039.165a5.6,5.6,0,0,0-.66,2.92,3.1,3.1,0,0,0,.223,1.009v.912a.9.9,0,0,0,.155.5,40.811,40.811,0,0,1-14.746-4.938q-9.526-5.52-9.536-13.329.008-6,5.665-10.657a6.75,6.75,0,0,0-.543,1.606,6.569,6.569,0,0,0-.126,1.29v.378a6.725,6.725,0,0,0,.466,3.056q.1.311.32.941.252.6,1.824,1.29a9.541,9.541,0,0,0,4.656.126,20.511,20.511,0,0,0,4.6-1.106,16.609,16.609,0,0,0,3.366-1.63q7.615-4.065,10.6-4.065a4.309,4.309,0,0,1,0,1.038q.253.572,1.669.572a23.566,23.566,0,0,0,3.075-.194,22.784,22.784,0,0,1-1.1,2.832,3.933,3.933,0,0,0,.631,1.795q-.756,1.232-1.795,2.707-1.193,1.7-2.833,3.841A49.062,49.062,0,0,0,878.354,806.918Zm-103.1-157.293q-.281-.1-.543-.184v-.01a2.341,2.341,0,0,0-.34-.116l-.97-.427-.34-.146a3.538,3.538,0,0,0-.466-.194A15.334,15.334,0,0,1,775.251,649.625Zm4.7-27.211a4.157,4.157,0,1,1,.32-3.192A4.056,4.056,0,0,1,779.947,622.414ZM768.2,768.725q.175-.728.378-1.533a16.78,16.78,0,0,1,9.633,2.367l22.138,12.708q7.2,4.133-.562,7.111l-71.41,27.415a16.67,16.67,0,0,1-14.959-1.155l-22.138-12.708q-7.2-4.132.563-7.111l19.829-7.606q-.2.5-.407,1.019a41.251,41.251,0,0,0-1.611,5.171,24.325,24.325,0,0,0-.5,2.619,7.44,7.44,0,0,0,.175.922q-.107.572-.175,1.106a9.347,9.347,0,0,0,3.163,5.782,12.921,12.921,0,0,0,5.966,2.969,3.269,3.269,0,0,0,3.124-1.232,12.821,12.821,0,0,0,1.765-3.085,30.74,30.74,0,0,0,1.232-8.6,50.649,50.649,0,0,1,.776-8.711l.078-.582q-.184.068-.359.136.126-.922.281-1.581l.078-.582q-.349.136-.708.252.184-.32.359-.689L758.827,770.1a7.526,7.526,0,0,0-.2,2.027,8.744,8.744,0,0,0-1.707.99q-2.852,3.124-2.619,4.239a.157.157,0,0,1,.01.049,1.974,1.974,0,0,0-.32,1.242,6.713,6.713,0,0,0,1.154,2.5q2.2,2.891,7.7,3.939,3.008.533,4.472.883a15.19,15.19,0,0,1,4.162,1.542,41.726,41.726,0,0,0,7.431,3.657,18.955,18.955,0,0,0,8.168,1.048,2.665,2.665,0,0,0,1.736-.893,7.664,7.664,0,0,0,1.193-1.7q-.019-.33-.058-.64c.019-.039.039-.074.058-.107q.155-.233.31-.5a.029.029,0,0,0-.019.01.426.426,0,0,1,.019-.048,8.08,8.08,0,0,0-2.037-4.967,14.593,14.593,0,0,0-4.356-3.2q-.388-.194-5.239-2.386-2.125-.97-7.363-3.279-.533-.271-1.077-.5-.747-.33-1.581-.669a11.54,11.54,0,0,0-.32-4.2Q768.276,768.919,768.2,768.725Z" transform="translate(-647.644 -537.359)" fill="#f1f2ff" fill-rule="evenodd"/>
      <path id="Trazado_27702" data-name="Trazado 27702" d="M1539.176,562.805q-.032,1.662-.024,2.6a14.016,14.016,0,0,0-6.16,5.36l-.194-.252a41.642,41.642,0,0,0-4.743,13.785q-1.669,10.6-3.085,21.177A102.682,102.682,0,0,1,1522.136,619q-1.921,7.053-7.809,9.633-.573.251-1.164.49l-4.472-2.382-.262-.369-.31-.417q.414-.184.834-.378,6.761-3.143,10.322-15.764,3.579-12.65,3.929-20.518a86.178,86.178,0,0,1,1.29-12.563,20.01,20.01,0,0,1,3.017-7.3Q1532.243,562.457,1539.176,562.805Zm8.532,25.426q.407-.786.728-1.484,2.89-5.791,9.973-11.835.844-.718,3.521-2.862,2.648-2.134,1.766-3.521a7.724,7.724,0,0,0-2.047-2.076q-.363-.146-.722-.276c.005-.082.01-.165.015-.247q.03-.506.014-1.028.747.2,1.508.446v.1q.32.252.6.437l.437.32,1.611,1.572a7.619,7.619,0,0,1,1.756,3.871,2.379,2.379,0,0,1,.039.475,6.189,6.189,0,0,0,.184.844v.1l.126.1,1.921,2.173a1.5,1.5,0,0,1-.126.184,3.47,3.47,0,0,0-.475.728,30.31,30.31,0,0,0-2.988,5,34.685,34.685,0,0,0-2.2,5.7q-.126.378-.223.757a20.375,20.375,0,0,0-5.656-.728,1.357,1.357,0,0,0-.378.184q-.349.252-.378.417.087.281,1.475,2.833a8.811,8.811,0,0,1,1.164,2.949q-1.756,2.425-4.123,6.461a1.412,1.412,0,0,1-.185.369l-.1.1-1.135,2.018a.887.887,0,0,0-.252.378q-.66,1.29-1.416,2.61a.374.374,0,0,0-.058.194l-.407.815q-.282.5-.631,1.038a2.456,2.456,0,0,1-.223.407q-2.706,5.539-5.093,11.273a138.638,138.638,0,0,0-5.568,17.685q-.1.437-.194.815.1-.476.156-1.038-.088-3.308-.184-4.657,0-.815-.068-1.571.475-3.085.951-6.577c0-.026.019-.039.058-.039q.155-1.193.281-2.328,1.61-12.747,2.425-17.307.911-5.229,1.765-8.5.631-2.426,1.319-4.56Q1547.2,589.483,1547.708,588.232Zm-7.111-1.95q-.282,1.6-.631,3.454a3.964,3.964,0,0,1-.029.446q-.421,2.179-.616,3.847c0,.04-.01.08-.014.121a58.827,58.827,0,0,0-3.366,12.805q-.058.31-.1.757-.069-2.729-.218-5.447-.38-7.093-1.285-14.1l3.4-4.657a11.478,11.478,0,0,1-1.892-.941,4.145,4.145,0,0,1-1.571-1.669,32.173,32.173,0,0,1,5.762-11.554q.491-.425.994-.82.273.31.577.664a4.85,4.85,0,0,1,1.159,1.872,7.852,7.852,0,0,0-1.314,2.726,13.278,13.278,0,0,0-1.009,2.988,27.871,27.871,0,0,0-.66,4.754A10.641,10.641,0,0,0,1540.6,586.282Zm-4.734,59.933a5.041,5.041,0,0,0-1.232-2.842,5.464,5.464,0,0,0-1.155-1.1,7.571,7.571,0,0,1-.98-.6q.01-.136.039-.33,1.269-.268,2.532-.553,1.471-.335,2.935-.694l.112-.029q4.054-.992,8.062-2.178,2.184-.649,4.356-1.368,5.967-1.97,11.816-4.453a122.949,122.949,0,0,0-.058-17.869,38.58,38.58,0,0,1,6.752-25.31,11.068,11.068,0,0,1,7.926-4.928,3.793,3.793,0,0,0,.422.4.227.227,0,0,0,.093.048,9.755,9.755,0,0,1,2.813,7.1l-.286-.029a9.3,9.3,0,0,0-5.7,1.251,10.837,10.837,0,0,0-2.076,1.717q-3.3,3.424-4.928,10.458-1.678,7.072-2.3,10.584a37.318,37.318,0,0,0-.32,4.22q-.068,2.823-.03,7.188a88.058,88.058,0,0,1-.106,10.244.525.525,0,0,1-.136.31q-.834,1.765-6.81,3.667-3.119,1-8.988,2.333-1.451.332-3.07.684l-2.144.407-.912.194Q1538.642,645.564,1535.863,646.215Z" transform="translate(-1308.791 -494.282)" fill="#2c73df" fill-rule="evenodd"/>
      <path id="Trazado_27703" data-name="Trazado 27703" d="M856.551,664.391l-2.745.1a6.727,6.727,0,0,0,.689-.961,3.878,3.878,0,0,0,.495-1.717q.087-.98.126-2.037a3.031,3.031,0,0,0-.621-1.853,4.886,4.886,0,0,0-2.488-1.824,4.111,4.111,0,0,1,2.4-.349,7.543,7.543,0,0,0,.98.6,5.46,5.46,0,0,1,1.154,1.1,5.04,5.04,0,0,1,1.232,2.842,7.975,7.975,0,0,1,.039,1.242A3.847,3.847,0,0,1,856.551,664.391Zm26.285-84.142q.359.13.722.276a7.725,7.725,0,0,1,2.047,2.076q.883,1.387-1.766,3.521-2.678,2.144-3.522,2.862-7.082,6.044-9.972,11.835-.32.7-.728,1.484v-.068a5.021,5.021,0,0,0-.408-2.26,1.572,1.572,0,0,1,.223-.543,3.156,3.156,0,0,0-.1-2.416,4.752,4.752,0,0,0-1.445-2.241,6.236,6.236,0,0,0-.747-.553,5.371,5.371,0,0,0-1.776-.737,18.772,18.772,0,0,0-.407,5.006,8.823,8.823,0,0,0-2.455,1.863,10.638,10.638,0,0,1-.815-4.754,27.9,27.9,0,0,1,.66-4.753,13.284,13.284,0,0,1,1.009-2.988,7.85,7.85,0,0,1,1.314-2.726.387.387,0,0,1,.015.048,4.256,4.256,0,0,0,1.586,1.479q1.254,4.384,2.7,4.894,2.571.854,3.9-.146,7.548-4,8.644-5.986A12.534,12.534,0,0,0,882.836,580.249ZM689.528,620.882q.136.2.281.407c.026.032.052.068.077.107a9.594,9.594,0,0,1,1.135,2.183,6.318,6.318,0,0,1,.592,2.125q.155,1.3.262,2.687-.659.4-1.339.834a.59.59,0,0,0-.068.039l-.058.039q-1.465.854-2.959,1.678-.921.543-1.862,1.135l-1.252.757a4.072,4.072,0,0,1-1.087.543,9.259,9.259,0,0,0-1.1.378,8.534,8.534,0,0,1-2.483.543l-1.028-.64q.679-.1,1.348-.233a2.739,2.739,0,0,0,1.591-.892l.2-.407a1.36,1.36,0,0,0-1.3-.553,14.4,14.4,0,0,0-3.25.679l-.272-.388-.184-.262a15.921,15.921,0,0,1-3.405.689,1.19,1.19,0,0,1-1.31-.873v-.922q.3.116.611.233a6.464,6.464,0,0,0,2.212.087,3.433,3.433,0,0,0,2.493-1.465q-.068-.34-.136-.669a2.613,2.613,0,0,0-.369-.446l-1.368.126a7.26,7.26,0,0,0,.767-.466l-.165.01q-.155,0-.378-.01a.857.857,0,0,0-.33.068q-1,.2-1.775.32a14.341,14.341,0,0,0-4.521,1.513,4.416,4.416,0,0,1-1.8.437q-.136-.116-.243-.2a2.008,2.008,0,0,1-.087-1.834,8.608,8.608,0,0,0,3.357-.611q1.3-.456,2.736-.98,1.057-.407,1.862-.805a1.928,1.928,0,0,0,1.125-1.106.873.873,0,0,0-.388-.33,2.571,2.571,0,0,0-1.775-.213,18.3,18.3,0,0,0-4.666,1.669q-.524.262-1.1.534l.019-.049q.175-.233.33-.456a27.533,27.533,0,0,1,2.445-2.4,4.818,4.818,0,0,1,1.833-.951q.97-.3,2.028-.66a14.853,14.853,0,0,1,1.814-.495,19.039,19.039,0,0,0,2.842-.951,18.538,18.538,0,0,0,2.076-1.067,2.686,2.686,0,0,0,1.057-1.281Q686.3,620.959,689.528,620.882Z" transform="translate(-630.701 -508.354)" fill="#f8f8ff" fill-rule="evenodd"/>
      <path id="Trazado_27704" data-name="Trazado 27704" d="M1546.6,646.62l-12.48-6.645q.591-.238,1.164-.49,5.888-2.581,7.809-9.633a102.764,102.764,0,0,0,2.833-13.533q1.417-10.574,3.085-21.177a41.648,41.648,0,0,1,4.744-13.785l.194.252a14.015,14.015,0,0,1,6.16-5.36,9.238,9.238,0,0,0,.048,1.12q-1.132.646-2.25,1.436a42.884,42.884,0,0,0-5.666,9.662q-3.647,8.6-2.61,22.157.029,1.164.844,9.7a45.554,45.554,0,0,1-2.076,17.9A53.527,53.527,0,0,0,1546.6,646.62Zm51.745-51.411a3.757,3.757,0,0,1-.422-.4A11.068,11.068,0,0,0,1590,599.74a38.58,38.58,0,0,0-6.752,25.31,122.949,122.949,0,0,1,.058,17.869q-5.849,2.483-11.816,4.453.519-1.446,1.106-2.726,3.463-7.518,5.985-22.283t15.609-31.752A19.656,19.656,0,0,1,1598.344,595.21Zm-29.118,70.3-1.222-.024q.237-2.778.573-5.307,8.984-1.13,17.879-2.736c.039-.065.071-.094.1-.087a18.561,18.561,0,0,0,6.718-2.488q.552,3.02,1,6.058l-.786.495a36.2,36.2,0,0,1-21.711,4.249,16.559,16.559,0,0,1-2.1-.155Z" transform="translate(-1329.746 -505.13)" fill="#0040a3" fill-rule="evenodd"/>
      <path id="Trazado_27705" data-name="Trazado 27705" d="M1610.8,655.6q-1.463.358-2.935.694l-9.425-5.02a53.528,53.528,0,0,1,1.8-8.4,45.551,45.551,0,0,0,2.076-17.9q-.815-8.537-.844-9.7-1.038-13.562,2.609-22.157a42.888,42.888,0,0,1,5.666-9.662q1.118-.789,2.251-1.436a.233.233,0,0,0,.019.078q.116.155.786.825.447.453,1.024,1.1-.5.394-.994.82a32.172,32.172,0,0,0-5.762,11.554,4.145,4.145,0,0,0,1.571,1.669,11.469,11.469,0,0,0,1.892.941l-3.4,4.656q.905,7.008,1.285,14.1.149,2.718.218,5.447a199.524,199.524,0,0,0-1.5,20.11,17.477,17.477,0,0,0,1.038,7.111,17.27,17.27,0,0,0,1.5,3.308q.252.378.534.883v.058a.376.376,0,0,0,.126.194Q1610.529,655.181,1610.8,655.6Zm35.229-60.336q-13.1,17-15.609,31.752t-5.985,22.283q-.588,1.281-1.106,2.726-2.171.719-4.356,1.368-4.007,1.186-8.062,2.178a3.646,3.646,0,0,0,1.756-2.333,1.191,1.191,0,0,0,.1-.223q.1-.378.194-.815a138.657,138.657,0,0,1,5.568-17.685q2.387-5.733,5.093-11.273a2.448,2.448,0,0,0,.223-.407q.349-.534.63-1.038l.407-.815a.374.374,0,0,1,.058-.194q.757-1.32,1.416-2.61a.882.882,0,0,1,.252-.378l1.135-2.018.1-.1a1.415,1.415,0,0,0,.185-.369q2.367-4.036,4.123-6.461a8.81,8.81,0,0,0-1.164-2.949q-1.387-2.551-1.475-2.833.029-.165.378-.417a1.362,1.362,0,0,1,.378-.184,20.38,20.38,0,0,1,5.656.728q.1-.378.223-.757a34.664,34.664,0,0,1,2.2-5.7,30.307,30.307,0,0,1,2.988-5,3.476,3.476,0,0,1,.475-.728,1.477,1.477,0,0,0,.126-.184q1.193,1.377,2.484,2.765a6.39,6.39,0,0,0,.815.854Zm-.917,64.255a18.565,18.565,0,0,1-6.718,2.488c-.026-.007-.058.023-.1.087q-8.9,1.606-17.879,2.736-.335,2.528-.572,5.306v.029q-.1,1.484-.1,3.279a103.286,103.286,0,0,0,1.572,18.122q.912,5.161,3.463,14.823,2.484,9.507,3.4,15.075.194,1.232.378,2.552a110.363,110.363,0,0,1,1.164,12.931v4.724a5.944,5.944,0,0,0-.088,1.067q-.09,2.152-.262,5.728-.015.295-.029.6-.087,2.047-.281,4.569a44.527,44.527,0,0,1-.465,4.656,31.337,31.337,0,0,1-.912,4.094,14.753,14.753,0,0,1-1.795,3.521q-.194-.058-.446-.155a5.411,5.411,0,0,1-2.639-1.892,3.935,3.935,0,0,1-.63-1.795,22.756,22.756,0,0,0,1.1-2.833,48.638,48.638,0,0,0,2.047-7.111v-.1q.416-2.051.689-3.992l.039-.286a62.5,62.5,0,0,0,.407-9.507,59.35,59.35,0,0,0-3.842-19.664q-.34-1.921-.941-4.278-.728-2.493-2.988-9.041-2.047-6.034-2.959-9.5-1.29-5.384-2.047-8.372a46.044,46.044,0,0,1-1.038-6.2q-.252-2.076-.66-5.539l-.407-8.5L1609.161,666l-.708-.073-1.014-.1a3.847,3.847,0,0,0,1.261-2.862,7.982,7.982,0,0,0-.039-1.242q2.779-.651,6.626-1.475l.912-.194,2.144-.407q1.62-.352,3.07-.684,5.869-1.338,8.988-2.333,5.976-1.9,6.81-3.667a.523.523,0,0,0,.136-.31,88.036,88.036,0,0,0,.107-10.244q-.039-4.366.029-7.188a37.308,37.308,0,0,1,.32-4.22q.621-3.512,2.3-10.584,1.629-7.033,4.928-10.458a10.832,10.832,0,0,1,2.076-1.717,9.3,9.3,0,0,1,5.7-1.252l.286.029a21.436,21.436,0,0,1,.291,4.734q-.165,2.134-.165,3.609-1.106,15.289-1.562,30.752Q1651.394,655.511,1645.114,659.521Zm-46.352,11.35,5.505-2.809q2.623,20.367,4.656,28.832,6.519,27.308,6.451,34.992.068,2.018-.563,10.477v.194q-.029,1.193-.126,2.58-.058,1.038-.155,2.076-.027.4-.053.815-.078,1.093-.17,2.241a33.835,33.835,0,0,1-4.967-1.479l-.349-.131a30.6,30.6,0,0,0,.563-3.677q.223-3.085.126-6.83-.563-7.052-.66-10.613a107.675,107.675,0,0,0-1.416-16.647q-1.261-7.489-3.677-16.336Q1601.942,689.438,1598.762,670.871Zm10.734-16.06v-.281q-.126,1.009-.029.534A.894.894,0,0,1,1609.5,654.811Z" transform="translate(-1381.59 -509.785)" fill="#0c55c6" fill-rule="evenodd"/>
      <path id="Trazado_27706" data-name="Trazado 27706" d="M1792.971,583.783l-.126-.1v-.1Q1792.912,583.686,1792.971,583.783Zm-4.152-7.276q-.281-.184-.6-.437v-.1Q1788.537,576.255,1788.818,576.508Z" transform="translate(-1534.545 -504.909)" fill="#f5f4f4" fill-rule="evenodd"/>
      <path id="Trazado_27707" data-name="Trazado 27707" d="M1692.316,654.964a7.364,7.364,0,0,1-2.018,1.6q.068-.476.068-.534a11.279,11.279,0,0,1-2.144-.378q-.075-.521-.116-1.053-.039-.554-.039-1.12a18.767,18.767,0,0,1,.407-5.006,5.369,5.369,0,0,1,1.775.737,6.237,6.237,0,0,1,.747.553,4.751,4.751,0,0,1,1.445,2.241,3.155,3.155,0,0,1,.1,2.416A1.572,1.572,0,0,0,1692.316,654.964Z" transform="translate(-1453.807 -563.342)" fill="#d61065" fill-rule="evenodd"/>
      <path id="Trazado_27708" data-name="Trazado 27708" d="M1054.93,688.437c-.081-.027-.164-.053-.247-.078q-.485-.184-1.94-.621a16.122,16.122,0,0,0-4.162-.669,41.852,41.852,0,0,0-9.323,1.523l-16.764-8.92-.854-1.606a2.709,2.709,0,0,0-.645-.815,2.373,2.373,0,0,0-.422-.281l-5.937-3.163.32-.165,1.135-.577,1.475,1.208a6.6,6.6,0,0,0,1.31.33.266.266,0,0,0,.165-.019l1.019.291a2.848,2.848,0,0,1,.33.019,1.937,1.937,0,0,1,.34-.029q.291.01.659.01l.33.039a.209.209,0,0,1,.126,0l.058-.019a.984.984,0,0,1,.136-.029,11.368,11.368,0,0,0,1.824-.514,3.078,3.078,0,0,0,.359-2.493,3.472,3.472,0,0,1,.369-2.581.4.4,0,0,0,.214.155,55.683,55.683,0,0,1,5.52,5.074q1.048,1.232,1.562,1.775a4.968,4.968,0,0,0,1.8,1.475,2,2,0,0,0,1.446.068l.048.048c-.006-.045.029-.081.107-.107l.136-.058a2.11,2.11,0,0,0,.359-.33,1.355,1.355,0,0,0,.1-.669q-.942-1.547-2.357-3.551l4.472,2.382,12.48,6.645,9.424,5.02q-1.263.285-2.532.553-.029.194-.039.33A4.112,4.112,0,0,0,1054.93,688.437Zm1.8,8.391,2.745-.1,1.014.1-4.186,2.139-5.505,2.809-12.442,6.349a1.794,1.794,0,0,1-.655.194,1.732,1.732,0,0,0-.082-.175l-4.322-8.135,3.439,1.829a.9.9,0,0,0,.854.107l4.579-2.333a1.1,1.1,0,0,0,.631.228,2.834,2.834,0,0,0,1.368-.524q1.241-.757,2.823-1.591a9.056,9.056,0,0,1-1.494,2.3,3.741,3.741,0,0,0-1.019,1.319,1.839,1.839,0,0,0-.136.757q.136.659,2.125.262a12.957,12.957,0,0,1,3.221-1.727,14.829,14.829,0,0,1,2.658-.97,9.043,9.043,0,0,0,3.269-1.678,4.3,4.3,0,0,0,.485-.485Q1056.449,697.156,1056.729,696.828ZM1038.579,678.2l-6.122,3.124q-.155.077-.019.155l8.595,4.569a.31.31,0,0,0,.291-.01l6.121-3.124q.146-.078.01-.146l-8.6-4.569A.273.273,0,0,0,1038.579,678.2Zm26.852-45.508a8.822,8.822,0,0,1,2.455-1.863q0,.566.039,1.12.04.532.116,1.053v.1a.366.366,0,0,0-.087.155q-.194.281-.446.6l-.378.689q-.184.281-.407.66-.127.083-.252.16a7.389,7.389,0,0,1-1.669.781Q1065.15,634.295,1065.431,632.694Zm7.111,1.95q-.5,1.251-1.038,2.707-.31-.631-.756-1.484t-.718-1.475a3.472,3.472,0,0,0,.087-.475,7.365,7.365,0,0,0,2.018-1.6,5.019,5.019,0,0,1,.408,2.26Zm-146.593,25.8a.433.433,0,0,1-.039-.194,27.542,27.542,0,0,0-2.008-8.673,49.716,49.716,0,0,0-4.812-9.061q-.233-.349-.427-.65l-.078-.155a.108.108,0,0,0-.019-.029l.378-2.833,3.279-1.038a1.781,1.781,0,0,0,.165-.446,4.466,4.466,0,0,0,.33-.815.168.168,0,0,1,.107-.165.2.2,0,0,1,.058-.165,23.852,23.852,0,0,0,1.125-4.007.028.028,0,0,0,.019-.01q2.231-1.29,2.328-4.821a13.292,13.292,0,0,0-1.9-7,5.36,5.36,0,0,1,1.572,2.755q.262,1.348.883,4.045a39.28,39.28,0,0,1,.728,4.2,53.857,53.857,0,0,0,.582,8.168,75.982,75.982,0,0,1,.689,7.906q0,.155-.34,6.781Q927.832,659.285,925.949,660.439Z" transform="translate(-833.625 -540.694)" fill="#abb1eb" fill-rule="evenodd"/>
      <path id="Trazado_27709" data-name="Trazado 27709" d="M1648.714,729.129q.068.757.068,1.572.1,1.348.184,4.656-.058.563-.155,1.038a1.2,1.2,0,0,1-.1.223,3.646,3.646,0,0,1-1.756,2.333l-.112.029q-.272-.421-.461-.723-.087-.165-.126-.252-.282-.5-.534-.883a17.274,17.274,0,0,1-1.5-3.308,17.481,17.481,0,0,1-1.038-7.111,199.521,199.521,0,0,1,1.5-20.11q.039-.446.1-.757a58.839,58.839,0,0,1,3.367-12.805q.115-.295.233-.587.715-1.516,1.4-3.046.453-.879.946-1.722.223-.378.407-.66l.378-.689q.253-.32.446-.6a.363.363,0,0,1,.087-.155v-.1a11.277,11.277,0,0,0,2.144.378q0,.058-.068.534a3.474,3.474,0,0,1-.088.475,33.055,33.055,0,0,1-1.64,5.976,37.529,37.529,0,0,0-1.921,6.9,63.144,63.144,0,0,0-1.979,15.415Q1648.4,719.932,1648.714,729.129Z" transform="translate(-1417.635 -593.163)" fill="#f963a7" fill-rule="evenodd"/>
      <path id="Trazado_27710" data-name="Trazado 27710" d="M1668.868,698.794c0-.041.01-.081.015-.121q.2-1.667.616-3.846a4,4,0,0,0,.029-.446,7.385,7.385,0,0,0,1.669-.781q.125-.077.252-.16-.493.843-.946,1.722-.687,1.531-1.4,3.046Q1668.983,698.5,1668.868,698.794Zm7.363-3.211q-.689,2.134-1.319,4.56-.853,3.269-1.765,8.5-.815,4.56-2.425,17.307-.126,1.135-.282,2.328c-.039,0-.058.013-.058.039q-.475,3.492-.951,6.577-.31-9.2-.213-13.979A63.139,63.139,0,0,1,1671.2,705.5a37.553,37.553,0,0,1,1.921-6.9,33.038,33.038,0,0,0,1.64-5.976q.281.63.718,1.475T1676.231,695.583Z" transform="translate(-1438.352 -598.926)" fill="#e8eaff" fill-rule="evenodd"/>
      <path id="Trazado_27711" data-name="Trazado 27711" d="M1663.614,1109.378a15.438,15.438,0,0,1-1.417,1.892,7.7,7.7,0,0,1-5.947,2.891,11.906,11.906,0,0,1-1.222-.126l-2.358-.378q-.1-.311-2.58-.534a14.757,14.757,0,0,0,1.795-3.521,31.333,31.333,0,0,0,.912-4.094,44.592,44.592,0,0,0,.465-4.657q.194-2.522.281-4.569.015-.3.029-.6.172-3.576.262-5.728a5.93,5.93,0,0,1,.088-1.067v-4.725a110.364,110.364,0,0,0-1.164-12.931q-.184-1.319-.378-2.552-.912-5.568-3.4-15.075-2.551-9.662-3.463-14.823a103.3,103.3,0,0,1-1.572-18.122q0-1.794.1-3.279.567,0,1.222,0l.446,0a16.564,16.564,0,0,0,2.1.155,36.2,36.2,0,0,0,21.711-4.249l.786-.466a95.547,95.547,0,0,1-1.572,17.025q-.854,5.695-1.319,10.07a75.515,75.515,0,0,0,.757,22.759q2.328,8.557.631,20.673-.476,3.337-1.795,10.225-.7,3.489-1.16,6.073-.438,2.455-.664,4.094A11.641,11.641,0,0,1,1663.614,1109.378Zm-13.368-14.416q-.152.132-.306.262a17.526,17.526,0,0,1-2.178,1.533,14.734,14.734,0,0,1-7.276,1.009q-1-.1-1.979-.281.092-1.148.17-2.241.027-.411.053-.815.1-1.038.155-2.076.1-1.387.126-2.58v-.194q.631-8.459.563-10.477.068-7.683-6.451-34.992-2.033-8.465-4.656-28.832l4.186-2.139.708.073,2.411,1.154.407,8.5q.408,3.463.66,5.539a46.088,46.088,0,0,0,1.038,6.2q.757,2.988,2.047,8.372.912,3.463,2.959,9.5,2.26,6.548,2.988,9.041.6,2.357.941,4.278a59.347,59.347,0,0,1,3.842,19.664A62.483,62.483,0,0,1,1650.246,1094.963Z" transform="translate(-1405.79 -857)" fill="#01317b" fill-rule="evenodd"/>
      <path id="Trazado_27712" data-name="Trazado 27712" d="M1659.244,956.475a.378.378,0,0,1-.126-.194v-.058Q1659.156,956.311,1659.244,956.475Z" transform="translate(-1430.493 -811.381)" fill="#eefcff" fill-rule="evenodd"/>
      <path id="Trazado_27713" data-name="Trazado 27713" d="M1590.037,1086.047a.9.9,0,0,1-.155-.5v-.912a2.209,2.209,0,0,0,1.513,1.232,12.265,12.265,0,0,0,1.955.558c.125.022.25.043.373.063a15.454,15.454,0,0,0,2.484.194h1.1a5.266,5.266,0,0,0,.625-.068,5.089,5.089,0,0,0,.539-.126q.378-.029.785-.088h.126a1.332,1.332,0,0,1,.446-.126,13.838,13.838,0,0,0,7.3-4.191q.252-.339.728-.97,1.193-1.736,3.619-5.452a37.348,37.348,0,0,1,4.782-6.2,5.9,5.9,0,0,0,1.009-1.5l.378-1.61a3.338,3.338,0,0,1,.437,1.795,23.473,23.473,0,0,1-.349,5.481,2.562,2.562,0,0,1-2.862,2.037,7.839,7.839,0,0,1-1.979-.369q-2.522,7.393-7.838,10.633-.327.2-.65.388a14.15,14.15,0,0,1-7.373,2.1,11.78,11.78,0,0,1-5.539-1.1A4.617,4.617,0,0,1,1590.037,1086.047Zm11.292-25.62a23.548,23.548,0,0,1-3.075.194q-1.417,0-1.669-.572a4.31,4.31,0,0,0,0-1.038q-2.988,0-10.6,4.065a16.608,16.608,0,0,1-3.366,1.63,20.522,20.522,0,0,1-4.6,1.106,9.543,9.543,0,0,1-4.656-.126q-1.571-.688-1.823-1.29-.224-.631-.32-.941,1.358.592,1.959.786h.873a16.775,16.775,0,0,0,5.695-1.038,34.72,34.72,0,0,0,5.539-2.522,2.493,2.493,0,0,1,.573-.281q5.248-2.988,7.363-3.929a16.368,16.368,0,0,1,5.976-1.174q3.715-.184,4.181-1.979A48.639,48.639,0,0,1,1601.329,1060.427ZM1587.554,956a.894.894,0,0,0-.029.252q-.1.476.029-.534Z" transform="translate(-1359.647 -810.978)" fill="#3c3b3b" fill-rule="evenodd"/>
      <path id="Trazado_27714" data-name="Trazado 27714" d="M1585.677,1421.924a30.631,30.631,0,0,1-.562,3.677l.349.131a33.827,33.827,0,0,0,4.967,1.479q.98.184,1.979.281a14.737,14.737,0,0,0,7.276-1.009,17.535,17.535,0,0,0,2.178-1.533l.306-.262c-.013.095-.026.19-.039.286q-.273,1.941-.689,3.992v.1q-.465,1.795-4.181,1.979a16.369,16.369,0,0,0-5.976,1.174q-2.115.941-7.363,3.929a2.461,2.461,0,0,0-.573.281,34.741,34.741,0,0,1-5.539,2.522,16.779,16.779,0,0,1-5.695,1.038h-.873q-.6-.194-1.96-.786a6.726,6.726,0,0,1-.466-3.056v-.378a6.55,6.55,0,0,1,.126-1.29,11.514,11.514,0,0,0,6.257,2.2q2.484-1.445,5.19-2.959a57.275,57.275,0,0,1,7.082-3.618l-.184-.223q-2.425-.281-4.472-3.2-.1-.14-.189-.276a14.592,14.592,0,0,1-1.227-2.149A31.561,31.561,0,0,1,1585.677,1421.924Zm2.27,38.455a3.1,3.1,0,0,1-.223-1.009,5.6,5.6,0,0,1,.66-2.92l.039-.165.058-.029a11.141,11.141,0,0,0,6.228,1.765q4.123,0,8.809-4.948,4-4.249,4-5.724,0-.66-.126-.562a.767.767,0,0,0-.156.252,6.6,6.6,0,0,1-7.46-.475,9.484,9.484,0,0,1-2.076-2.2q-.339-.5-.563-.854,1.038-1.474,1.795-2.707a5.409,5.409,0,0,0,2.639,1.892q.252.1.446.156,2.484.223,2.58.533l2.358.378a11.832,11.832,0,0,0,1.222.126,7.7,7.7,0,0,0,5.947-2.891,15.44,15.44,0,0,0,1.417-1.892,2.728,2.728,0,0,1,.1.5,5.934,5.934,0,0,0,.155.631v.562a.235.235,0,0,0,.039.1v.631l-.126.563-.378,1.61a5.9,5.9,0,0,1-1.009,1.5,37.359,37.359,0,0,0-4.782,6.2q-2.425,3.716-3.618,5.452-.475.631-.728.97a13.838,13.838,0,0,1-7.295,4.191,1.332,1.332,0,0,0-.446.126h-.126q-.408.059-.786.088a4.966,4.966,0,0,1-.539.126,5.2,5.2,0,0,1-.625.068h-1.1a15.453,15.453,0,0,1-2.483-.194c-.124-.02-.249-.041-.373-.063a12.243,12.243,0,0,1-1.955-.558A2.208,2.208,0,0,1,1587.948,1460.379Z" transform="translate(-1357.713 -1186.726)" fill="#333338" fill-rule="evenodd"/>
      <path id="Trazado_27715" data-name="Trazado 27715" d="M1581.923,1433.924a14.586,14.586,0,0,0,1.227,2.149q.092.136.189.276,2.047,2.92,4.472,3.2l.184.223a57.25,57.25,0,0,0-7.082,3.618q-2.707,1.514-5.19,2.959a11.515,11.515,0,0,1-6.257-2.2,6.74,6.74,0,0,1,.543-1.606,7.3,7.3,0,0,1,.931-1.45l9.439-6.2Q1581.2,1434.36,1581.923,1433.924Zm7.024,32.033a49.062,49.062,0,0,1,5.879-8.935q1.639-2.144,2.833-3.841.223.349.563.854a9.489,9.489,0,0,0,2.076,2.2,6.6,6.6,0,0,0,7.46.475.767.767,0,0,1,.156-.252q.126-.1.126.563,0,1.475-4,5.724-4.686,4.948-8.809,4.948a11.143,11.143,0,0,1-6.228-1.765Z" transform="translate(-1358.237 -1196.398)" fill="#4f5057" fill-rule="evenodd"/>
      <path id="Trazado_27716" data-name="Trazado 27716" d="M1539.419,535.787a4.854,4.854,0,0,0-1.159-1.872q-.3-.354-.577-.664-.577-.648-1.024-1.1-.669-.669-.785-.825a.234.234,0,0,1-.02-.078,9.187,9.187,0,0,1-.048-1.12q-.007-.934.024-2.6,0-.137,0-.281-.233-.5-1.135-2.784a16.724,16.724,0,0,1-.941-5.442,3.236,3.236,0,0,0,1.213,1.251,21.882,21.882,0,0,0,6.15,1.974,44.08,44.08,0,0,0,7.761.616,13.6,13.6,0,0,0,2-.136l.776,1.979v.078q.039.194.078.427.242,1.96,1.377,1.688a2.96,2.96,0,0,0,1.911-1.688,25.538,25.538,0,0,1,1.843-2.823q1.057-1.446,1.959-.543a1.633,1.633,0,0,1,.592,1.843q.053-.042.1-.087a3.89,3.89,0,0,1-1.043,2.513,16.5,16.5,0,0,1-1.164,1.179q-.888.785-.99.354a9.27,9.27,0,0,1-.2,1.615,7.446,7.446,0,0,1-.325,1.072,6.172,6.172,0,0,1-1.32,2.086,12.258,12.258,0,0,1-3.88,2.629,48.813,48.813,0,0,1-5.792,2.4,5.022,5.022,0,0,1-3.788-.131,4.257,4.257,0,0,1-1.586-1.479A.4.4,0,0,0,1539.419,535.787ZM1513.465,617.5a1.64,1.64,0,0,1-.437-1.019q0-.8,3.8-3.046a2.351,2.351,0,0,0,.262-.669q0-1.057-1.281-1.319a4.769,4.769,0,0,0-2.745.223,7.426,7.426,0,0,0-2.784,1.63,4.207,4.207,0,0,0-.66.844q-.349-1.019-.349-1.067a1.845,1.845,0,0,1,.126-.572q.486-.97,1.155-2.386a7.4,7.4,0,0,1,3.114-1.829,12.309,12.309,0,0,1,1.523-.383q-.31-.747-1.329-.572a7.165,7.165,0,0,0-1.266.383q-.532.2-1.247.5a21.856,21.856,0,0,1-7.383,1.95q0-1.417,6.81-3.182l.3-.078a41.855,41.855,0,0,1,9.323-1.523,16.121,16.121,0,0,1,4.162.669q1.455.437,1.94.621c.017.059.035.117.053.175q.231.787.432,1.5a6.331,6.331,0,0,1-.087,3.619q-.195.588-.442,1.144a12.636,12.636,0,0,1-3.177,4.346q-.582.126-1.193.3a14.526,14.526,0,0,0-5.927,2.658,1.839,1.839,0,0,1,.136-.757,3.743,3.743,0,0,1,1.019-1.319,9.054,9.054,0,0,0,1.494-2.3,2.3,2.3,0,0,1,.311-.446.949.949,0,0,0-.034-.267q-.325-1.143-3.846,1.023Q1514.347,616.878,1513.465,617.5Z" transform="translate(-1305.445 -459.008)" fill="#ffaa83" fill-rule="evenodd"/>
      <path id="Trazado_27717" data-name="Trazado 27717" d="M1548.291,503.145q.271.31,1.649,2.513a9.171,9.171,0,0,1,.485.815l.058.116.4,1.009a13.605,13.605,0,0,1-2,.136,44.071,44.071,0,0,1-7.761-.616,21.881,21.881,0,0,1-6.15-1.974,3.236,3.236,0,0,1-1.213-1.251,16.931,16.931,0,0,1,.393-3.643,21.216,21.216,0,0,0,2.188,1.13q.786.31,1.649.592a19,19,0,0,0,2.979.7q.582.087,1.174.165a10.918,10.918,0,0,0,1.135.116h.116l.786.039q.631.039,1.446.039.553,0,1.183.039h1.446ZM1528.55,600.01q-.28.328-.631.679a4.3,4.3,0,0,1-.485.485,9.044,9.044,0,0,1-3.269,1.678,14.836,14.836,0,0,0-2.658.97,12.957,12.957,0,0,0-3.221,1.727q-1.989.4-2.125-.262a14.526,14.526,0,0,1,5.927-2.658q.611-.175,1.193-.3a12.636,12.636,0,0,0,3.177-4.346q.247-.557.442-1.144a6.331,6.331,0,0,0,.087-3.619q-.2-.716-.432-1.5c-.018-.058-.036-.116-.053-.175.083.025.166.051.247.078a4.886,4.886,0,0,1,2.488,1.824,3.03,3.03,0,0,1,.621,1.853q-.039,1.058-.126,2.037a3.876,3.876,0,0,1-.495,1.717A6.708,6.708,0,0,1,1528.55,600.01Zm-18-5.025a15.424,15.424,0,0,0-3.357.883,4.265,4.265,0,0,1-1.727.446,1.529,1.529,0,0,1-.97-.31,1.043,1.043,0,0,1-.534-.97,21.853,21.853,0,0,0,7.383-1.95q.715-.3,1.247-.5a7.172,7.172,0,0,1,1.266-.383q1.018-.174,1.329.572a12.319,12.319,0,0,0-1.523.383A7.4,7.4,0,0,0,1510.554,594.985Zm-.931,4.026a4.205,4.205,0,0,1,.66-.844,7.427,7.427,0,0,1,2.784-1.63,4.77,4.77,0,0,1,2.745-.223q1.281.262,1.281,1.319a2.351,2.351,0,0,1-.262.669,3.249,3.249,0,0,0-.844-1.019.985.985,0,0,0-.621-.175,3.866,3.866,0,0,0-1.9.349,3.76,3.76,0,0,0-.8.757,7.148,7.148,0,0,0-.883,1.106,6.048,6.048,0,0,1-.611.747,2.139,2.139,0,0,1-.893-.136.922.922,0,0,1-.524-.611Q1509.671,599.136,1509.623,599.01Zm9.187,1.9q-1.581.834-2.823,1.591a2.834,2.834,0,0,1-1.368.524,1.1,1.1,0,0,1-.631-.228,2.473,2.473,0,0,1-.388-.344.447.447,0,0,1-.136-.087q.883-.621,1.775-1.145,3.522-2.166,3.846-1.023a.949.949,0,0,1,.034.267A2.3,2.3,0,0,0,1518.81,600.912Z" transform="translate(-1305.445 -443.876)" fill="#ed9870" fill-rule="evenodd"/>
      <path id="Trazado_27718" data-name="Trazado 27718" d="M1711.531,563.982q.016.522-.014,1.028c0,.083-.01.165-.015.247a12.536,12.536,0,0,1-1.315,5.176q-1.1,1.989-8.644,5.985-1.329,1-3.9.146-1.448-.51-2.7-4.894a5.022,5.022,0,0,0,3.788.131,48.8,48.8,0,0,0,5.792-2.4,12.26,12.26,0,0,0,3.88-2.629,6.177,6.177,0,0,0,1.32-2.086,7.472,7.472,0,0,0,.325-1.072,9.281,9.281,0,0,0,.2-1.615q.1.431.99-.354A13.485,13.485,0,0,1,1711.531,563.982Z" transform="translate(-1459.367 -493.363)" fill="#de814e" fill-rule="evenodd"/>
      <path id="Trazado_27719" data-name="Trazado 27719" d="M1636.175,427.256l1.921,1.6a21.5,21.5,0,0,0,4.186,2.551,19.831,19.831,0,0,0,8.386,1.8,22.716,22.716,0,0,0,9.207-1.717q.706-.311,1.368-.679,3.88-2.154,3.88-4.657a23.545,23.545,0,0,0-.708-3.609q-.233-.98-.388-1.727a4.273,4.273,0,0,0,.514.437,14.154,14.154,0,0,1,4.656,7.6l.131.543q.034.16.063.32v.039c.026,0,.039.026.039.078a22.008,22.008,0,0,1-3.017,3.648,14.167,14.167,0,0,1-3.861,2.838q-.718.376-1.523.728a38.856,38.856,0,0,1-6.441,2.081l-.039-.078H1653.1q-.631-.039-1.183-.039-.815,0-1.446-.039l-.786-.039h-.116a10.9,10.9,0,0,1-1.135-.116q-.592-.078-1.174-.165a19,19,0,0,1-2.978-.7q-.864-.281-1.649-.592a21.2,21.2,0,0,1-2.187-1.13,8.661,8.661,0,0,1-4.041-4.273A6.753,6.753,0,0,1,1636.175,427.256Zm29.642,17.2q-.049.045-.1.087a1.633,1.633,0,0,0-.592-1.843q-.9-.9-1.959.543a25.585,25.585,0,0,0-1.843,2.823,2.96,2.96,0,0,1-1.911,1.688q-1.135.271-1.377-1.688-.039-.233-.078-.427v-.078l-.776-1.979-.4-1.009-.058-.116-.175-.349q1.15-.258,5.117-1.717l.442-.165q.754-.284,1.421-.582a10.347,10.347,0,0,0,4.419-3.182,13.686,13.686,0,0,0,1.8-3.6v.7l-.475,4.472-.039.078q-.078.388-.155.786A12.354,12.354,0,0,1,1665.816,444.456Z" transform="translate(-1411.741 -379.861)" fill="#452312" fill-rule="evenodd"/>
      <path id="Trazado_27720" data-name="Trazado 27720" d="M1665.369,405.743q.155.747.388,1.727a23.561,23.561,0,0,1,.708,3.609q0,2.5-3.88,4.657-.661.368-1.368.679a22.716,22.716,0,0,1-9.207,1.717,19.833,19.833,0,0,1-8.386-1.8,21.492,21.492,0,0,1-4.186-2.551l-1.921-1.6.155-.31q1.018-1.969,3.919-1.261a3.417,3.417,0,0,0,1.572-.31,7.22,7.22,0,0,0,2.231-1.882q.427-.514,1.174-1.407a21.572,21.572,0,0,1,1.843-1.649q7.6-6.238,15.9-.475Q1664.864,405.316,1665.369,405.743Zm5.4,9.012a18.311,18.311,0,0,1,.32,3.027,13.689,13.689,0,0,1-1.8,3.6,10.345,10.345,0,0,1-4.419,3.182q-.667.3-1.421.582l-.442.165q-3.968,1.459-5.117,1.717l.175.349a9.1,9.1,0,0,0-.485-.815q-1.378-2.2-1.649-2.513a38.85,38.85,0,0,0,6.441-2.081q.805-.352,1.523-.728a14.163,14.163,0,0,0,3.861-2.838A22.009,22.009,0,0,0,1670.772,414.755Z" transform="translate(-1413.083 -364.78)" fill="#7a3a1e" fill-rule="evenodd"/>
      <path id="Trazado_27721" data-name="Trazado 27721" d="M903.786,451.759a2.63,2.63,0,0,1-1.009-.2.433.433,0,0,1-.049-.019,2.9,2.9,0,0,1-1.639-2.241,5.463,5.463,0,0,1,.136-2.91q.1-.32.233-.65a5.881,5.881,0,0,1,2.26-2.784,2.96,2.96,0,0,1,2.794-.4,2.338,2.338,0,0,1,.223.107,3.02,3.02,0,0,1,1.465,2.154c.026.116.049.236.068.359a5.89,5.89,0,0,0-4.559,3.347q-.019.427-.049.883Q903.718,450.769,903.786,451.759Zm-28.143-20.877a11.542,11.542,0,0,0-.854,1.63,9.566,9.566,0,0,0-.572,4.462l-4.327-4.094q.155-.33.281-.592a13.7,13.7,0,0,1,2.677-3.735,12.819,12.819,0,0,1,7.742-3.657l1.125,1.213a7.819,7.819,0,0,0-2.173,1.057A12.441,12.441,0,0,0,875.643,430.882ZM806.756,407.5a30.142,30.142,0,0,1,3.036-2.91q.844-.738,1.727-1.465,2.93-1,5.937-1.814a33.343,33.343,0,0,0,8.731-4.036q.495-.33.98-.669l.039-.039a16.77,16.77,0,0,0,7.547,2.357q4.356,0,5.394-2.474.029-.407.058-.747a13.992,13.992,0,0,0,3.521.611q.155.01.31.01a3.4,3.4,0,0,0-1.892,1.824,4.993,4.993,0,0,1-1.824,2.173,4.124,4.124,0,0,1-2.833.485,2.457,2.457,0,0,1-1.193-.378,5.009,5.009,0,0,0-4.938-.543q-1.31.524-2.58,1.125-1.834.863-3.58,1.882a24.055,24.055,0,0,1-5.859,2.386l-3.269.621a1.269,1.269,0,0,0-.31.039h-.116a13.91,13.91,0,0,1,4.433,4.841c.032.052.062.1.087.155a13.293,13.293,0,0,1,1.9,7q-.1,3.531-2.328,4.821a.028.028,0,0,1-.019.01,16.106,16.106,0,0,0-.631-8.537,17.215,17.215,0,0,0-2.794-4.909,23.34,23.34,0,0,0-3.143-3.23,1.156,1.156,0,0,1-.087-.078,7.143,7.143,0,0,0-5.074.631A7.263,7.263,0,0,0,806.756,407.5Zm55.238,60.515a12.13,12.13,0,0,1,.165,2.707,26.049,26.049,0,0,1-9.439,17.879q-3.376,2.493-5.733,1.688l5.8-4.327a.3.3,0,0,0,.039-.048l.369-.466q.737-.951,1.484-2.037,6.1-8.712,6.49-16.666.02-.407.019-.805A5.594,5.594,0,0,1,861.994,468.018Zm-1.242,47.273a6.779,6.779,0,0,1,1.611,4.822,22.225,22.225,0,0,1-1.688,6.9q-1.649,4.171-4.074,5.442a4.859,4.859,0,0,1-2.532.543,6.417,6.417,0,0,1-4.987-2.28,11,11,0,0,1-1.154-.262,8.847,8.847,0,0,1-5.413-4.22q-.136-.242-.262-.485a8.717,8.717,0,0,1-.96-4.792,5.176,5.176,0,0,0,.834,1.61q1.64,2.144,5.374,2.522.32-6.393,2.755-9.681a6.183,6.183,0,0,1,5.18-2.755,6.626,6.626,0,0,1,4.9,2.183Q860.548,515.058,860.752,515.291Zm-38.736-41.685a3.423,3.423,0,0,1,.65-.786,3.511,3.511,0,0,1,1.639-.834,7.817,7.817,0,0,1,4.608.708,25.224,25.224,0,0,1,13.126,14.581q.97,3.337.01,5.209a3.737,3.737,0,0,1-.514.747,4.014,4.014,0,0,1-.873.7,8.384,8.384,0,0,0,.165-1.465q0-3.444-3.221-8.12a23.772,23.772,0,0,0-8.217-7.605q-1.339-.98-2.5-1.669A8.9,8.9,0,0,0,822.016,473.606ZM929,490.577l4.322,8.135a1.777,1.777,0,0,1,.082.175q.23.528-.354.223L905.42,484.4l-15.565-8.29a2.535,2.535,0,0,1-1.067-1.1L872.81,444.929q-.4-.747.272-.4l37.262,19.839,5.937,3.163a2.368,2.368,0,0,1,.422.281,2.708,2.708,0,0,1,.645.815l.854,1.605ZM829.689,383.764a2.326,2.326,0,0,1-1.329.8,2.826,2.826,0,0,1-2.648-1.116,8.093,8.093,0,0,1-1.523-7.586,2.852,2.852,0,0,1,2.028-2.047,2.667,2.667,0,0,1,2.4.854q.126.116.252.252a7.959,7.959,0,0,1,1.523,7.586A4.161,4.161,0,0,1,829.689,383.764Zm15.851,12.272a4.276,4.276,0,0,0,1.756-1.6q.281-.446.543-.9a20.843,20.843,0,0,0,3.919-.572,22.6,22.6,0,0,0,2.183-.64.214.214,0,0,1,.068-.029l.058.039a7.24,7.24,0,0,1,3.948,2.028,23.729,23.729,0,0,1,7.286,16.928q-.019.4-.049.766a43.615,43.615,0,0,0-8.353-17.675q-3.424.863-6.771,1.426-.99.165-1.969.31a9.733,9.733,0,0,1-2.939.039A2.707,2.707,0,0,0,845.541,396.036Zm-19.082-25.291a9.131,9.131,0,0,1,2.92-6.733q5.423-5.161,12.029-2.7-5.85.233-9.07,2.134a13.411,13.411,0,0,0-3.832,3.793A20.729,20.729,0,0,0,826.459,370.745Zm2.8,10.894a5.452,5.452,0,0,0,.165-3,5.516,5.516,0,0,0-1.31-2.707,1.932,1.932,0,0,0-3.521.7,6.059,6.059,0,0,0,1.145,5.7,1.933,1.933,0,0,0,3.521-.7ZM795.192,442.9l.039.019a5.038,5.038,0,0,1,2.435,3.289,5.4,5.4,0,0,1-.592,4.152,6.134,6.134,0,0,1-.6.873,5.449,5.449,0,0,1-2.707,1.717,5.035,5.035,0,0,1-4.065-.475,6.337,6.337,0,0,1-.534-.349q.679-.437,1.339-.834.369-.311.805-.621a2.546,2.546,0,0,1,.553-.378,12.568,12.568,0,0,1,1.96-1.3,7.1,7.1,0,0,0,1.4-6.015A.406.406,0,0,1,795.192,442.9Zm13.145,3.405a8.837,8.837,0,0,1,3.357,3.386,9.454,9.454,0,0,1,1.028,2.542,8.921,8.921,0,0,1-.058,4.249,9.043,9.043,0,0,1-1.116,2.668,7.881,7.881,0,0,0,.155-5.345q-1.455-5.569-3.124-6.471a22.334,22.334,0,0,0-6.034-2.144,8.525,8.525,0,0,1,3.735.262A9.418,9.418,0,0,1,808.337,446.307Zm3.7,78.966A17.432,17.432,0,0,1,813.6,517.9a10.483,10.483,0,0,1,1.164-1.853,7.809,7.809,0,0,1,6.073-3.056,8.918,8.918,0,0,1,6.034,1.969,6.483,6.483,0,0,1,2.745,5.229,16.132,16.132,0,0,1-.718,4.472q-.368,1.232-.912,2.58A12.126,12.126,0,0,1,824.839,532a6.664,6.664,0,0,1-4.443,1.62q-5.355,0-7.392-3.7a8.075,8.075,0,0,1-.883-2.61,8.607,8.607,0,0,1-.1-1.29Q812.023,525.642,812.033,525.273Zm43.781-9.692a4.285,4.285,0,0,0-1.591.272A4.921,4.921,0,0,0,852,517.6a12.213,12.213,0,0,0-2.008,6.393q-.029.378-.048.766-.01.194-.01.388,0,.272.019.543a6.552,6.552,0,0,0,.437,1.931,4.356,4.356,0,0,0,2.891,2.687,6.087,6.087,0,0,0,1.484.243,3.989,3.989,0,0,0,.737-.029q2.542-.378,4.133-4.365a16.4,16.4,0,0,0,1.261-5.073,4.985,4.985,0,0,0-1.213-3.6q-.126-.146-.262-.281A4.872,4.872,0,0,0,855.814,515.582Zm-15.5,50.445a7.526,7.526,0,0,1,.2-2.027,7.06,7.06,0,0,1,.233-.737,5.2,5.2,0,0,1,.378-.757q.029.417.058.854.01.194.029.379a3.612,3.612,0,0,0,3.861,3.589h.311a3.83,3.83,0,0,0,4.123-3.153q.165-.728.378-1.552.078.194.146.407a11.542,11.542,0,0,1,.32,4.2q-.01.068-.019.146-.359,4.133-3.25,5.015-3.085.941-4.9-.825a4.607,4.607,0,0,1-.97-1.358,4.864,4.864,0,0,1-.291-.718A12.749,12.749,0,0,1,840.312,566.027Zm-4.317,5.278a6.853,6.853,0,0,0,1.145,2.454q2.2,2.891,7.7,3.939,3.008.533,4.472.883a15.2,15.2,0,0,1,4.161,1.542,41.71,41.71,0,0,0,7.431,3.657,18.95,18.95,0,0,0,8.168,1.048,2.663,2.663,0,0,0,1.737-.893,6.1,6.1,0,0,0,.825-1.048q.039.31.058.64a7.668,7.668,0,0,1-1.193,1.7,2.664,2.664,0,0,1-1.736.892,18.958,18.958,0,0,1-8.169-1.048,41.724,41.724,0,0,1-7.431-3.657A15.19,15.19,0,0,0,849,579.871q-1.465-.349-4.472-.883-5.5-1.048-7.7-3.939a6.713,6.713,0,0,1-1.154-2.5A1.975,1.975,0,0,1,835.995,571.3Zm-8.653-45.837a11.807,11.807,0,0,0,.514-3.24,4.715,4.715,0,0,0-2-3.8q-.136-.107-.272-.2A6.408,6.408,0,0,0,821.472,517a5.7,5.7,0,0,0-2.648.708,5.9,5.9,0,0,0-1.766,1.513,8.088,8.088,0,0,0-1.368,2.648,14.015,14.015,0,0,0-.6,3.522q-.029.524-.029,1.077a6.662,6.662,0,0,0,.068.941,5.889,5.889,0,0,0,.64,1.9Q817.252,532,821.152,532a4.847,4.847,0,0,0,3.172-1.125,8.736,8.736,0,0,0,2.348-3.512Q827.07,526.37,827.341,525.467Zm-20.751,51.561q-.175.368-.359.689a4.136,4.136,0,0,1-3.676,2.406,5.465,5.465,0,0,1-2.59-.553,3.634,3.634,0,0,1-1.523-1.5,4.55,4.55,0,0,1-.495-1.455,4.455,4.455,0,0,1-.058-.718q0-.155.01-.311a11.984,11.984,0,0,1,.291-2.58,6.738,6.738,0,0,1,1.232-2.668,4.6,4.6,0,0,1,1.242-1.1q.029,1.1.068,2.183a5.363,5.363,0,0,0,2.125,1.688,4.231,4.231,0,0,0,.65.252,3.694,3.694,0,0,0,.543.136,4.284,4.284,0,0,0,3.163-.689q.242-.175.475-.359v.194a10.816,10.816,0,0,1-.9,3.929Q806.688,576.805,806.591,577.029Zm-.01,2.6q.175-.068.359-.136l-.078.582a50.645,50.645,0,0,0-.776,8.712,30.745,30.745,0,0,1-1.232,8.6,12.819,12.819,0,0,1-1.765,3.085,3.269,3.269,0,0,1-3.124,1.232A12.923,12.923,0,0,1,794,598.73a9.347,9.347,0,0,1-3.163-5.782q.068-.533.175-1.106A9.485,9.485,0,0,0,794,596.7a12.92,12.92,0,0,0,5.966,2.968,3.269,3.269,0,0,0,3.124-1.232,12.827,12.827,0,0,0,1.765-3.085,30.746,30.746,0,0,0,1.232-8.6Q806.232,582.18,806.581,579.628Z" transform="translate(-729.332 -331.257)" fill="#6a6adc" fill-rule="evenodd"/>
      <path id="Trazado_27722" data-name="Trazado 27722" d="M1470.3,918.263a.274.274,0,0,1,.281,0l8.6,4.569c.091.045.087.094-.01.146l-6.121,3.124a.31.31,0,0,1-.291.01l-8.6-4.569q-.135-.078.019-.155Zm6.432,16.919q-3.8,2.251-3.8,3.046a1.64,1.64,0,0,0,.437,1.019.449.449,0,0,0,.136.087,2.464,2.464,0,0,0,.388.344l-4.579,2.333a.9.9,0,0,1-.854-.107l-3.439-1.829-10.8-20.343,16.763,8.92-.3.078q-6.81,1.766-6.81,3.182a1.043,1.043,0,0,0,.534.97,1.529,1.529,0,0,0,.97.311,4.268,4.268,0,0,0,1.727-.446,15.412,15.412,0,0,1,3.356-.883q-.669,1.416-1.155,2.386a1.849,1.849,0,0,0-.126.572q0,.049.349,1.067.048.126.136.31a.923.923,0,0,0,.524.611,2.138,2.138,0,0,0,.893.136,6.065,6.065,0,0,0,.611-.747,7.157,7.157,0,0,1,.883-1.106,3.759,3.759,0,0,1,.8-.757,3.866,3.866,0,0,1,1.9-.349.985.985,0,0,1,.621.175A3.249,3.249,0,0,1,1476.733,935.181Z" transform="translate(-1265.348 -780.755)" fill="#4c4cc2" fill-rule="evenodd"/>
      <path id="Trazado_27723" data-name="Trazado 27723" d="M799.106,459.431q-2.173-1.329-4.86-2.881-7.363-4.191-15.939-8.973a24.917,24.917,0,0,0-4.783-3.648,12.441,12.441,0,0,1,3.9-3.715,7.819,7.819,0,0,1,2.173-1.057,3.073,3.073,0,0,1,.553-.184.318.318,0,0,1,.107.1l24.437,16.579a.3.3,0,0,0-.077.058,2.331,2.331,0,0,0-.223-.107,2.96,2.96,0,0,0-2.794.4,5.881,5.881,0,0,0-2.26,2.784Q799.2,459.111,799.106,459.431Zm-57.188-50.057a3.908,3.908,0,0,0,1.184-.175,9.734,9.734,0,0,0,2.939-.039q.98-.146,1.969-.31,3.347-.563,6.771-1.426a43.614,43.614,0,0,1,8.353,17.675,33.016,33.016,0,0,1,.621,7.383q-.136,4.821-.679,9.565a108.5,108.5,0,0,1-2.1,12.058q-5.316-4.133-14.94-4.133a15.963,15.963,0,0,0-6.626,1.242,14.83,14.83,0,0,1-3.318,1.193q-5.772,0-9.4-7.208a39.314,39.314,0,0,1-3.424-11.719,38.853,38.853,0,0,0-2.5-9.332,22.473,22.473,0,0,0-3.085-5.937,3.067,3.067,0,0,1-.466.116,24.054,24.054,0,0,0,5.859-2.386q1.746-1.019,3.58-1.882,1.271-.6,2.58-1.125a5.009,5.009,0,0,1,4.938.543,2.456,2.456,0,0,0,1.193.378,4.124,4.124,0,0,0,2.833-.485,4.993,4.993,0,0,0,1.824-2.173A3.4,3.4,0,0,1,741.919,409.374Zm-37.281,11.176a7.266,7.266,0,0,1,1.232-.854,7.143,7.143,0,0,1,5.074-.631,1.168,1.168,0,0,0,.087.078,23.337,23.337,0,0,1,3.143,3.23,17.218,17.218,0,0,1,2.794,4.909,17.223,17.223,0,0,0-3.444,3.269q-.3.349-.611.728-1.183,1.523-2.222,3.124a44.818,44.818,0,0,0-2.348,4.084q-.33.63-.631,1.281a20.846,20.846,0,0,0-2.406,8.653q0,.388.378,7.838.272,1.659.534,3.095a9.419,9.419,0,0,0-2.057-.854,8.525,8.525,0,0,0-3.735-.262,22.332,22.332,0,0,1,6.034,2.144q1.669.9,3.124,6.471a7.88,7.88,0,0,1-.155,5.345.009.009,0,0,0-.01.01,12.587,12.587,0,0,1-4.986-1.436q-1.29-1.116-2.076-1.707a11.6,11.6,0,0,0-3.657-1.892q-2.658-1.8-4.346-2.891a6.131,6.131,0,0,0,.6-.873,5.4,5.4,0,0,0,.592-4.152,5.038,5.038,0,0,0-2.435-3.289l-.039-.019q-.126-.272-.252-.514l3.23,1.785a155.459,155.459,0,0,1,2.513-22.274Q700.437,424.051,704.637,420.549Zm42.18-16.172a22.509,22.509,0,0,1-1.1,2.2q-.262.456-.543.9a4.277,4.277,0,0,1-1.756,1.6,4.757,4.757,0,0,0-.679-.184q-.213-.078-.437-.146a15.865,15.865,0,0,1-3.851-2.076,16.26,16.26,0,0,1-4.889-5.918,25.31,25.31,0,0,1-2.028-5.724,32.418,32.418,0,0,1-.407-13.766q.34-.786.65-1.445-.145.1-.31.213a16.5,16.5,0,0,1,12.379-3.114l.252.039q.407.213.864.456.281.126.553.262a6.638,6.638,0,0,1,2.765,3.017,16.1,16.1,0,0,1,1.261,4.327,32.792,32.792,0,0,1,.359,4q.049,1.639,0,3.327,0-.485-.01-.931a4.911,4.911,0,0,1-.6.078l-.01.039-1.417.01q-.533-.01-1.242-.029-1.756-.058-4.579-.233-5.384-.281-6.606.407a6.938,6.938,0,0,0,.834,1.135,2.614,2.614,0,0,0,.592.437,32.324,32.324,0,0,0,7.984,1.591q1.242.1,2.542.107,1.106-.02,2.3-.068l.058-.388a25,25,0,0,1-.592,3.056q-.271,1.048-.631,2.105-.63,1.863-1.3,3.716Q747.031,403.883,746.817,404.378Zm31.655,33.566a12.819,12.819,0,0,0-7.742,3.657q-.747-1.271-1.9-3.056-4.715-8.042-4.434-25.087a50.113,50.113,0,0,1,6.994,10.555,138.542,138.542,0,0,0,8.042,13.8Q778.967,437.866,778.472,437.943Zm27.958,33.294q-.533-.359-1.465-.922-.563-.359-1.009-.669-.184-1.358-.31-2.92a17.581,17.581,0,0,1,.077-2.7,5.384,5.384,0,0,1,2.435-4.278c.039-.026.074-.052.107-.078a14.9,14.9,0,0,0,1.62,1.077q.417.776,1.242,2.066.378.592.7,1.077a8.084,8.084,0,0,0,1.931,2.338,4.306,4.306,0,0,0,3.162.1,3.319,3.319,0,0,1,1.61-.184,47.762,47.762,0,0,1,8.149,8.547q.174.21.859,1.237.959,1.437,2.915,4.467a2.362,2.362,0,0,1,.213.262q-2.028-1.009-7.12-6.16-.8-.8-1.5-1.494a46.986,46.986,0,0,0-5.035-4.6,4.5,4.5,0,0,1-.621.417,38.337,38.337,0,0,0-1.591,6.262q-.031.188-.058.373l-.495.96a1.286,1.286,0,0,1-.747-.175,1.129,1.129,0,0,1-.383-.3q-.774-.921-.422-3.91.349-3.618-.5-4.026a5.451,5.451,0,0,1-.553-.33,7.787,7.787,0,0,1-2.386-2.978q-.776-1.62-1.125-1.1a5.8,5.8,0,0,0-.087,2.474q.126,1.426.34,2.784A9.016,9.016,0,0,1,806.43,471.237ZM751.076,498.5q.107-.155.213-.3c-.071.006-.142.016-.213.029q-2.542.32-2.988.32-.3,0-.6-.019a9.639,9.639,0,0,1-1.746-.281,12.954,12.954,0,0,1-3.725-1.678,22.923,22.923,0,0,1-4.055-3.415q-.077-.087-.155-.165-2.5-2.668-4.851-5.695-7.208-3.512-11.408-3.706a8.173,8.173,0,0,1-.611-2.93q0-1.775,2.988-4.036-.106,1.125-.3,2.3.039,1.281.184,2.474v.039a1.342,1.342,0,0,0,.854,1.154.977.977,0,0,1,.233.116,75.033,75.033,0,0,0,7.2,2.736,23.617,23.617,0,0,0,9.478,1,1.27,1.27,0,0,1,.31-.039h.349A45.18,45.18,0,0,0,749,484.819q.349-.116.7-.223,1.271-.427,2.5-.931a8.329,8.329,0,0,0,2.581-1.542.44.44,0,0,1,.155-.155,7.611,7.611,0,0,0,1.038-1.271.3.3,0,0,1,.039-.116,2.93,2.93,0,0,0,.388-1.31v-.078q.185-2.842.242-5.685a5.3,5.3,0,0,1,.427.33,6,6,0,0,1,2,4.9v.252q0,.4-.019.805-.388,7.955-6.49,16.666Q751.814,497.546,751.076,498.5Zm8.886,26.309q-3.735-3.978-9.594-2.173a8.874,8.874,0,0,1-.078-1.407A50.171,50.171,0,0,1,752,506.762a25.454,25.454,0,0,1,3.725-7.353,35.424,35.424,0,0,0,3.735-5.937,25.558,25.558,0,0,0,1.737-10,18.617,18.617,0,0,1,1.7,5.141q.223,1.194.582,6.16.33,4.676.33,5.763,0,2.212-.4,6.49a91.364,91.364,0,0,1-2.066,12.854Q760.719,522.526,759.962,524.806Zm-11.816,49.33q-.2.805-.378,1.533-.213.825-.378,1.552a3.83,3.83,0,0,1-4.123,3.153,40.092,40.092,0,0,0-1.115-4.763q-.252-.97-.573-2.115-.495-1.785-1.125-4.026-.252-.863-.476-1.678-2.376-8.4-2.377-11.04a13.938,13.938,0,0,1,1.155-4.9q1.62-4.123,4.433-4.123a15.6,15.6,0,0,1,3.269.728,19.788,19.788,0,0,0,2.93.66,26.415,26.415,0,0,0,4.928-.388.966.966,0,0,1,.078-.378q-.417,2.231-1.494,6.858-.621,2.639-1.193,5.045-1.087,4.492-2.047,8.139Q748.777,571.662,748.147,574.136Zm-21-179.45a1.933,1.933,0,0,1-3.521.7,6.06,6.06,0,0,1-1.145-5.7,1.933,1.933,0,0,1,3.522-.7,5.516,5.516,0,0,1,1.31,2.707A5.452,5.452,0,0,1,727.144,394.686ZM678.532,453.61q-1.067-.223-2.1-.446-.65-.146-1.281-.281a14.783,14.783,0,0,1-2.251-.611,4.046,4.046,0,0,1-.96-.359l-.645-.7,1.474-.635q.95.144,1.984.247,1,.077,1.94.233.64.107,1.252.243a14.342,14.342,0,0,1,2.6.8,12.436,12.436,0,0,1,1.756,1.048q1.242.931,2.416,2.008.679.815,1.319,1.678-3.23.077-6.956-2.794-.077-.107-.155-.223A1.541,1.541,0,0,0,678.532,453.61Zm-10.225-21.769,5.442-2.222-2.716-6.8Zm.99-13.484,3.512-1.436,6.791,17.045-3.521,1.436-1.038-2.551-8.013,3.269-1.009,3.386-3.551,1.445Zm12.747-5.2,3.58-1.455v19.8l-3.58,1.465Zm78.423,16.705a5.666,5.666,0,0,0,.378-4.259,5.053,5.053,0,0,0-6.684-3.269,6,6,0,0,0-3.5,7.179,5.021,5.021,0,0,0,6.684,3.26A5.636,5.636,0,0,0,760.467,429.862Zm-40.57,56.79a8.9,8.9,0,0,1,4.87,1.465,7.423,7.423,0,0,0,1.057,1.407q1.989,2.1,3.114,3.444,4.521,5.3,4.521,10.506a22.835,22.835,0,0,1-.281,3.3A70.121,70.121,0,0,1,731,515.911q-1.339,4.452-3.473,11.37a19.868,19.868,0,0,1-1.989-2.532,4.965,4.965,0,0,0-3.764-1.736,12.288,12.288,0,0,0-9.817,4.414q-.437.514-.8,1.019.039-4.172,1.407-16.666,1.484-12.611,1.6-14.134a30.611,30.611,0,0,0,.825-3.842,15.573,15.573,0,0,1,1.494-4.744A4.141,4.141,0,0,1,719.9,486.652Zm33.8,41.976a4.872,4.872,0,0,1,3.609,1.62q.136.136.262.281a4.985,4.985,0,0,1,1.213,3.6,16.4,16.4,0,0,1-1.261,5.073q-1.591,3.987-4.133,4.366a3.978,3.978,0,0,1-.737.029,6.087,6.087,0,0,1-1.484-.242,4.356,4.356,0,0,1-2.891-2.687,6.553,6.553,0,0,1-.436-1.931q-.019-.272-.019-.543,0-.194.01-.388.019-.388.049-.766a12.213,12.213,0,0,1,2.008-6.393A4.922,4.922,0,0,1,752.1,528.9,4.287,4.287,0,0,1,753.7,528.628Zm-28.473,9.886q-.272.9-.669,1.892a8.735,8.735,0,0,1-2.348,3.512,4.846,4.846,0,0,1-3.172,1.125q-3.9,0-5.384-2.687a5.892,5.892,0,0,1-.64-1.9,6.653,6.653,0,0,1-.068-.941q0-.553.029-1.077a14.015,14.015,0,0,1,.6-3.521,8.089,8.089,0,0,1,1.368-2.649,5.9,5.9,0,0,1,1.766-1.513,5.7,5.7,0,0,1,2.648-.708,6.408,6.408,0,0,1,4.113,1.222q.136.1.272.2a4.715,4.715,0,0,1,2,3.8A11.812,11.812,0,0,1,725.223,538.514ZM706.791,584.2a8.3,8.3,0,0,1-1.222,1.3q-.233.184-.475.359a4.284,4.284,0,0,1-3.163.688,3.686,3.686,0,0,1-.543-.136,4.216,4.216,0,0,1-.65-.252,24.832,24.832,0,0,0,.883-3.851q.039-.242.087-.563.4-3.036,1.3-13.62a95.424,95.424,0,0,1,2.008-14.222q1.727-6.48,4.851-6.48a11.474,11.474,0,0,1,4.812,1.154,10.994,10.994,0,0,0,4.589,1.164,7.279,7.279,0,0,0,3.163-.66q-.5,1.581-1.164,3.124-1.572,3.813-3.269,7.6-1.814,4.2-3.541,8.44-1.348,3.279-2.619,6.548a44.565,44.565,0,0,1-4.9,9.216Q706.869,584.1,706.791,584.2ZM691.24,595.158q.757-1.863,1.6-3.56a6.865,6.865,0,0,0,.669.708l.019.019A8.843,8.843,0,0,0,695.3,593.6a17.571,17.571,0,0,0,5.9,1.736,27.322,27.322,0,0,1,.107,2.852,26.528,26.528,0,0,1-.689,5.937q-1.193,5.549-3.968,5.549-3.677,0-7.111-7.6-.155-.359-.32-.728a41.261,41.261,0,0,1,1.611-5.171Q691.036,595.663,691.24,595.158Zm59.652-13.708q5.239,2.309,7.363,3.279,4.85,2.192,5.239,2.386a14.593,14.593,0,0,1,4.356,3.2,8.079,8.079,0,0,1,2.037,4.967.42.42,0,0,0-.019.049l-.437.1a14.221,14.221,0,0,1-3.007.32,21.579,21.579,0,0,1-11.369-3.357q-7.586-4.579-8.818-5.045a10.335,10.335,0,0,0,3.58-2.27,3.986,3.986,0,0,0,1.106-2.2q.01-.136.01-.272Q750.931,581.916,750.892,581.451Z" transform="translate(-627.214 -344.303)" fill="#fff" fill-rule="evenodd"/>
      <path id="Trazado_27724" data-name="Trazado 27724" d="M831.293,489.717q1.415,2,2.357,3.551a1.355,1.355,0,0,1-.1.669,2.108,2.108,0,0,1-.359.33l-.136.058c-.078.026-.113.061-.107.107l-.048-.049a2,2,0,0,1-1.445-.068,4.966,4.966,0,0,1-1.8-1.475q-.515-.543-1.562-1.775a55.7,55.7,0,0,0-5.52-5.074q-.235-.3-.456-.568-1.249-1.547-2.056-2.372-.2-.078-.214.417a.245.245,0,0,0-.165.116q-.01.029-.213.039a5.072,5.072,0,0,1,.136.572,11.169,11.169,0,0,0,.485,2.251,2.905,2.905,0,0,0,.669,1.164l.039.01-.165.32a11.845,11.845,0,0,1-1.494.475,2.98,2.98,0,0,1-1.465.146,4.154,4.154,0,0,1-.253.553,3.169,3.169,0,0,1-.407.757.409.409,0,0,1-.136.194,2.192,2.192,0,0,1,.349.068,5.533,5.533,0,0,0,1.484-.223,2.89,2.89,0,0,1,1.426-.087.449.449,0,0,0,.475,0,.759.759,0,0,1,.311-.087,1.888,1.888,0,0,1,.252.31q.1.126-.068.475a1.791,1.791,0,0,1-1.3.9,1,1,0,0,0-.136.029l-.058.019a.209.209,0,0,0-.126,0l-.33-.039q-.368,0-.659-.01a1.944,1.944,0,0,0-.34.029,2.851,2.851,0,0,0-.33-.019q-.311-.087-1.019-.291a.266.266,0,0,1-.165.019,6.594,6.594,0,0,1-1.31-.33l-1.475-1.208-.029-.024q-.2-.223-.427-.514.408.161.892.315.274.086.573.17-.124-.174-.233-.344a4.591,4.591,0,0,1-.805-2.207,2.516,2.516,0,0,1-.679.291h-.039a1.047,1.047,0,0,1-.65.049q-.437-1.019-1.106-2.668a5.041,5.041,0,0,0-.747-.5,9.025,9.025,0,0,0-.058-2.377q-.214-1.358-.34-2.784a5.794,5.794,0,0,1,.087-2.474q.349-.524,1.125,1.1a7.786,7.786,0,0,0,2.386,2.978,5.451,5.451,0,0,0,.553.33q.854.407.5,4.026-.352,2.988.422,3.91a1.128,1.128,0,0,0,.383.3,1.287,1.287,0,0,0,.747.175l.495-.96q.027-.185.058-.374a38.337,38.337,0,0,1,1.591-6.262,4.49,4.49,0,0,0,.621-.417,46.986,46.986,0,0,1,5.035,4.6q.7.695,1.5,1.494,5.093,5.151,7.12,6.16a2.356,2.356,0,0,0-.213-.262q-1.956-3.031-2.915-4.467-.685-1.026-.859-1.237a47.759,47.759,0,0,0-8.149-8.547,3.318,3.318,0,0,0-1.61.184,4.306,4.306,0,0,1-3.162-.1,8.084,8.084,0,0,1-1.931-2.338q-.32-.485-.7-1.077-.825-1.29-1.242-2.066a14.9,14.9,0,0,1-1.62-1.077c-.032.026-.068.052-.107.078a5.384,5.384,0,0,0-2.435,4.278,17.572,17.572,0,0,0-.077,2.7q.126,1.562.31,2.92-.582-.543-.989-.99a3.765,3.765,0,0,1-1.048-1.814,14.62,14.62,0,0,1-.252-2.037q-.068-.99-.126-2.357.029-.456.049-.883a5.89,5.89,0,0,1,4.559-3.347q.233-.029.475-.048l.8.631q.97.66,1.882,1.319.3.184.592.369l3.968,2.406a29.636,29.636,0,0,1,4.317,3.25q2.561,3.114,5.85,6.393.845,1.183,2.513,3.444l.31.417Zm-55.015-26.746a9.566,9.566,0,0,1,.572-4.462,11.545,11.545,0,0,1,.854-1.63,24.919,24.919,0,0,1,4.783,3.648q8.576,4.782,15.939,8.973,2.687,1.552,4.86,2.881a5.465,5.465,0,0,0-.136,2.91,2.9,2.9,0,0,0,1.64,2.241q-.728-.145-1.445-.32-.786-.184-1.542-.4a67.948,67.948,0,0,1-25.446-12.543,1.114,1.114,0,0,0-.02-.349A6.068,6.068,0,0,1,776.278,462.971Zm-99.324.558,2.571-1.1q.745.006,1.518.078a22.665,22.665,0,0,1,2.27.34.426.426,0,0,0,.281.019l3.23,1a1.206,1.206,0,0,0,.31.058q.553.155,1.193.4a10.95,10.95,0,0,0,1.552.611q.747.281,1.5.524a.573.573,0,0,1,.116.078c.013.026.058.049.136.068q.223.068.495.146a4.161,4.161,0,0,0,.728.039,4.82,4.82,0,0,1,4.143,2.6q.126.242.252.514a.4.4,0,0,0,.029.078,7.1,7.1,0,0,1-1.4,6.015,12.567,12.567,0,0,0-1.96,1.3,2.546,2.546,0,0,0-.553.378q-.437.31-.805.621-.106-1.387-.262-2.687a6.316,6.316,0,0,0-.592-2.125,9.59,9.59,0,0,0-1.135-2.183c-.026-.039-.052-.074-.077-.107q-.146-.2-.282-.407-.64-.863-1.319-1.678-1.174-1.077-2.416-2.008a12.453,12.453,0,0,0-1.756-1.048,14.344,14.344,0,0,0-2.6-.8q-.611-.136-1.251-.242-.941-.155-1.94-.233Q677.9,463.672,676.954,463.529Zm5.758,3.032a1.539,1.539,0,0,1,.4.2q.078.116.155.223a2.685,2.685,0,0,1-1.057,1.281,18.547,18.547,0,0,1-2.076,1.067,19.048,19.048,0,0,1-2.842.951,14.83,14.83,0,0,0-1.814.495q-1.057.359-2.028.66a4.818,4.818,0,0,0-1.833.951,27.528,27.528,0,0,0-2.445,2.4q-.155.223-.33.456a1.365,1.365,0,0,1-.243-.272.657.657,0,0,1-.136-.436c-.026.013-.035,0-.029-.039a.657.657,0,0,1,.087-.495,4.8,4.8,0,0,1,.378-1.242,8.333,8.333,0,0,1,3.337-2.377q1.222-.407,3.987-1.1l3.366-1.213.068.019q.068.01.107-.078.32-.116.611-.233a14.736,14.736,0,0,0,1.688-.825,4.2,4.2,0,0,1,.388-.223.435.435,0,0,1,.223-.146ZM729.228,422.6q-.485.34-.98.669a33.343,33.343,0,0,1-8.731,4.036q-3.007.815-5.937,1.814.388-.272.854-.543.378-.116.495-.155h.039a13.575,13.575,0,0,0,5.045-2.775l5.394-4.812.155-.155q.311-.311.621-.582l.136.116q.98.805,1.019.844Zm20.673-3.075a22.527,22.527,0,0,0,1.1-2.2,10.23,10.23,0,0,1,6.6.8q5.229,2.6,5.287,2.61l.5.417a51.713,51.713,0,0,1,5.19,5.258q-.281,17.045,4.434,25.087,1.154,1.785,1.9,3.056a13.7,13.7,0,0,0-2.677,3.735q-.126.262-.282.592-.2.524-.4,1.057a43.971,43.971,0,0,1-4.3-4.938q.543-4.744.679-9.565a33.016,33.016,0,0,0-.621-7.383q.029-.369.048-.766a23.728,23.728,0,0,0-7.285-16.928,7.24,7.24,0,0,0-3.948-2.028l-.058-.039a.213.213,0,0,0-.068.029,22.614,22.614,0,0,1-2.183.64A20.841,20.841,0,0,1,749.9,419.529Zm11.99,50.572a15.927,15.927,0,0,1-2.891-.582,15.34,15.34,0,0,0-2.658-1.077,15.13,15.13,0,0,0-3.657-1.009,10.049,10.049,0,0,0-3.7.233,10.957,10.957,0,0,0-3.745,1.7,48.348,48.348,0,0,0-4.307,3.628,28.769,28.769,0,0,1-3.512,2.774q-.417.262-.844.534l-.311.155q-.233.116-.456.252-.466.252-.931.485a14.171,14.171,0,0,1-3.619,1.154,1.278,1.278,0,0,1-.31.039q-.65.077-1.271.116a5.955,5.955,0,0,1-.96,0,11.074,11.074,0,0,1-2.891-.466,16.883,16.883,0,0,1-2.115-.766V477q1.882-1.154,2.619-6.209.34-6.626.34-6.781a75.969,75.969,0,0,0-.689-7.906,53.857,53.857,0,0,1-.582-8.168,39.268,39.268,0,0,0-.728-4.2q-.621-2.7-.883-4.045a5.36,5.36,0,0,0-1.572-2.755q-.039-.078-.087-.155a13.911,13.911,0,0,0-4.433-4.841h.116a1.268,1.268,0,0,1,.31-.039l3.269-.621a3.066,3.066,0,0,0,.466-.116,22.477,22.477,0,0,1,3.085,5.937,38.853,38.853,0,0,1,2.5,9.332,39.314,39.314,0,0,0,3.424,11.719q3.628,7.208,9.4,7.208a14.83,14.83,0,0,0,3.318-1.193,15.963,15.963,0,0,1,6.626-1.242q9.623,0,14.94,4.133-.3,1.387-.65,2.775-.039.155-.078.3A17.575,17.575,0,0,1,761.891,470.1ZM744.109,518.48a1.119,1.119,0,0,0,.495.184h.543a.431.431,0,0,1,.194-.039h.3a.225.225,0,0,1,.155-.039h.155l3.095-2.3q2.357.805,5.733-1.688a26.05,26.05,0,0,0,9.439-17.879,12.129,12.129,0,0,0-.165-2.707,26.121,26.121,0,0,1,1.319,2.406,25.558,25.558,0,0,1-1.737,10,35.429,35.429,0,0,1-3.735,5.937,25.456,25.456,0,0,0-3.725,7.353,50.174,50.174,0,0,0-1.708,14.464,8.874,8.874,0,0,0,.078,1.407q5.86-1.8,9.594,2.173-.621,1.882-1.329,3.531-.2-.233-.417-.456a6.626,6.626,0,0,0-4.9-2.183,6.183,6.183,0,0,0-5.18,2.755q-2.435,3.289-2.755,9.681-3.735-.378-5.374-2.522a5.177,5.177,0,0,1-.834-1.61,5.082,5.082,0,0,1-.213-1.475,31.82,31.82,0,0,1,1.155-6.558,37.962,37.962,0,0,0,1.164-9.274q0-2.212-1.814-10.186-.029-.116-.048-.233A3.735,3.735,0,0,0,744.109,518.48Zm14.464,42.82a.968.968,0,0,0-.078.378,26.4,26.4,0,0,1-4.928.388,19.775,19.775,0,0,1-2.93-.66,15.607,15.607,0,0,0-3.269-.728q-2.813,0-4.433,4.123a13.939,13.939,0,0,0-1.155,4.9q0,2.639,2.377,11.04.223.815.476,1.678.63,2.241,1.125,4.026.32,1.145.573,2.115a40.115,40.115,0,0,1,1.116,4.763h-.311a3.612,3.612,0,0,1-3.861-3.589q-.02-.184-.029-.379-.029-.437-.058-.853a27.522,27.522,0,0,0-1.174-6.044q-.068-.194-.126-.378a27.494,27.494,0,0,1-1.028-3.589,66.263,66.263,0,0,0-1.659-8.634,25.687,25.687,0,0,1-.5-6.17q0-7.324,3.162-10.371l.078-.077a4.021,4.021,0,0,1,.5-.427.718.718,0,0,1,.146-.116.739.739,0,0,1,.078-.068.113.113,0,0,1,.078-.039,6.31,6.31,0,0,1,.892-.543,1.827,1.827,0,0,1,.495-.233,1.568,1.568,0,0,1,.184-.068q.126.242.262.485a8.847,8.847,0,0,0,5.413,4.22,10.951,10.951,0,0,0,1.154.262,6.417,6.417,0,0,0,4.987,2.28,4.858,4.858,0,0,0,2.532-.543,3.593,3.593,0,0,1,.146,1v.077ZM735.65,392.987q.165-.116.31-.213-.31.66-.65,1.445a32.417,32.417,0,0,0,.407,13.766,25.319,25.319,0,0,0,2.028,5.724,16.259,16.259,0,0,0,4.889,5.918,15.866,15.866,0,0,0,3.851,2.076q.223.068.437.146a4.761,4.761,0,0,1,.679.184,2.7,2.7,0,0,1-.32.116,3.908,3.908,0,0,1-1.183.175q-.155,0-.311-.01a13.991,13.991,0,0,1-3.521-.611A14.641,14.641,0,0,1,735.2,416.7a18.233,18.233,0,0,1-3.328-6.141q-.01-.087-.019-.165a.177.177,0,0,1-.01-.1l-.146-.281q.029-.126.048-.252a4.163,4.163,0,0,0,.7-1.261,7.959,7.959,0,0,0-1.523-7.586q-.126-.136-.252-.252a13.09,13.09,0,0,1,1.591-3.851q.349-.534.728-1.057l2.542-2.677Zm-20.867,85.243a9.454,9.454,0,0,0-1.028-2.542A8.837,8.837,0,0,0,710.4,472.3q-.262-1.436-.534-3.095-.378-7.45-.378-7.838a20.846,20.846,0,0,1,2.406-8.653q.3-.65.631-1.28a44.775,44.775,0,0,1,2.348-4.084q1.038-1.6,2.222-3.124.311-.378.611-.728a17.224,17.224,0,0,1,3.444-3.269,16.106,16.106,0,0,1,.631,8.537,23.832,23.832,0,0,1-1.125,4.007.2.2,0,0,0-.058.165.168.168,0,0,0-.107.165,4.475,4.475,0,0,1-.33.815,1.783,1.783,0,0,1-.165.446l-3.279,1.038-.378,2.833-1.814,13.378v.165q.058.058.33,3.23A13.345,13.345,0,0,1,714.783,478.231Zm-47.118-1.1a.043.043,0,0,1,.01-.068,6.156,6.156,0,0,1,1.145-1.775q.572-.272,1.1-.534a18.3,18.3,0,0,1,4.666-1.669,2.571,2.571,0,0,1,1.775.213.873.873,0,0,1,.388.33,1.928,1.928,0,0,1-1.125,1.106q-.8.4-1.863.805-1.436.524-2.736.98A8.609,8.609,0,0,1,667.665,477.134Zm5.093,2.3.446-1.174,1.232-.155a16.661,16.661,0,0,0,1.766-.805l1.368-.126a2.615,2.615,0,0,1,.369.446q.068.33.136.669a3.433,3.433,0,0,1-2.493,1.465,6.462,6.462,0,0,1-2.212-.087Q673.059,479.55,672.758,479.433Zm6.577,3.163a5.391,5.391,0,0,1-1.407-1.407,14.405,14.405,0,0,1,3.25-.679,1.36,1.36,0,0,1,1.3.553l-.2.407a2.738,2.738,0,0,1-1.591.892Q680.015,482.5,679.336,482.6Zm19.2-5.365q1.688,1.086,4.346,2.891a11.6,11.6,0,0,1,3.657,1.892q.786.592,2.076,1.707a12.587,12.587,0,0,0,4.986,1.436.124.124,0,0,0-.029.058.433.433,0,0,0-.058.136,5.486,5.486,0,0,1-1.562,1.843q-.359.252-.8.514a14.565,14.565,0,0,1-7.625,2.144q-3.521-.175-7.586-5.714a22.272,22.272,0,0,0-1.5-1.9q-.339-.446-.7-.854-.747-.854-1.494-1.736-.582-.718-1.145-1.445l.058-.039a.6.6,0,0,1,.068-.039,6.328,6.328,0,0,0,.534.349,5.035,5.035,0,0,0,4.065.475A5.447,5.447,0,0,0,698.534,477.231Zm-28.143-2.639a17.672,17.672,0,0,0,2.338-.6,7.505,7.505,0,0,1,1.164-.272q.757-.146,2.066-.359a2.071,2.071,0,0,0-1.067-.058,1.1,1.1,0,0,1-.437-.019,1.025,1.025,0,0,1-.437.078,7.964,7.964,0,0,1-.97.243A16.085,16.085,0,0,0,670.391,474.593Zm94.255-31.781a5.636,5.636,0,0,1-3.124,2.91,5.021,5.021,0,0,1-6.684-3.26,6,6,0,0,1,3.5-7.179,5.053,5.053,0,0,1,6.684,3.269A5.666,5.666,0,0,1,764.647,442.812Zm-.951-.5a4.178,4.178,0,1,0-2.474,2.047A4.026,4.026,0,0,0,763.7,442.308Zm-20.974,77.618q-.8,4.239-5.374,15.6-.252.689-1.009,4.094a37.986,37.986,0,0,1-1.484,5.433.144.144,0,0,0-.039.107,14.175,14.175,0,0,1-.65,1.523,2.509,2.509,0,0,0-.184.4,2.3,2.3,0,0,0-.252.4q-.039.077-.068.146a.5.5,0,0,0-.116.184,9.423,9.423,0,0,1-2.581,2.852,16.131,16.131,0,0,0,.718-4.472,6.483,6.483,0,0,0-2.745-5.229,8.918,8.918,0,0,0-6.034-1.969,7.808,7.808,0,0,0-6.073,3.056,10.471,10.471,0,0,0-1.164,1.853,8.475,8.475,0,0,1-.33-2.319v-.184q.359-.5.8-1.019a12.288,12.288,0,0,1,9.818-4.414,4.965,4.965,0,0,1,3.764,1.736,19.881,19.881,0,0,0,1.989,2.532q2.134-6.917,3.473-11.37a70.1,70.1,0,0,0,2.183-9.138,22.826,22.826,0,0,0,.281-3.3q0-5.209-4.521-10.506-1.125-1.339-3.114-3.444a7.427,7.427,0,0,1-1.057-1.407q1.164.689,2.5,1.669a23.771,23.771,0,0,1,8.217,7.605q3.221,4.676,3.221,8.12A8.383,8.383,0,0,1,742.722,519.926Zm-16.113,42.1a7.28,7.28,0,0,1-3.162.66,11,11,0,0,1-4.589-1.164,11.473,11.473,0,0,0-4.812-1.154q-3.124,0-4.85,6.48a95.431,95.431,0,0,0-2.008,14.222q-.9,10.584-1.3,13.62-.048.32-.087.563a24.834,24.834,0,0,1-.883,3.851,5.363,5.363,0,0,1-2.125-1.688q-.039-1.086-.068-2.183-.214-8.081.184-16.172.116-2.193.31-5.937.155-3.774.5-7.664.311-3.9.534-3.706,2.93-8.323,6.781-9.788a10.863,10.863,0,0,1,3.056-.7q-.01.368-.01.747a8.616,8.616,0,0,0,.1,1.29,8.079,8.079,0,0,0,.883,2.61q2.037,3.7,7.392,3.7a6.664,6.664,0,0,0,4.443-1.62q.087.252.165.524a3.9,3.9,0,0,1,0,1.892.732.732,0,0,0-.039.233Q726.832,561.3,726.609,562.028Zm-18.316,41.685q.359-.116.708-.252l-.078.582q-.155.659-.281,1.581-.349,2.551-.495,7.13a30.745,30.745,0,0,1-1.232,8.6,12.832,12.832,0,0,1-1.765,3.085,3.269,3.269,0,0,1-3.124,1.232,12.921,12.921,0,0,1-5.966-2.969,9.485,9.485,0,0,1-2.988-4.86,7.4,7.4,0,0,1-.175-.922,24.315,24.315,0,0,1,.5-2.619q.165.369.32.728,3.434,7.6,7.111,7.6,2.774,0,3.968-5.549a26.529,26.529,0,0,0,.689-5.937,27.317,27.317,0,0,0-.107-2.852,17.568,17.568,0,0,1-5.9-1.737,8.841,8.841,0,0,1-1.775-1.271l-.019-.02a6.872,6.872,0,0,1-.669-.708q.582-1.193,1.213-2.309a36.157,36.157,0,0,1,2.018-3.24,11.992,11.992,0,0,0-.291,2.58q-.01.155-.01.311a4.455,4.455,0,0,0,.058.718,4.548,4.548,0,0,0,.495,1.455,3.634,3.634,0,0,0,1.523,1.5,5.466,5.466,0,0,0,2.59.553A4.136,4.136,0,0,0,708.293,603.713Zm29.763-6.412a.155.155,0,0,0-.01-.048q-.233-1.115,2.619-4.239a8.742,8.742,0,0,1,1.707-.99,12.747,12.747,0,0,0,.611,3.464,4.868,4.868,0,0,0,.291.718,4.607,4.607,0,0,0,.97,1.358q1.814,1.766,4.9.825,2.891-.883,3.25-5.015.01-.078.019-.146.835.34,1.582.669.543.233,1.077.5.039.466.039,1.155,0,.136-.01.272a3.987,3.987,0,0,1-1.106,2.2,10.334,10.334,0,0,1-3.58,2.27q1.232.465,8.818,5.045A21.578,21.578,0,0,0,770.6,608.7a14.224,14.224,0,0,0,3.007-.32l.437-.1a.029.029,0,0,1,.019-.01q-.155.272-.31.5c-.019.032-.039.068-.058.107a6.1,6.1,0,0,1-.825,1.048,2.664,2.664,0,0,1-1.737.893,18.953,18.953,0,0,1-8.168-1.048,41.722,41.722,0,0,1-7.431-3.657,15.2,15.2,0,0,0-4.162-1.542q-1.465-.349-4.472-.883-5.5-1.048-7.7-3.939A6.852,6.852,0,0,1,738.056,597.3Z" transform="translate(-631.393 -357.253)" fill="#c5c9ee" fill-rule="evenodd"/>
      <path id="Trazado_27725" data-name="Trazado 27725" d="M1063.813,860.97a.4.4,0,0,1-.214-.155,3.473,3.473,0,0,0-.369,2.58,3.078,3.078,0,0,1-.359,2.493,11.348,11.348,0,0,1-1.824.514,1.791,1.791,0,0,0,1.3-.9q.165-.349.068-.475a1.9,1.9,0,0,0-.252-.31.761.761,0,0,0-.311.087.449.449,0,0,1-.475,0,2.889,2.889,0,0,0-1.426.087,5.527,5.527,0,0,1-1.484.223,2.2,2.2,0,0,0-.349-.068.408.408,0,0,0,.136-.194,3.16,3.16,0,0,0,.407-.757,4.168,4.168,0,0,0,.253-.553,2.981,2.981,0,0,0,1.465-.146,11.855,11.855,0,0,0,1.494-.475l.165-.32-.039-.01a2.9,2.9,0,0,1-.669-1.164,11.155,11.155,0,0,1-.485-2.25,5.044,5.044,0,0,0-.136-.573c.136-.006.207-.019.213-.039a.245.245,0,0,1,.165-.116q.01-.495.214-.417.808.824,2.056,2.372Q1063.578,860.674,1063.813,860.97Zm-73.524,30.3-3.095,2.3h-.155a.226.226,0,0,0-.155.039h-.3a.431.431,0,0,0-.194.039h-.543a1.12,1.12,0,0,1-.495-.184q.96-1.873-.01-5.209a25.225,25.225,0,0,0-13.126-14.581,7.817,7.817,0,0,0-4.608-.708,11.971,11.971,0,0,1-.64-1.445q4.2.194,11.408,3.706,2.348,3.027,4.851,5.695.078.078.155.165a22.926,22.926,0,0,0,4.055,3.415,12.951,12.951,0,0,0,3.725,1.678,9.633,9.633,0,0,0,1.746.281q.3.019.6.019.446,0,2.988-.32.107-.02.213-.029-.106.145-.213.3l-.369.466a.3.3,0,0,1-.039.048Z" transform="translate(-872.634 -732.232)" fill="#dbdfff" fill-rule="evenodd"/>
      <path id="Trazado_27726" data-name="Trazado 27726" d="M974.6,392.364q-.029.339-.058.747-1.038,2.474-5.394,2.474a16.769,16.769,0,0,1-7.547-2.357l-.039.039-1.892-1.542q-.039-.039-1.019-.844l1.746-8.265a1.041,1.041,0,0,0,.029-.136.3.3,0,0,0-.029-.175.3.3,0,0,1,.029-.175.33.33,0,0,1,0-.194.877.877,0,0,1-.029-.34q-.019-.495-.058-1.019a14,14,0,0,1,17.938-21.439q.873.495,1.775,1.106.155.136.311.291a16.5,16.5,0,0,0-12.379,3.114l-.116.087-2.542,2.678q-.378.524-.728,1.057a13.092,13.092,0,0,0-1.591,3.851,2.667,2.667,0,0,0-2.4-.854,2.852,2.852,0,0,0-2.028,2.047,8.094,8.094,0,0,0,1.523,7.586,2.826,2.826,0,0,0,2.648,1.116,2.326,2.326,0,0,0,1.329-.8q-.019.126-.049.252l.146.281a.177.177,0,0,0,.01.1c.007.052.013.107.019.165a18.231,18.231,0,0,0,3.328,6.141A14.641,14.641,0,0,0,974.6,392.364ZM960.856,367.4a20.729,20.729,0,0,1,2.047-3.5,13.411,13.411,0,0,1,3.832-3.793q3.221-1.9,9.07-2.134-6.607-2.464-12.029,2.7A9.131,9.131,0,0,0,960.856,367.4Z" transform="translate(-863.73 -327.915)" fill="#4242bd" fill-rule="evenodd"/>
      <path id="Trazado_27727" data-name="Trazado 27727" d="M1052.876,454.706l-.058.388q-1.193.049-2.3.068-1.3-.01-2.542-.107a32.325,32.325,0,0,1-7.984-1.591,2.622,2.622,0,0,1-.592-.437,6.942,6.942,0,0,1-.834-1.135q1.222-.689,6.606-.407,2.823.175,4.579.233.708.02,1.242.029l1.416-.01.01-.039a4.907,4.907,0,0,0,.6-.078q.01.446.01.931Z" transform="translate(-930.342 -404.507)" fill="#ff65ab" fill-rule="evenodd"/>
      <path id="Trazado_27728" data-name="Trazado 27728" d="M1000.142,779.171q.262.087.543.184a15.923,15.923,0,0,0,2.891.582l-1.038,13.484q0,1.436-.029,2.872-.058,2.842-.243,5.685v.078a2.934,2.934,0,0,1-.388,1.31.3.3,0,0,0-.039.116,7.62,7.62,0,0,1-1.038,1.271.441.441,0,0,0-.155.155,8.328,8.328,0,0,1-2.581,1.542q-1.232.5-2.5.931.543-4.55.543-6.092-.068-4.2-.1-7.208-.019-2.134-.019-3.667a3.943,3.943,0,0,1,1.61-2.969,8.067,8.067,0,0,0,2.2-2.348,9.523,9.523,0,0,0,.417-3.085q-.077-1.969-.077-2.658Zm-1.649-.7a16.44,16.44,0,0,0,.31,1.96,3.9,3.9,0,0,1-1.969,4.666,19.446,19.446,0,0,0-2.037,1.232,2.525,2.525,0,0,0-.97,2.008q0,.96.233,5.52.049,1.086.117,2.377.349,6.936.689,11.37a45.182,45.182,0,0,1-6.771,1.581h-.155q0-1.155.116-2.736.117-2.542.116-3.085a69.044,69.044,0,0,0-.582-7.169q-.165-1.387-.33-2.464a12.186,12.186,0,0,0-.863-3.7l-6.015-.155a7.433,7.433,0,0,1-1.271-4.278,28.764,28.764,0,0,0,3.512-2.774,48.379,48.379,0,0,1,4.307-3.628,10.958,10.958,0,0,1,3.745-1.7,10.048,10.048,0,0,1,3.7-.233,15.123,15.123,0,0,1,3.657,1.009A3.542,3.542,0,0,1,998.493,778.472Zm-28.706,20.935a19.347,19.347,0,0,0-2.27-11.535,11.07,11.07,0,0,0,2.891.466q.078.272.155.572,1.543,5.006,2.319,8.459a30.047,30.047,0,0,1,.757,4.841l.543-.078a21.828,21.828,0,0,0,.078-2.192q0-1.64-.1-3.26a52.094,52.094,0,0,0-1.213-8.42v-.078a14.172,14.172,0,0,0,3.619-1.154q.465-.233.931-.485l-.155.1a14.092,14.092,0,0,0,.844,2.542q2.425,5.209,8.207,2.319.087,1.019.175,2.231.417,5.656.864,15.493a23.613,23.613,0,0,1-9.478-1,75.039,75.039,0,0,1-7.2-2.736.975.975,0,0,0-.233-.116,1.342,1.342,0,0,1-.854-1.154v-.039q-.145-1.193-.184-2.474Q969.68,800.532,969.787,799.407Z" transform="translate(-873.078 -667.089)" fill-rule="evenodd" fill="url(#linear-gradient)"/>
      <path id="Trazado_27729" data-name="Trazado 27729" d="M984.959,793.485v.078a52.1,52.1,0,0,1,1.213,8.421q.1,1.62.1,3.26a21.834,21.834,0,0,1-.078,2.192l-.543.078a30.024,30.024,0,0,0-.757-4.841q-.776-3.454-2.319-8.459-.077-.3-.155-.572a5.977,5.977,0,0,0,.96,0q.621-.039,1.271-.116A1.277,1.277,0,0,0,984.959,793.485Zm14.988,21h-.194a1.269,1.269,0,0,0-.31.039q-.446-9.837-.864-15.493-.087-1.213-.175-2.231-5.782,2.891-8.207-2.319a14.106,14.106,0,0,1-.844-2.542l.155-.1q.223-.136.456-.252l.311-.155q.427-.271.844-.534a7.434,7.434,0,0,0,1.271,4.278l6.015.155a12.178,12.178,0,0,1,.863,3.7q.165,1.077.33,2.464a69.065,69.065,0,0,1,.582,7.169q0,.543-.116,3.085Q999.947,813.333,999.947,814.487Zm10.555-30.714.34.146.97.427a2.342,2.342,0,0,1,.339.116v.194q0,.689.078,2.658a9.527,9.527,0,0,1-.417,3.085,8.07,8.07,0,0,1-2.2,2.348,3.943,3.943,0,0,0-1.61,2.969q0,1.533.019,3.667.029,3.007.1,7.208,0,1.542-.543,6.092-.349.107-.7.223-.339-4.434-.689-11.37-.068-1.29-.117-2.377-.233-4.56-.233-5.52a2.525,2.525,0,0,1,.97-2.008,19.443,19.443,0,0,1,2.037-1.232,3.9,3.9,0,0,0,1.969-4.666A16.426,16.426,0,0,1,1010.5,783.774Z" transform="translate(-885.087 -672.391)" fill="#9999ef" fill-rule="evenodd"/>
      <path id="Trazado_27730" data-name="Trazado 27730" d="M658.58,524.8l-4.569,1.95v.087l-.325.141L648.53,529.2l-1.6.689-2.571,1.1-1.475.635-2.323,1v-.087l-9.264,3.977a3.386,3.386,0,0,1-2.823.3,1.071,1.071,0,0,1-.543-.349,4.474,4.474,0,0,1-.718-2.852v-36.5a6.578,6.578,0,0,1,4.084-6.548l16.414-6.965v-.048l2.881-1.281v.049l12.495-5.394q2.018-.815,3.066-.175,1.028.737,1.028,3.163v36.427a7.127,7.127,0,0,1-1.368,4.511,6.791,6.791,0,0,1-2.726,2.027Zm-4.948-31.237v19.81l3.58-1.465v-19.8Zm-12.747,5.2-6.83,22.594,3.551-1.445,1.009-3.386,8.013-3.269,1.038,2.551,3.522-1.436L644.4,497.33Zm-.99,13.484,2.726-9.022,2.716,6.8Z" transform="translate(-598.803 -424.712)" fill="#ff5c98" fill-rule="evenodd"/>
      <path id="Trazado_27731" data-name="Trazado 27731" d="M588.321,507.9l-4.133-3.036a1.953,1.953,0,0,1-.592-.359l-4.181-3.085a1.793,1.793,0,0,1-1.028-1.125,6.152,6.152,0,0,1-.32-2.183V461.656a6.4,6.4,0,0,1,4.094-6.451l24.311-10.5,7.48-3.23q2.105-.815,3.095-.136l.049.01,4.676,3.434.087.019,4.686,3.386q-1.048-.64-3.066.175l-12.495,5.394v-.048l-2.881,1.281v.049L591.687,462a6.579,6.579,0,0,0-4.084,6.548v36.5A4.474,4.474,0,0,0,588.321,507.9Z" transform="translate(-559.189 -396.149)" fill="#b91a5f" fill-rule="evenodd"/>
    </g>
  </g>
</svg>
