<svg xmlns="http://www.w3.org/2000/svg" width="130" height="130" viewBox="0 0 130 130">
  <g id="Grupo_16094" data-name="Grupo 16094" transform="translate(-454 -3143)">
    <circle id="Elipse_1313" data-name="Elipse 1313" cx="65" cy="65" r="65" transform="translate(454 3143)" fill="#f0fff0"/>
    <path id="Trazado_27751" data-name="Trazado 27751" d="M79.24,65.665,62.28,55.874V36.289L79.24,26.5V65.665ZM12.424,25.449H53.118a5.391,5.391,0,0,1,5.376,5.375V61.339a5.391,5.391,0,0,1-5.376,5.375H12.424a5.391,5.391,0,0,1-5.375-5.375V30.824a5.391,5.391,0,0,1,5.375-5.375Zm2.571,3.672a4.24,4.24,0,1,0,4.24,4.24A4.24,4.24,0,0,0,14.995,29.121Z" transform="translate(475.951 3161.246)" fill="#5ed45e" fill-rule="evenodd"/>
  </g>
</svg>
